<?xml version="1.0" encoding="utf-8"?>
<!-- Generator: Adobe Illustrator 23.0.0, SVG Export Plug-In . SVG Version: 6.00 Build 0)  -->
<svg version="1.1" id="Capa_1" xmlns="http://www.w3.org/2000/svg" xmlns:xlink="http://www.w3.org/1999/xlink" x="0px" y="0px"
	 viewBox="400 300 550 400"  xml:space="preserve">
<style type="text/css">
	.st0{opacity:0.1;fill-rule:evenodd;clip-rule:evenodd;fill:#FFFFFF;animation:nose 5s ease;}
	.st1{opacity:0.22;fill-rule:evenodd;clip-rule:evenodd;fill:#FFFFFF;}
	.st2{fill:#CCCCCC;}
	.st3{fill:#FFFFFF;}
	.st4{fill:none;stroke:#858585;stroke-width:0.7286;stroke-linecap:round;stroke-linejoin:round;stroke-miterlimit:10;}
	.st5{fill-rule:evenodd;clip-rule:evenodd;fill:#CECECE;}
	.st6{fill-rule:evenodd;clip-rule:evenodd;fill:#FFFFFF;}
	.st7{clip-path:url(#SVGID_2_);}
	.st8{fill-rule:evenodd;clip-rule:evenodd;fill:#2F3A88;}
	.st9{clip-path:url(#SVGID_8_);fill:none;stroke:#278F8E;stroke-width:2;stroke-miterlimit:10;stroke-dasharray:4;}
	.st10{fill:#1F5DA5;}
	.st11{clip-path:url(#SVGID_10_);fill:#006D9F;}
	.st12{fill:#009CDF;}
	.st13{fill:#0081C6;}
	.st14{fill:#222221;}
	.st15{fill:url(#SVGID_11_);}
	.st16{fill:#009CDF;stroke:#009CDF;stroke-width:0.9107;stroke-miterlimit:10;}
	.st17{fill:#C4C4C4;}

	keyframes nose {
		from{opacity:0;}
		to{opacity:0;}
	}

	
</style>
<path class="st0" d="M929,371.8c0,106.2-86.1,192.3-192.3,192.3c-69.4,0-130.2-36.7-164-91.8c-1.8-2.9-3.5-5.9-5.1-8.9
	c-11.2-20.6-18.7-43.6-21.7-67.9c-1-7.8-1.5-15.7-1.5-23.7c0-2.5,0.1-5.1,0.2-7.6c0.1-3.2,0.3-6.4,0.6-9.6v0
	c2.1-24,8.7-46.8,18.9-67.5h345.3C921.9,312.6,929,341.3,929,371.8z"/>
<path class="st0" d="M863.2,338.8c0,86.1-68.3,156.3-153.6,159.3c-1.9,0.1-3.8,0.1-5.8,0.1c-2.3,0-4.6,0-6.8-0.2
	c-7.5-0.3-14.9-1.1-22.2-2.5c-55.7-10.2-101.3-49.4-120.5-101.4c-3.6-9.7-6.3-19.8-7.9-30.3c-0.5-3.1-0.9-6.2-1.2-9.4v0
	c-0.5-5.2-0.8-10.4-0.8-15.7c0-18.1,3-35.6,8.6-51.8h301.5c4.7,13.6,7.6,28.1,8.4,43.1c0,0,0,0,0,0
	C863.1,333,863.2,335.9,863.2,338.8z"/>
<path class="st1" d="M870.2,373c0,71.3-57.8,129-129,129c-10.9,0-21.5-1.4-31.6-3.9c-1.9-0.5-3.7-1-5.5-1.5c-3.2-1-6.3-2-9.4-3.2
	c-29.3-11.3-53.5-33.1-67.9-60.8v0c-1-1.9-1.9-3.8-2.8-5.8c-2-4.4-3.8-9-5.4-13.7c-0.1-0.3-0.2-0.7-0.3-1c-3.9-12.3-6-25.5-6-39.2
	c0-3.7,0.2-7.4,0.5-11c0,0,0,0,0,0c0.1-1.5,0.3-3,0.5-4.5c2.4-20,9.4-38.6,19.8-54.7c3.6-5.6,7.7-10.8,12.1-15.8h192.4
	c11.1,12.4,19.9,27.1,25.6,43.1c0,0,0,0,0,0C867.6,343.6,870.2,358,870.2,373z"/>
<path class="st0" d="M633,298.3c0,1.5,0,3-0.1,4.5c-0.9,20.5-8.2,39.4-19.8,54.7c-0.7,0.9-1.4,1.9-2.2,2.8c0,0,0,0,0,0.1
	c-2.6,3.2-5.5,6.3-8.5,9.1c-0.4,0.4-0.8,0.7-1.2,1.1c-2,1.8-4,3.5-6.2,5.2c-0.6,0.5-1.3,1-1.9,1.4c-3.3,2.5-6.8,4.7-10.5,6.7
	c-0.6,0.3-1.2,0.6-1.8,1c-8.2,4.4-17.2,7.6-26.6,9.4c-2.8,0.6-5.6,1-8.4,1.3c-3.5,0.4-7,0.6-10.6,0.6c-6.5,0-12.9-0.6-19-1.9
	c-0.6-0.1-1.3-0.3-1.9-0.4c-44-9.6-76.9-48.7-76.9-95.6c0-3.8,0.2-7.6,0.7-11.3h194.3C632.8,290.7,633,294.5,633,298.3z"/>
<path class="st1" d="M603.1,298.9c0,33.2-24.7,60.7-56.8,65c-0.6,0.1-1.2,0.2-1.8,0.2c-2.3,0.3-4.7,0.4-7,0.4
	c-10.4,0-20.3-2.4-29-6.8c-0.1,0-0.2-0.1-0.3-0.1c-21.5-10.8-36.3-33-36.3-58.7c0-4.1,0.4-8,1.1-11.9H602
	C602.7,290.9,603.1,294.8,603.1,298.9z"/>
<path class="st2" d="M824,352.4c0,69.7-51.1,128.2-120,144.2c-2.3,0.5-4.7,1-7.1,1.5c-10,1.9-20.3,2.9-30.9,2.9
	c-34.9,0-67.2-10.7-93.3-28.7c-27.8-19.1-48.6-46.6-58.4-78.4c-3.6-11.5-5.7-23.7-6.1-36.2c-0.1-1.7-0.1-3.5-0.1-5.2
	c0-0.9,0-1.8,0-2.7c0.4-22.5,6.2-43.7,16.1-62.7h283.8c9.9,19,15.7,40.2,16.1,62.7C824,350.6,824,351.5,824,352.4z"/>
<path class="st3" d="M824,347c0,0.9,0,1.8,0,2.7c-1.4,71.8-56.7,131.2-129.3,143.7c-6.5,1.1-13.1,1.9-19.9,2.2
	c-2.9,0.1-5.8,0.2-8.8,0.2c-37.2,0-71.5-12.1-98.5-32.4c-23.6-17.7-41.6-41.6-51.4-69.2c-4.1-11.6-6.8-23.8-7.7-36.5
	c-0.2-2.7-0.3-5.4-0.4-8.1c0-0.9,0-1.8,0-2.7c0-21.3,4.8-41.6,13.3-60h289.4C819.2,305.3,824,325.6,824,347z"/>
<line class="st4" x1="708.2" y1="406.7" x2="705.9" y2="438.5"/>
<line class="st4" x1="626.7" y1="412.3" x2="626.7" y2="443.8"/>
<path class="st5" d="M586.7,424c-0.5,0-1-0.1-1.5-0.3c-1.3-0.5-2-1.6-1.9-2.9c0-0.4,0-0.8,0.1-1.2l0-0.4l-0.1-2.8
	c-0.3-0.6-0.3-1.3-0.3-1.7l0-2.3c-0.2-0.4-0.2-0.7-0.2-1c0-0.1,0-0.3,0.1-0.6c-0.1-0.7-0.2-1.5,0-2.3c0-0.1,0-0.4-0.1-0.6
	c0-0.3-0.1-0.6-0.1-0.8c0-0.4,0-0.9,0-1.3l0-0.5l-0.1-10c-0.2-0.5-0.2-1.1,0-1.6l0-0.2l0-3.7c-0.3-0.5-0.4-1.2-0.2-1.7
	c0.3-0.7,0.2-1.6,0.1-2.5l0-0.5c0-0.7,0-1.4,0-2l0,0c-0.1-0.7,0-1.4,0-2c0-1.3,0-2.7,0-4.1l0-3.5l0.1-1.3c-0.1-0.8-0.1-1.5,0.1-2.4
	c-0.1-0.3-0.2-0.5-0.2-0.8c-0.1-0.4-0.1-0.9,0-1.3l0-0.2c-0.4-1.5-0.5-3,0-4.7c-0.3-0.5-0.3-1.1-0.1-1.7c-0.3-0.8-0.1-1.6,0.5-2.2
	l0.2-0.2c0.3-0.4,0.8-1,1.5-1.4c0.6-0.4,1.3-0.4,1.8-0.4l0.5,0c0.1,0,0.1,0,0.2,0c1.1-0.2,2.4-0.4,3.9-0.4c0.7,0,1.4,0,2.1,0l0.2,0
	c0.2-0.1,0.5-0.2,0.7-0.2c0.1,0,0.3,0,0.5,0.1c0.4-0.1,2.4-0.6,2.4-0.6l0.4,0.4c0.1,0,0.1,0,0.2,0c0.2,0,0.5-0.1,0.7-0.1
	c0,0,0,0,0,0c0.4-0.2,0.8-0.3,1.3-0.3c0.2,0,0.4,0,0.6,0l0,0c0.2,0,0.3,0,0.5,0c0.7,0,1.5,0,2.4,0.4c0.7,0.1,1.2,0.3,1.7,0.7
	c1.2,0.2,2.2,0.7,3,1.1c1.1,0.6,2.1,1.3,3,2.2c0.6,0.2,0.9,0.5,1.1,0.9l0.7,0.9c0.8,0.3,1.4,1,1.8,1.9c0.1,0.2,0.2,0.4,0.2,0.5
	l0.6,1.1c0.1,0.2,0.2,0.4,0.3,0.6c0.2,0.4,0.5,0.8,0.7,1.2c0.6,0.8,0.7,1.7,0.3,2.6c-0.1,0.2-0.1,0.4,0,0.7c0.2,0.8,0.1,1.5,0.1,2.1
	c0,0.1,0,0.1,0,0.2c0.2-0.2,0.4-0.3,0.6-0.5c0.4-0.3,0.8-0.7,1.2-1.3c0.8-1.2,2.1-1.6,3.1-1.8c1-0.2,1.9-0.4,2.9-0.6l0.8-0.1
	c0.3-0.2,0.5-0.2,0.8-0.2c0.2,0,0.5,0.1,0.7,0.2c0.1,0,0.2,0,0.3,0c0.7,0,1.6,0,2.4,0.3c0.1,0,0.2,0,0.3,0c0.2,0,0.3,0,0.5,0
	c0.3,0,0.6,0,0.8,0.1c0.2,0,0.4,0,0.5,0c0.5,0,0.9,0.1,1.3,0.3c0.3,0.1,0.6,0.2,0.8,0.3c0.7,0.1,1.3,0.5,1.8,0.8
	c0.3,0.1,0.6,0.2,0.9,0.4c0.5,0.4,0.9,0.8,1.4,1.1l0-0.1l1.3,1.2l1.1,1l0,0.1l0.5,0.5c0.4,0.5,0.8,0.9,1.2,1.4
	c0.1,0.1,0.1,0.1,0.2,0.2c0,0,0-0.1,0-0.1c0.1-0.3,0.2-0.7,0.2-1c0.1-0.4,0.3-0.7,0.4-0.8l0.1-0.1c0-0.1,0-0.2,0-0.3
	c0-0.3,0.1-0.8,0.3-1.3c0.2-0.4,0.4-0.7,0.6-0.9c0.1-0.1,0.2-0.2,0.2-0.3c0-0.3,0.1-0.5,0.3-0.7c0.1-0.4,0.3-0.7,0.6-1l0.1-0.2
	c0.4-0.6,0.8-1.1,1.2-1.5c0.2-0.2,0.4-0.4,0.6-0.6c0.4-0.5,0.9-1.1,1.6-1.4c0.4-0.4,0.8-0.5,1.1-0.5c0.5-0.4,1-0.6,1.6-0.8
	c1-0.7,2.1-0.9,3.1-0.9c0.6-0.2,1.2-0.3,1.7-0.4c0.3,0,0.6-0.1,0.8-0.1l0.2-0.1l0.2,0c0.3,0,0.6,0.1,0.8,0.2c0.6,0,1.2,0.2,1.7,0.3
	l2.6,0l0.2,0c0.1,0,0.2,0,0.2,0c0.1,0,0.2,0,0.2,0c0,0,0,0,0,0c0.4,0,0.7,0.1,1,0.2l0.3,0c0.9,0.1,1.5,0.5,1.9,0.8
	c0,0,0.1,0.1,0.1,0.1c0.2-0.1,0.4-0.1,0.5-0.1c0.2,0,0.3,0,0.5,0.1c0.1,0,0.1,0,0.2,0c0.4,0.1,1,0.2,1.5,0.7
	c0.4,0.1,0.6,0.3,0.8,0.4l0.1,0.1c0.7,0.4,0.9,1,1.1,1.3l0,0l0.4,0.6c0.4,0.4,0.6,0.8,0.7,1.1l0,0.1c0,0.1,0.1,0.1,0.1,0.2
	c0,0,0,0.1,0.1,0.1c0.2,0.3,0.5,0.6,0.6,0.9c0.2-0.1,0.4-0.2,0.6-0.2c0.3-0.1,0.5-0.1,0.8-0.1c0.3-0.1,0.7-0.2,1-0.2
	c0.1,0,0.3,0,0.4,0c0,0,0,0,0,0c0.2-0.1,0.4-0.1,0.6-0.1c0.2,0,0.4,0,0.6,0.1c0,0,0,0,0,0c0.1,0,0.2,0,0.4,0c0.3,0,0.6,0,0.9,0.1
	c0.2-0.2,0.6-0.3,1-0.3c0.5,0,0.9,0.2,1.1,0.4c0.7,0.4,1.1,1.1,1.1,2c0,0.1,0,0.3,0,0.4c0,0.4,0,0.8,0.1,1.1c0.2,0.5,0,1,0,1.3
	c0,0.1,0,0.2,0,0.2c0.1,0.4,0.2,0.9,0,1.6c-0.1,0.4-0.1,0.7,0,1c0.1,0.5,0.1,1,0.1,1.3l0,0.2c0,0.2-0.1,0.4-0.1,0.6c0,0,0,0,0,0
	c0,0.5,0,1-0.2,1.6c0.1,0.3,0.2,0.9,0,1.4c-0.1,0.1,0,0.4,0,0.7l0,0.3c0,0.2,0,0.4-0.1,0.5l0,1.8c0.2,0.5,0.2,1,0.2,1.2v0.1
	c0,1.2,0,2.5,0,3.8l0,1.3c0,0.7,0,1.4,0,2c0,0.2,0,0.4,0,0.7c-0.1,0.8-0.1,1.6,0,2.5c0,0.3,0,0.6,0,0.9c0.1,0.1,0.1,0.3,0.1,0.5
	c0.1,0.6,0.3,1.2,0.7,1.9l0.2,0.4c0.1,0.2,0.2,0.4,0.3,0.6c0.2,0.4,0.4,0.8,0.6,1.3l0.1,0.1c0.2,0.2,0.3,0.3,0.4,0.5
	c0.2,0.1,0.3,0.2,0.4,0.3c0.2,0.1,0.5,0.1,0.7,0.2l0.9-0.4c0.2-0.1,0.3-0.2,0.5-0.3l0.1-0.1l0.2-0.2l0.3-0.3
	c0.1-0.1,0.2-0.2,0.2-0.2c0.3-0.2,0.6-0.5,1-0.8c0.1-0.2,0.3-0.4,0.5-0.6c0,0,0-0.1,0.1-0.1c0-0.3,0.1-0.6,0.1-0.8c0,0,0-0.1,0-0.1
	v-0.2c0-0.5,0-1.1,0.2-1.8l0-2.6l0-0.1l0,0c0-0.2-0.1-0.7,0.1-1.1c0-0.3-0.1-0.7,0-1.1c-0.1-0.7,0-1.4,0-1.9c0-0.3,0.1-0.6,0-0.9
	l0-0.3l0-0.5c0-0.3-0.1-0.6,0-1c0-0.3,0-0.6,0-0.9c0-0.5,0-0.9-0.1-1.3c-0.1-0.4,0-0.8,0-1c0.1-0.7,0.1-1.2,0-1.6
	c-0.2-1.2-0.2-2.3-0.2-3.4c0-0.2,0-0.3-0.1-0.5c-0.1-0.4-0.1-0.9-0.1-1.5c0-0.7,0-1.4,0-2l0-2l0-1c0-0.1,0-0.2,0-0.4
	c0-0.7,0.1-1.6,1-2.4c0.3-0.4,0.8-0.7,1.3-0.7l0.2,0l1.6-0.1c0.2-0.1,0.5-0.2,0.9-0.2c0.1,0,0.2,0,0.4,0l0.5,0l0.7,0l0.8,0.4
	c0,0,0,0,0,0c0.8,0,1.5,0.2,2.2,0.7l0.1,0l0.1,0.1c0.3,0.3,0.5,0.6,0.6,0.9c0.1-0.1,0.2-0.3,0.3-0.5c0.8-1.1,1.9-1.5,2.8-1.7
	c0.9-0.2,1.7-0.4,2.6-0.5l0.7-0.1c0.2-0.2,0.5-0.2,0.8-0.2c0.2,0,0.4,0,0.6,0.1l0.4,0c0.6,0,1.3,0,2,0.2c0.1,0,0.2,0,0.2,0
	c0.2,0,0.4,0,0.5,0c0.2,0,0.5,0,0.7,0.1c0.2,0,0.3-0.1,0.5-0.1c0.4,0,0.8,0.1,1.1,0.3c0.3,0,0.5,0.1,0.7,0.3
	c0.6,0.1,1.2,0.4,1.6,0.6c0.2,0.1,0.6,0.2,0.9,0.4c0.4,0.3,0.7,0.6,1.1,0.9l0-0.1l1.3,1.2l0.4,0.3c0.1-0.1,0.3-0.2,0.4-0.4
	c0.6-1.4,1.7-2.2,2.6-3l0.2-0.2c0.4-0.3,0.8-0.6,1.2-0.8c0,0,0.1-0.1,0.1-0.1c0.4-0.4,0.9-0.7,1.4-0.7c0.1,0,0.2-0.1,0.3-0.1
	c0.4-0.2,0.8-0.4,1.1-0.6c0.6-0.4,1.3-0.7,2-0.7c0.3,0,0.5,0,0.8,0.1c0.3-0.1,0.6-0.2,1-0.2c0.4,0,0.7,0.1,1,0.2
	c0.4-0.1,0.8-0.1,1.2-0.1c0.9,0,1.9,0.1,2.9,0.4c0.7,0.2,1.4,0.4,2.2,0.9c0.6,0.4,1.1,0.7,1.6,0.8c0.7,0.2,1.3,0.6,1.7,1.2
	c0.3,0.2,0.7,0.5,1,1c0.2,0.2,0.6,0.7,0.8,1.3c0.1,0.5,0.4,1.1,0.8,1.7c0.2,0.3,0.4,0.6,0.5,0.9c0.6,0.8,0.9,1.8,0.9,3
	c0.1,0.5,0.1,1,0,1.5l0,0.7l0,0.1c0,0.3,0,0.6-0.2,1c-0.5,1.2-1.4,1.4-1.8,1.4c-0.3,0-0.6-0.1-0.9-0.2c-0.1-0.1-0.3-0.1-0.4-0.2
	c-0.3,0.2-0.6,0.5-1.1,0.7c-0.4,0.4-1,0.6-1.6,0.6c-0.1,0-0.2,0-0.3,0c-0.1,0-0.2,0-0.4,0c-0.3,0-0.7,0.1-1,0.2
	c-0.5,0.2-0.8,0.3-1.2,0.3c-1.2,0-1.7-0.9-2-1.8c-0.3-0.3-0.4-0.7-0.5-1c-0.4-0.6-0.6-1.1-0.7-1.6c0,0,0,0,0,0
	c-0.1-0.1-0.2-0.3-0.3-0.4l-0.2-0.1c-0.5-0.3-0.9-0.7-1.4-1c-0.7-0.5-1.1-1.1-1.2-1.6c-0.1-0.1-0.3-0.1-0.6-0.1c0,0-0.1,0-0.1,0
	c-0.2,0.1-0.5,0.2-0.8,0.2c-0.1,0.4-0.3,0.7-0.4,1v0l0.1,0.2c0.8,0.8,0.9,1.8,0.4,3.1c0,0.1,0,0.3,0.2,0.7c0.1,0.4,0.3,0.9,0.4,1.4
	c0,0.1,0,0.3,0.1,0.3l0.1,0.1l0.1,0.1c0.2,0.2,0.4,0.4,0.6,0.6l0.1,0.1l0,0c0.1,0,0.2,0.1,0.2,0.1c0.5,0.2,1.3,0.5,1.8,1.2l2.4,1.1
	l0.6,0.3c1,0.5,2.1,0.9,3.1,1.7c1.1,0.5,1.9,1.2,2.7,2c0.2,0.1,0.4,0.2,0.6,0.4c0.2,0.1,0.5,0.3,0.6,0.6c0.2,0.2,0.5,0.4,0.7,0.5
	c0.8,0.6,1.5,1.1,2.3,1.8c1.3,1.1,1.9,2.6,2.4,3.9l0.1,0.1c0.4,1,0.9,2.4,1,3.9c0.6,1.4,0.8,2.9,0.8,4.8c0,1.3,0,2.6-0.1,3.8
	c0,0.5,0,1.1,0,1.6c0,3.4-1.9,5.9-3.8,8.1c-0.7,0.8-1.6,1.3-2.8,1.5c-0.6,0.1-1.3,0.4-2,0.6c-0.3,0.1-0.7,0.3-1,0.4l-0.3,0.1
	c-0.3,0.1-0.5,0.2-0.8,0.3c-0.9,0.3-1.6,0.4-2.3,0.4l0,0c-0.5,0-0.9-0.1-1.3-0.2c-0.7,0.3-1.3,0.3-1.8,0.3c-0.2,0-0.4,0-0.6,0
	c-0.2,0-0.3,0-0.5,0c-0.1,0-0.2,0-0.3,0c-0.3,0-0.5,0-0.8,0c-0.5,0-1-0.1-1.4-0.1c-0.2,0-0.5-0.1-0.7-0.1c-0.1,0-0.3,0-0.4,0
	c-1.8,0-3.4-0.5-5-1c-0.4-0.1-0.6-0.3-0.8-0.5c-1.5-0.3-2.5-1.1-3-2.3c-0.8-0.8-1.1-1.7-1.5-2.5c-0.1-0.3-0.2-0.5-0.4-0.8
	c-0.3-0.6-0.3-1.1-0.3-1.4c0-0.1,0-0.2,0-0.2c0,0-0.1-0.1-0.1-0.2c-0.2-0.4-0.6-1-0.6-1.9c-0.1-0.4-0.2-0.7-0.3-1.1
	c-0.2-0.7-0.4-1.4-0.6-2.1c-0.5,0.1-0.9,0.1-1.3,0.1c-1.2,0.6-2.5,0.9-3.9,1c-0.4,0.2-0.8,0.4-1.3,0.4c-0.4,0-0.7-0.1-1-0.2
	c-0.2,0-0.4,0.1-0.5,0.1c-0.4,0-0.8-0.1-1.1-0.3c-0.2,0-0.4-0.1-0.6-0.2c-0.2,0-0.4,0-0.5,0c-0.6,0-1.4-0.1-2.3-0.5l-0.2,0l-0.2-0.1
	c-0.3-0.1-0.6-0.2-0.8-0.4c-0.1,0-0.2-0.1-0.2-0.1c-0.3,0-0.5-0.2-0.7-0.3c-0.1-0.1-0.2-0.2-0.3-0.3c0,0,0,0-0.1-0.1
	c-0.9-0.6-1.7-1.3-2.3-2.1c-0.1,0.3-0.3,0.7-0.6,1.1c-0.2,0.3-0.4,0.5-0.6,0.8l-0.2,0.2c-0.3,0.5-0.6,0.8-0.9,1.1
	c-0.2,0.2-0.4,0.4-0.5,0.6c-0.3,0.5-0.8,0.7-1.1,0.8c-0.2,0.4-0.5,0.9-1.1,1.3c-0.5,0.4-0.9,0.5-1.2,0.5c-0.2,0-0.5,0-0.8-0.2
	c-0.2,0-0.4,0.1-0.6,0.2l0,0c-0.3,0.2-0.7,0.4-1.1,0.4c-0.8,0.4-1.5,0.5-2.1,0.6c-0.5,0.1-0.8,0.1-1.2,0.2c-0.4,0.2-0.8,0.2-1.2,0.2
	c-0.2,0-0.4,0-0.7-0.1c-0.4-0.1-0.8-0.1-1.1-0.2c-0.9-0.2-2-0.3-3-0.8c-0.3-0.1-0.5-0.2-0.8-0.2l-0.2,0c-0.6,0-1-0.2-1.3-0.4
	c0,0-0.1,0-0.1,0c0.3,0.4,0.6,0.8,0.8,1.4c0.6,1.3,0.5,2-0.5,3l-0.2,0.2c-0.4,0.7-1,1.1-1.6,1.4l-0.3,0.2c-0.4,0.4-1,1-1.9,1.3
	c-0.6,0.8-1.6,1.1-2.1,1.2c-0.2,0.1-0.3,0.1-0.5,0.1c-0.5,0-1.1-0.2-1.4-0.6c-0.1-0.2-0.3-0.3-0.5-0.4c-0.3-0.3-0.7-0.6-1-1
	c-0.3-0.2-0.4-0.5-0.5-0.8l0,0c-0.3-0.3-0.5-0.6-0.7-0.8l-2.2,1.2c-0.3,0.3-0.7,0.5-1.2,0.5c-0.6,0.4-1.2,0.5-1.6,0.5l-0.1,0l-0.5,0
	c-0.3,0.2-0.6,0.3-1.1,0.3c-0.1,0-0.3,0-0.4,0c-0.1,0-0.2,0-0.2,0c-0.3,0-0.5,0-0.8,0.1c-0.3,0-0.7,0.1-1.1,0.1
	c-0.3,0-0.6,0-0.9-0.1c-0.1,0-0.3,0-0.4,0c-0.2,0-0.3,0-0.5,0c-0.1,0-0.2,0-0.2,0c-0.7,0-1.3-0.2-1.7-0.4c-0.9-0.4-1.5-0.5-2.1-0.5
	l-0.1,0c-0.4,0-0.6-0.1-0.8-0.2c-0.3,0-0.8-0.1-1.3-0.5l-0.4-0.2c-0.5-0.2-1-0.4-1.5-0.7c-0.5-0.3-1-0.7-1.3-1.2
	c-0.1,0-0.1-0.1-0.2-0.1c-0.3-0.2-0.7-0.4-1-0.8c-0.7-0.7-1.1-1.5-1.4-2.2c-0.2-0.2-0.3-0.4-0.4-0.7c-0.2-0.3-0.3-0.6-0.3-0.9
	c0,0,0,0,0-0.1c-0.4-0.7-0.7-1.5-1-2.3c-0.6,0.5-1.3,1-1.9,1.5c-0.3,0.2-0.6,0.4-0.9,0.7c-0.7,0.7-1.6,1.2-2.5,1.5
	c-1.2,0.6-2.5,0.7-3.7,0.8c-1.3,0.7-2.7,1-4.4,1c0,0,0,0-0.1,0c-0.4,0.3-0.9,0.4-1.4,0.4c-0.4,0-0.8-0.1-1.2-0.2
	c-0.2,0-0.4,0.1-0.6,0.1c-0.5,0-0.9-0.1-1.3-0.4c-0.2,0-0.5-0.1-0.7-0.2c-0.1,0-0.3,0-0.4,0c-0.8,0-1.8-0.1-2.7-0.6l-0.2,0l-0.2-0.1
	c-0.3-0.1-0.6-0.2-0.9-0.4c-0.1,0-0.2-0.1-0.3-0.1c-0.3-0.1-0.5-0.2-0.7-0.4c-0.1-0.1-0.2-0.2-0.3-0.3c0,0,0-0.1-0.1-0.1
	c-1.3-0.8-2.3-1.9-3-3.3c-0.2-0.1-0.3-0.3-0.5-0.5c-0.1-0.2-0.2-0.3-0.3-0.5c-0.5-0.7-1-1.4-1.4-2.4c-0.1-0.2-0.2-0.4-0.4-0.7
	c-0.3-0.5-0.8-1.2-0.9-2.1c-0.6-0.9-0.7-1.9-0.9-2.7l-0.2-0.8c-0.1-0.4-0.2-0.9-0.2-1.3c0,0-0.1,0.1-0.1,0.1
	c-0.5,0.6-1.1,1.3-1.9,1.9c-0.4,0.5-0.9,1.2-1.9,1.3c-0.1,0.1-0.3,0.1-0.5,0.1c-0.1,0-0.2,0.1-0.2,0.1c-0.2,0.2-0.4,0.3-0.7,0.4
	c-0.2,0.2-0.6,0.4-1.1,0.4l0,0c-0.2,0-0.4,0.1-0.7,0.3c-0.2,0.1-0.3,0.2-0.5,0.2c-0.6,0.5-1.4,0.8-2.3,0.8c-1,0.1-2.1,0.2-3.1,0.3
	l-0.4,0l-0.1,0.3l0,0.2c0,0.5,0,1,0,1.5c0,0.2,0,0.6-0.1,1c0.1,0.3,0.1,0.5,0.1,0.7c0,0.3-0.1,0.6-0.3,1l0,8.4c0,0.1,0,0.3,0,0.5
	c0,0.5,0,0.9,0.1,1.3c0.2,0.5,0.2,1,0.2,1.5c0,1.6-1.2,2.8-2.7,2.8c-0.2,0-0.4,0-0.5-0.1c-0.2,0-0.3-0.1-0.5-0.1
	c-0.5-0.1-1-0.2-1.6-0.4l-0.1,0c-0.6,0.4-1.2,0.6-2,0.6c0,0-0.1,0-0.1,0c-0.2,0-0.4,0.1-0.5,0.1c-0.1,0-0.2,0-0.3,0l-0.2,0.1
	l-0.2-0.1c-0.3,0.1-0.6,0.2-1,0.2C587.2,424,586.9,424,586.7,424z M732.2,411.7l0.9,0.2c0.3-0.2,0.7-0.2,1.2-0.2c0,0,0.1,0,0.1,0
	l0.5-0.2c1-1.2,1.4-2.6,1.3-4c-0.2-0.4-0.3-0.7-0.3-1.1c0-0.1,0-0.2,0-0.2l-1.3-2.5c-0.3-0.3-0.5-0.6-0.5-1l-0.2-0.2l-0.1-0.2
	c-0.4-0.7-0.7-1.4-1-2.1c-0.1-0.2-0.1-0.4-0.2-0.6l-0.8-1.1c0,0-0.1,0-0.1,0l-1.9-0.9c-0.5-0.1-1-0.4-1.4-0.8l-1.8-1.2
	c-0.7-0.3-1-0.8-1.1-1.1c-0.7-0.2-1.3-0.5-1.7-1c-0.4-0.5-1-0.8-1.7-1.1c-0.5-0.2-1-0.5-1.5-0.9c-1.4,1-2.9,1.9-4.6,2.6
	c-0.2,0.2-0.6,0.6-1.1,0.8c-0.4,0.2-0.9,0.4-1.4,0.7c-0.3,0.2-0.5,0.3-0.8,0.5c-0.4,0.2-0.9,0.5-1.5,0.6c-0.7,0.7-1.5,1.3-2.7,1.5
	c-0.1,0-0.1,0.1-0.2,0.1c-0.5,0.3-1.2,0.7-2,0.8c-0.3,0.2-0.6,0.3-0.8,0.4c0,0,0.1,0.1,0.1,0.1c0.3,0.2,0.5,0.4,0.7,0.8
	c0.1,0.1,0.2,0.2,0.2,0.3c0.7,0.5,1.3,0.8,1.9,1c0.2,0,0.3,0,0.5,0.1c0,0,0,0,0,0c0.6,0,1.1-0.1,1.8-0.3c0.4-0.1,0.7-0.2,1.1-0.2
	l0.2,0c0.2,0,0.4-0.1,0.7-0.1c0.4-0.2,0.8-0.3,1-0.3c0.3-0.3,0.6-0.6,1.1-0.9c0.2-0.4,0.5-0.7,0.8-1.1l0.1-0.4
	c0.2-0.5,0.3-1,0.5-1.4c0.4-1.1,1.2-1.7,1.8-2.1c0.5-0.3,1-0.3,1.3-0.4c0.8,0,1.4,0.2,2,0.5c0.2,0.1,0.4,0.1,0.6,0.3
	c0.5,0.1,0.8,0.4,1,0.6l2.1,1.5c1,0.7,1.6,1.4,1.2,2.8c0,0.5-0.2,1-0.3,1.3l-0.1,0.1c-0.2,0.5-0.5,0.8-0.9,1.1
	c-0.2,0.3-0.4,0.7-0.6,1c0.2,0,0.4,0,0.7,0c1.7,0,2.3,0.9,2.5,1.6c0.7,0.9,1.1,1.8,1.3,2.8c0.4,0.6,0.6,1.3,0.7,1.8
	c0,0.2,0.1,0.4,0.1,0.5c0.3,0.2,0.5,0.5,0.7,0.8c0,0,0.1,0.1,0.1,0.1c0.3,0.2,0.7,0.4,1,0.7l0.3-0.1L732.2,411.7z M656.4,410.6
	c0.4,0.3,0.8,0.7,1.1,1.1c0,0,0,0.1,0.2,0.1l0.1,0c0.5-0.1,0.9-0.1,1.2-0.2c0.2-0.3,0.5-0.6,0.9-0.8l0.6-1l-0.4-0.6
	c-0.4-0.4-0.7-0.8-0.9-1.3c-0.6-0.5-1-1.3-1-2.1c0-0.3-0.1-0.5-0.1-0.5c-0.3-0.4-0.6-1.1-0.1-2.1c0.3-0.7,0.8-1.2,1.4-1.5
	c0.2-0.1,0.5-0.3,0.7-0.4c0.4-1,1.4-2.8,3.6-3.2c0-0.5,0.1-1,0.3-1.6c-0.3-1.1-0.5-2.4-0.2-3.7l0.1-0.5l0.1-0.1l0-1.5l-0.1-0.9
	c-0.1-1-0.2-2.1-0.3-3.1c0-0.5-0.1-1-0.1-1.5c0-1-0.1-1.9-0.3-2.7c0,0,0-0.1,0-0.1c-0.8-1-0.7-2.1-0.6-2.7c-0.6-1-0.9-2-0.9-3.1
	c-0.4-0.8-1.1-1.3-2.1-1.9c-0.2,0-0.4,0-0.6,0s-0.4,0-0.6,0c-0.1,0-0.3,0-0.4,0c0,0-0.1,0-0.1,0l-0.8,0.5c-0.5,0.3-0.5,0.5-0.5,0.6
	c0,0.8-0.3,1.4-0.7,1.8c-0.2,0.2-0.3,0.5-0.5,0.7l-0.3,0.4l0,0c-0.1,0.1-0.2,0.3-0.3,0.4c-0.2,0.3-0.5,0.8-0.8,1.1
	c-0.1,0.4-0.2,0.7-0.5,1c-0.1,0.7-0.3,1.4-0.6,2l-0.1,1l-0.2,0.3l0,0.2l0,0.1c-0.1,0.3-0.1,0.6-0.1,0.9c-0.1,0.5-0.1,1.1-0.3,1.7
	c0.4,0.9,0.4,1.8,0,2.7c0,0.3,0,0.8-0.3,1.2c0.1,0.8-0.1,1.5-0.2,2.1c0,0.1-0.1,0.3-0.1,0.4c0.1,0.2,0.2,0.5,0.2,0.9
	c0,0.6,0.1,1.2,0.2,1.8c0,0.2,0.1,0.5,0.1,0.7c0.2,0.7,0.1,1.3,0.1,1.9c0.1,0.2,0.2,0.5,0.2,0.8c0.1,1,0.2,2,0.3,3l0,0.6
	c0.1,0.1,0.1,0.2,0.2,0.3c0.4,0.7,0.6,1.5,0.7,2.1c0,0.2,0.1,0.4,0.1,0.6c0,0,0,0,0,0.1c0.2,0.2,0.3,0.5,0.3,0.9l0,0
	c0.1,0.2,0.3,0.5,0.3,0.8c0.2,0.2,0.4,0.5,0.8,0.7l0.1,0.1l0.7,0.8C656.2,410.4,656.3,410.5,656.4,410.6z M627.9,405
	c0.6,0,1.3-0.1,2-0.3c0.4-0.1,0.8-0.2,1.2-0.3l0.2,0c0.2,0,0.4-0.1,0.7-0.1c0.5-0.2,0.9-0.3,1.3-0.3c0.3-0.3,0.8-0.7,1.3-1
	c0.3-0.4,0.6-0.9,1-1.3l0.1-0.4c0.2-0.6,0.4-1.2,0.6-1.7c0.4-1.1,1.3-1.8,2-2.3c0.4-0.2,0.8-0.3,1.4-0.3c0.3,0,0.6,0,0.9,0.1
	l0.1-0.3c0.1-0.4,0.1-0.8,0.1-1.3c0-0.3,0-0.6,0-0.9c0-0.3,0-0.6,0-1c-1.4,1-3,1.9-4.8,2.6c0,0,0,0,0,0c-0.2,0.2-0.6,0.6-1.2,0.8
	c-0.5,0.2-1,0.5-1.6,0.8c-0.3,0.2-0.6,0.3-0.9,0.5c-0.4,0.2-1,0.5-1.7,0.6c-0.7,0.7-1.7,1.4-3,1.6c-0.1,0.1-0.2,0.1-0.3,0.2
	c-0.6,0.3-1.3,0.8-2.2,0.9c-0.4,0.3-0.8,0.4-1.2,0.5c0,0.1,0.1,0.1,0.1,0.2c0.1,0.1,0.1,0.1,0.2,0.2c0.3,0.2,0.5,0.5,0.8,0.8
	c0.1,0.1,0.2,0.2,0.3,0.3c0.8,0.6,1.5,1,2.2,1.3c0.2,0,0.4,0.1,0.5,0.1C627.8,405,627.9,405,627.9,405z M595.8,382.6
	c0.1,0.3,0.3,0.6,0.3,1c0,0.4,0,0.7,0,1.1c0,1,0.1,2-0.1,3.1c0,0.1,0,0.2,0,0.4c0.1,0.4,0.2,1,0,1.7c-0.2,0.9-0.2,1.8-0.2,2.8
	c0.3-0.1,0.7-0.2,1-0.3c0.9-0.2,1.7-0.4,2.4-0.9c0.4-0.2,0.9-0.4,1.4-0.4c0.1,0,0.2,0,0.3,0c0,0,0.1,0,0.1,0l0.5-0.3
	c0.8-1,1.2-1.9,1.3-2.9c0-0.4,0.2-0.7,0.3-1c0,0,0.1-0.2,0.1-0.2l0.3-0.6c0-0.5,0.1-1,0.2-1.4c0.1-0.2,0.1-0.4,0.1-0.7
	c0.1-0.4,0.1-0.9,0.2-1.3l0.1-0.4l0-0.6c0-0.6,0-1.3,0-1.9c0-0.5,0-0.8-0.2-1.1l-0.1-0.3l0-0.1l0,0l0-1.2c0-0.2-0.1-0.4-0.1-0.6
	c-0.1-0.5-0.3-1.1-0.2-1.8c-0.1-1.1-0.3-2.2-0.6-3.2c0-0.2-0.1-0.4-0.1-0.5c-0.1-0.4-0.2-0.9-0.3-1.4c0-0.4-0.2-0.7-0.8-0.9
	c-0.5-0.2-0.9-0.5-1.3-0.7c0,0-0.3-0.1-0.3-0.1l-0.2-0.1c-0.2-0.1-0.4-0.2-0.6-0.2c-0.6-0.2-1.3-0.5-1.9-1.2c-0.4,0-0.9,0-1.4,0
	c-0.4,0-0.8,0-1.1,0c0.4,0.7,0.5,1.4,0.4,2.2c-0.3,2-0.3,4-0.2,6.1c0,1.1,0,2.3,0,3.4c0,0.4,0,0.8-0.2,1.3c0.1,0.2,0.2,0.3,0.3,0.5
	l0.1,0.1c0.1,0.1,0.1,0.2,0.2,0.3c0.2,0.4,0.4,0.8,0.4,1.2l0,0.2c0,0.1,0,0.3,0,0.5L595.8,382.6z M621.3,390.3
	c0,0.3-0.1,0.6-0.1,0.9c0.9-0.7,1.9-1.2,3.1-1.6c0.3-0.2,0.7-0.3,1-0.4c1.3-0.8,2.9-1.7,4.7-2.4c0.4-0.4,0.8-0.7,1.1-0.8
	c0.1,0,0.1,0,0.2-0.1c0.8-0.8,1.7-1.4,2.6-2c0,0,0.2-0.1,0.2-0.1c-0.3-0.7-0.7-1.3-1-2c-0.2-0.4-0.4-0.8-0.6-1.1
	c0-0.1-0.1-0.1-0.1-0.2c-0.4-0.2-0.8-0.6-1.2-1c-0.1-0.1-0.2-0.1-0.3-0.2c-0.1,0-0.2-0.1-0.3-0.1c-0.2,0-0.5-0.1-0.8-0.3
	c-0.4,0.1-0.7,0.1-1.1,0.1c-0.4,0-0.8,0-1.2-0.1c-0.3,0-0.6-0.1-0.9-0.1c-0.1,0-0.2,0-0.2,0l-0.3,0l-0.2-0.1c-0.1,0-0.2,0.1-0.2,0.1
	l-0.6,0.6c-0.1,0.5-0.4,0.9-0.8,1.2l0,0l-0.1,0.1c0,0,0,0.1-0.1,0.1l-0.1,0.2c-0.2,0.7-0.4,1.6-1.3,2.4c0,0-0.1,0.1-0.1,0.2
	c0,0.1-0.1,0.2-0.2,0.3c0,0,0,0,0,0c0,0.1-0.1,0.1-0.1,0.2c-0.1,0.4-0.1,0.7-0.1,1.1c0,0.4,0.1,1-0.3,1.7c0,0.2,0,0.4-0.1,0.7
	c0,0.7-0.2,1.3-0.4,1.9l0,0.1L621.3,390.3z M702.8,389.3c0.7-0.5,1.5-0.9,2.5-1.2c0.3-0.2,0.6-0.3,0.9-0.4c1.2-0.7,2.6-1.5,4.1-2.2
	c0.3-0.4,0.8-0.6,1-0.7c0,0,0.1,0,0.1-0.1c0.7-0.7,1.5-1.3,2.2-1.8l0,0c-0.3-0.5-0.6-1.1-0.9-1.6c-0.2-0.3-0.4-0.7-0.5-1
	c0,0,0-0.1,0-0.1c-0.4-0.2-0.7-0.5-1-0.8c-0.1,0-0.1-0.1-0.2-0.1c-0.1,0-0.2-0.1-0.2-0.1c-0.1,0-0.4-0.1-0.7-0.2
	c-0.4,0.1-0.8,0.1-1.2,0.1c-0.3,0-0.6,0-0.9,0c-0.2,0-0.5,0-0.7,0c-0.1,0-0.2,0-0.3,0l-0.3,0l-0.1,0c0,0-0.1,0-0.2,0l-0.4,0.4
	c-0.1,0.5-0.4,0.9-0.7,1.1l-0.1,0.1l0,0.1l0,0.1c-0.2,0.7-0.4,1.6-1.2,2.3c0,0,0,0.1-0.1,0.1c0,0.1-0.1,0.2-0.2,0.3c0,0,0,0,0,0
	c0,0,0,0.1-0.1,0.1c-0.1,0.4-0.1,0.6-0.1,0.9c0,0.3,0.1,1-0.2,1.6c0,0.2,0,0.4-0.1,0.6c0,0.6-0.2,1.2-0.3,1.7l0,0.1
	C702.9,388.3,702.8,389.1,702.8,389.3z"/>
<path class="st6" d="M584.8,422.2c-0.5,0-1-0.1-1.5-0.3c-1.3-0.5-2-1.6-1.9-2.9c0-0.4,0-0.8,0.1-1.2l0-0.4l-0.1-2.8
	c-0.3-0.6-0.3-1.3-0.3-1.7l0-2.3c-0.2-0.4-0.2-0.7-0.2-1c0-0.1,0-0.3,0.1-0.6c-0.1-0.7-0.2-1.5,0-2.3c0-0.1,0-0.4-0.1-0.6
	c0-0.3-0.1-0.6-0.1-0.8c0-0.4,0-0.9,0-1.3l0-0.5l-0.1-10c-0.2-0.5-0.2-1.1,0-1.6l0-0.2l0-3.7c-0.3-0.5-0.4-1.2-0.2-1.7
	c0.3-0.7,0.2-1.6,0.1-2.5l0-0.5c0-0.7,0-1.4,0-2l0,0c-0.1-0.7,0-1.4,0-2c0-1.3,0-2.7,0-4.1l0-3.5l0.1-1.3c-0.1-0.8-0.1-1.5,0.1-2.4
	c-0.1-0.3-0.2-0.5-0.2-0.8c-0.1-0.4-0.1-0.9,0-1.3l0-0.2c-0.4-1.5-0.5-3,0-4.7c-0.3-0.5-0.3-1.1-0.1-1.7c-0.3-0.8-0.1-1.6,0.5-2.2
	l0.2-0.2c0.3-0.4,0.8-1,1.5-1.4c0.6-0.4,1.3-0.4,1.8-0.4l0.5,0c0.1,0,0.1,0,0.2,0c1.1-0.2,2.4-0.4,3.9-0.4c0.7,0,1.4,0,2.1,0l0.2,0
	c0.2-0.1,0.5-0.2,0.7-0.2c0.1,0,0.3,0,0.5,0.1c0.4-0.1,2.4-0.6,2.4-0.6l0.4,0.4c0.1,0,0.1,0,0.2,0c0.2,0,0.5-0.1,0.7-0.1
	c0,0,0,0,0,0c0.4-0.2,0.8-0.3,1.3-0.3c0.2,0,0.4,0,0.6,0l0,0c0.2,0,0.3,0,0.5,0c0.7,0,1.5,0,2.4,0.4c0.7,0.1,1.2,0.3,1.7,0.7
	c1.2,0.2,2.2,0.7,3,1.1c1.1,0.6,2.1,1.3,3,2.2c0.6,0.2,0.9,0.5,1.1,0.9l0.7,0.9c0.8,0.3,1.4,1,1.8,1.9c0.1,0.2,0.2,0.4,0.2,0.5
	l0.6,1.1c0.1,0.2,0.2,0.4,0.3,0.6c0.2,0.4,0.5,0.8,0.7,1.2c0.6,0.8,0.7,1.7,0.3,2.6c-0.1,0.2-0.1,0.4,0,0.7c0.2,0.8,0.1,1.5,0.1,2.1
	c0,0.1,0,0.1,0,0.2c0.2-0.2,0.4-0.3,0.6-0.5c0.4-0.3,0.8-0.7,1.2-1.3c0.8-1.2,2.1-1.6,3.1-1.8c1-0.2,1.9-0.4,2.9-0.6l0.8-0.1
	c0.3-0.2,0.5-0.2,0.8-0.2c0.2,0,0.5,0.1,0.7,0.2c0.1,0,0.2,0,0.3,0c0.7,0,1.6,0,2.4,0.3c0.1,0,0.2,0,0.3,0c0.2,0,0.3,0,0.5,0
	c0.3,0,0.6,0,0.8,0.1c0.2,0,0.4,0,0.5,0c0.5,0,0.9,0.1,1.3,0.3c0.3,0.1,0.6,0.2,0.8,0.3c0.7,0.1,1.3,0.5,1.8,0.8
	c0.3,0.1,0.6,0.2,0.9,0.4c0.5,0.4,0.9,0.8,1.4,1.1l0-0.1l1.3,1.2l1.1,1l0,0.1l0.5,0.5c0.4,0.5,0.8,0.9,1.2,1.4
	c0.1,0.1,0.1,0.1,0.2,0.2c0,0,0-0.1,0-0.1c0.1-0.3,0.2-0.7,0.2-1c0.1-0.4,0.3-0.7,0.4-0.8l0.1-0.1c0-0.1,0-0.2,0-0.3
	c0-0.3,0.1-0.8,0.3-1.3c0.2-0.4,0.4-0.7,0.6-0.9c0.1-0.1,0.2-0.2,0.2-0.3c0-0.3,0.1-0.5,0.3-0.7c0.1-0.4,0.3-0.7,0.6-1l0.1-0.2
	c0.4-0.6,0.8-1.1,1.2-1.5c0.2-0.2,0.4-0.4,0.6-0.6c0.4-0.5,0.9-1.1,1.6-1.4c0.4-0.4,0.8-0.5,1.1-0.5c0.5-0.4,1-0.6,1.6-0.8
	c1-0.7,2.1-0.9,3.1-0.9c0.6-0.2,1.2-0.3,1.7-0.4c0.3,0,0.6-0.1,0.8-0.1l0.2-0.1l0.2,0c0.3,0,0.6,0.1,0.8,0.2c0.6,0,1.2,0.2,1.7,0.3
	l2.6,0l0.2,0c0.1,0,0.2,0,0.2,0c0.1,0,0.2,0,0.2,0c0,0,0,0,0,0c0.4,0,0.7,0.1,1,0.2l0.3,0c0.9,0.1,1.5,0.5,1.9,0.8
	c0,0,0.1,0.1,0.1,0.1c0.2-0.1,0.4-0.1,0.5-0.1c0.2,0,0.3,0,0.5,0.1c0.1,0,0.1,0,0.2,0c0.4,0.1,1,0.2,1.5,0.7
	c0.4,0.1,0.6,0.3,0.8,0.4l0.1,0.1c0.7,0.4,0.9,1,1.1,1.3l0,0l0.4,0.6c0.4,0.4,0.6,0.8,0.7,1.1l0,0.1c0,0.1,0.1,0.1,0.1,0.2
	c0,0,0,0.1,0.1,0.1c0.2,0.3,0.5,0.6,0.6,0.9c0.2-0.1,0.4-0.2,0.6-0.2c0.3-0.1,0.5-0.1,0.8-0.1c0.3-0.1,0.7-0.2,1-0.2
	c0.1,0,0.3,0,0.4,0c0,0,0,0,0,0c0.2-0.1,0.4-0.1,0.6-0.1c0.2,0,0.4,0,0.6,0.1c0,0,0,0,0,0c0.1,0,0.2,0,0.4,0c0.3,0,0.6,0,0.9,0.1
	c0.2-0.2,0.6-0.3,1-0.3c0.5,0,0.9,0.2,1.1,0.4c0.7,0.4,1.1,1.1,1.1,2c0,0.1,0,0.3,0,0.4c0,0.4,0,0.8,0.1,1.1c0.2,0.5,0,1,0,1.3
	c0,0.1,0,0.2,0,0.2c0.1,0.4,0.2,0.9,0,1.6c-0.1,0.4-0.1,0.7,0,1c0.1,0.5,0.1,1,0.1,1.3l0,0.2c0,0.2-0.1,0.4-0.1,0.6c0,0,0,0,0,0
	c0,0.5,0,1-0.2,1.6c0.1,0.3,0.2,0.9,0,1.4c-0.1,0.1,0,0.4,0,0.7l0,0.3c0,0.2,0,0.4-0.1,0.5l0,1.8c0.2,0.5,0.2,1,0.2,1.2v0.1
	c0,1.2,0,2.5,0,3.8l0,1.3c0,0.7,0,1.4,0,2c0,0.2,0,0.4,0,0.7c-0.1,0.8-0.1,1.6,0,2.5c0,0.3,0,0.6,0,0.9c0.1,0.1,0.1,0.3,0.1,0.5
	c0.1,0.6,0.3,1.2,0.7,1.9l0.2,0.4c0.1,0.2,0.2,0.4,0.3,0.6c0.2,0.4,0.4,0.8,0.6,1.3l0.1,0.1c0.2,0.2,0.3,0.3,0.4,0.5
	c0.2,0.1,0.3,0.2,0.4,0.3c0.2,0.1,0.5,0.1,0.7,0.2l0.9-0.4c0.2-0.1,0.3-0.2,0.5-0.3l0.1-0.1l0.2-0.2l0.3-0.3
	c0.1-0.1,0.2-0.2,0.2-0.2c0.3-0.2,0.6-0.5,1-0.8c0.1-0.2,0.3-0.4,0.5-0.6c0,0,0-0.1,0.1-0.1c0-0.3,0.1-0.6,0.1-0.8c0,0,0-0.1,0-0.1
	v-0.2c0-0.5,0-1.1,0.2-1.8l0-2.6l0-0.1l0,0c0-0.2-0.1-0.7,0.1-1.1c0-0.3-0.1-0.7,0-1.1c-0.1-0.7,0-1.4,0-1.9c0-0.3,0.1-0.6,0-0.9
	l0-0.3l0-0.5c0-0.3-0.1-0.6,0-1c0-0.3,0-0.6,0-0.9c0-0.5,0-0.9-0.1-1.3c-0.1-0.4,0-0.8,0-1c0.1-0.7,0.1-1.2,0-1.6
	c-0.2-1.2-0.2-2.3-0.2-3.4c0-0.2,0-0.3-0.1-0.5c-0.1-0.4-0.1-0.9-0.1-1.5c0-0.7,0-1.4,0-2l0-2l0-1c0-0.1,0-0.2,0-0.4
	c0-0.7,0.1-1.6,1-2.4c0.3-0.4,0.8-0.7,1.3-0.7l0.2,0l1.6-0.1c0.2-0.1,0.5-0.2,0.9-0.2c0.1,0,0.2,0,0.4,0l0.5,0l0.7,0l0.8,0.4
	c0,0,0,0,0,0c0.8,0,1.5,0.2,2.2,0.7l0.1,0l0.1,0.1c0.3,0.3,0.5,0.6,0.6,0.9c0.1-0.1,0.2-0.3,0.3-0.5c0.8-1.1,1.9-1.5,2.8-1.7
	c0.9-0.2,1.7-0.4,2.6-0.5l0.7-0.1c0.2-0.2,0.5-0.2,0.8-0.2c0.2,0,0.4,0,0.6,0.1l0.4,0c0.6,0,1.3,0,2,0.2c0.1,0,0.2,0,0.2,0
	c0.2,0,0.4,0,0.5,0c0.2,0,0.5,0,0.7,0.1c0.2,0,0.3-0.1,0.5-0.1c0.4,0,0.8,0.1,1.1,0.3c0.3,0,0.5,0.1,0.7,0.3
	c0.6,0.1,1.2,0.4,1.6,0.6c0.2,0.1,0.6,0.2,0.9,0.4c0.4,0.3,0.7,0.6,1.1,0.9l0-0.1l1.3,1.2l0.4,0.3c0.1-0.1,0.3-0.2,0.4-0.4
	c0.6-1.4,1.7-2.2,2.6-3l0.2-0.2c0.4-0.3,0.8-0.6,1.2-0.8c0,0,0.1-0.1,0.1-0.1c0.4-0.4,0.9-0.7,1.4-0.7c0.1,0,0.2-0.1,0.3-0.1
	c0.4-0.2,0.8-0.4,1.1-0.6c0.6-0.4,1.3-0.7,2-0.7c0.3,0,0.5,0,0.8,0.1c0.3-0.1,0.6-0.2,1-0.2c0.4,0,0.7,0.1,1,0.2
	c0.4-0.1,0.8-0.1,1.2-0.1c0.9,0,1.9,0.1,2.9,0.4c0.7,0.2,1.4,0.4,2.2,0.9c0.6,0.4,1.1,0.7,1.6,0.8c0.7,0.2,1.3,0.6,1.7,1.2
	c0.3,0.2,0.7,0.5,1,1c0.2,0.2,0.6,0.7,0.8,1.3c0.1,0.5,0.4,1.1,0.8,1.7c0.2,0.3,0.4,0.6,0.5,0.9c0.6,0.8,0.9,1.8,0.9,3
	c0.1,0.5,0.1,1,0,1.5l0,0.7l0,0.1c0,0.3,0,0.6-0.2,1c-0.5,1.2-1.4,1.4-1.8,1.4c-0.3,0-0.6-0.1-0.9-0.2c-0.1-0.1-0.3-0.1-0.4-0.2
	c-0.3,0.2-0.6,0.5-1.1,0.7c-0.4,0.4-1,0.6-1.6,0.6c-0.1,0-0.2,0-0.3,0c-0.1,0-0.2,0-0.4,0c-0.3,0-0.7,0.1-1,0.2
	c-0.5,0.2-0.8,0.3-1.2,0.3c-1.2,0-1.7-0.9-2-1.8c-0.3-0.3-0.4-0.7-0.5-1c-0.4-0.6-0.6-1.1-0.7-1.6c0,0,0,0,0,0
	c-0.1-0.1-0.2-0.3-0.3-0.4l-0.2-0.1c-0.5-0.3-0.9-0.7-1.4-1c-0.7-0.5-1.1-1.1-1.2-1.6c-0.1-0.1-0.3-0.1-0.6-0.1c0,0-0.1,0-0.1,0
	c-0.2,0.1-0.5,0.2-0.8,0.2c-0.1,0.4-0.3,0.7-0.4,1v0l0.1,0.2c0.8,0.8,0.9,1.8,0.4,3.1c0,0.1,0,0.3,0.2,0.7c0.1,0.4,0.3,0.9,0.4,1.4
	c0,0.1,0,0.3,0.1,0.3l0.1,0.1l0.1,0.1c0.2,0.2,0.4,0.4,0.6,0.6l0.1,0.1l0,0c0.1,0,0.2,0.1,0.2,0.1c0.5,0.2,1.3,0.5,1.8,1.2l2.4,1.1
	l0.6,0.3c1,0.5,2.1,0.9,3.1,1.7c1.1,0.5,1.9,1.2,2.7,2c0.2,0.1,0.4,0.2,0.6,0.4c0.2,0.1,0.5,0.3,0.6,0.6c0.2,0.2,0.5,0.4,0.7,0.5
	c0.8,0.6,1.5,1.1,2.3,1.8c1.3,1.1,1.9,2.6,2.4,3.9l0.1,0.1c0.4,1,0.9,2.4,1,3.9c0.6,1.4,0.8,2.9,0.8,4.8c0,1.3,0,2.6-0.1,3.8
	c0,0.5,0,1.1,0,1.6c0,3.4-1.9,5.9-3.8,8.1c-0.7,0.8-1.6,1.3-2.8,1.5c-0.6,0.1-1.3,0.4-2,0.6c-0.3,0.1-0.7,0.3-1,0.4l-0.3,0.1
	c-0.3,0.1-0.5,0.2-0.8,0.3c-0.9,0.3-1.6,0.4-2.3,0.4l0,0c-0.5,0-0.9-0.1-1.3-0.2c-0.7,0.3-1.3,0.3-1.8,0.3c-0.2,0-0.4,0-0.6,0
	c-0.2,0-0.3,0-0.5,0c-0.1,0-0.2,0-0.3,0c-0.3,0-0.5,0-0.8,0c-0.5,0-1-0.1-1.4-0.1c-0.2,0-0.5-0.1-0.7-0.1c-0.1,0-0.3,0-0.4,0
	c-1.8,0-3.4-0.5-5-1c-0.4-0.1-0.6-0.3-0.8-0.5c-1.5-0.3-2.5-1.1-3-2.3c-0.8-0.8-1.1-1.7-1.5-2.5c-0.1-0.3-0.2-0.5-0.4-0.8
	c-0.3-0.6-0.3-1.1-0.3-1.4c0-0.1,0-0.2,0-0.2c0,0-0.1-0.1-0.1-0.2c-0.2-0.4-0.6-1-0.6-1.9c-0.1-0.4-0.2-0.7-0.3-1.1
	c-0.2-0.7-0.4-1.4-0.6-2.1c-0.5,0.1-0.9,0.1-1.3,0.1c-1.2,0.6-2.5,0.9-3.9,1c-0.4,0.2-0.8,0.4-1.3,0.4c-0.4,0-0.7-0.1-1-0.2
	c-0.2,0-0.4,0.1-0.5,0.1c-0.4,0-0.8-0.1-1.1-0.3c-0.2,0-0.4-0.1-0.6-0.2c-0.2,0-0.4,0-0.5,0c-0.6,0-1.4-0.1-2.3-0.5l-0.2,0l-0.2-0.1
	c-0.3-0.1-0.6-0.2-0.8-0.4c-0.1,0-0.2-0.1-0.2-0.1c-0.3,0-0.5-0.2-0.7-0.3c-0.1-0.1-0.2-0.2-0.3-0.3c0,0,0,0-0.1-0.1
	c-0.9-0.6-1.7-1.3-2.3-2.1c-0.1,0.3-0.3,0.7-0.6,1.1c-0.2,0.3-0.4,0.5-0.6,0.8l-0.2,0.2c-0.3,0.5-0.6,0.8-0.9,1.1
	c-0.2,0.2-0.4,0.4-0.5,0.6c-0.3,0.5-0.8,0.7-1.1,0.8c-0.2,0.4-0.5,0.9-1.1,1.3c-0.5,0.4-0.9,0.5-1.2,0.5c-0.2,0-0.5,0-0.8-0.2
	c-0.2,0-0.4,0.1-0.6,0.2l0,0c-0.3,0.2-0.7,0.4-1.1,0.4c-0.8,0.4-1.5,0.5-2.1,0.6c-0.5,0.1-0.8,0.1-1.2,0.2c-0.4,0.2-0.8,0.2-1.2,0.2
	c-0.2,0-0.4,0-0.7-0.1c-0.4-0.1-0.8-0.1-1.1-0.2c-0.9-0.2-2-0.3-3-0.8c-0.3-0.1-0.5-0.2-0.8-0.2l-0.2,0c-0.6,0-1-0.2-1.3-0.4
	c0,0-0.1,0-0.1,0c0.3,0.4,0.6,0.8,0.8,1.4c0.6,1.3,0.5,2-0.5,3l-0.2,0.2c-0.4,0.7-1,1.1-1.6,1.4l-0.3,0.2c-0.4,0.4-1,1-1.9,1.3
	c-0.6,0.8-1.6,1.1-2.1,1.2c-0.2,0.1-0.3,0.1-0.5,0.1c-0.5,0-1.1-0.2-1.4-0.6c-0.1-0.2-0.3-0.3-0.5-0.4c-0.3-0.3-0.7-0.6-1-1
	c-0.3-0.2-0.4-0.5-0.5-0.8l0,0c-0.3-0.3-0.5-0.6-0.7-0.8l-2.2,1.2c-0.3,0.3-0.7,0.5-1.2,0.5c-0.6,0.4-1.2,0.5-1.6,0.5l-0.1,0l-0.5,0
	c-0.3,0.2-0.6,0.3-1.1,0.3c-0.1,0-0.3,0-0.4,0c-0.1,0-0.2,0-0.2,0c-0.3,0-0.5,0-0.8,0.1c-0.3,0-0.7,0.1-1.1,0.1
	c-0.3,0-0.6,0-0.9-0.1c-0.1,0-0.3,0-0.4,0c-0.2,0-0.3,0-0.5,0c-0.1,0-0.2,0-0.2,0c-0.7,0-1.3-0.2-1.7-0.4c-0.9-0.4-1.5-0.5-2.1-0.5
	l-0.1,0c-0.4,0-0.6-0.1-0.8-0.2c-0.3,0-0.8-0.1-1.3-0.5l-0.4-0.2c-0.5-0.2-1-0.4-1.5-0.7c-0.5-0.3-1-0.7-1.3-1.2
	c-0.1,0-0.1-0.1-0.2-0.1c-0.3-0.2-0.7-0.4-1-0.8c-0.7-0.7-1.1-1.5-1.4-2.2c-0.2-0.2-0.3-0.4-0.4-0.7c-0.2-0.3-0.3-0.6-0.3-0.9
	c0,0,0,0,0-0.1c-0.4-0.7-0.7-1.5-1-2.3c-0.6,0.5-1.3,1-1.9,1.5c-0.3,0.2-0.6,0.4-0.9,0.7c-0.7,0.7-1.6,1.2-2.5,1.5
	c-1.2,0.6-2.5,0.7-3.7,0.8c-1.3,0.7-2.7,1-4.4,1c0,0,0,0-0.1,0c-0.4,0.3-0.9,0.4-1.4,0.4c-0.4,0-0.8-0.1-1.2-0.2
	c-0.2,0-0.4,0.1-0.6,0.1c-0.5,0-0.9-0.1-1.3-0.4c-0.2,0-0.5-0.1-0.7-0.2c-0.1,0-0.3,0-0.4,0c-0.8,0-1.8-0.1-2.7-0.6l-0.2,0l-0.2-0.1
	c-0.3-0.1-0.6-0.2-0.9-0.4c-0.1,0-0.2-0.1-0.3-0.1c-0.3-0.1-0.5-0.2-0.7-0.4c-0.1-0.1-0.2-0.2-0.3-0.3c0,0,0-0.1-0.1-0.1
	c-1.3-0.8-2.3-1.9-3-3.3c-0.2-0.1-0.3-0.3-0.5-0.5c-0.1-0.2-0.2-0.3-0.3-0.5c-0.5-0.7-1-1.4-1.4-2.4c-0.1-0.2-0.2-0.4-0.4-0.7
	c-0.3-0.5-0.8-1.2-0.9-2.1c-0.6-0.9-0.7-1.9-0.9-2.7l-0.2-0.8c-0.1-0.4-0.2-0.9-0.2-1.3c0,0-0.1,0.1-0.1,0.1
	c-0.5,0.6-1.1,1.3-1.9,1.9c-0.4,0.5-0.9,1.2-1.9,1.3c-0.1,0.1-0.3,0.1-0.5,0.1c-0.1,0-0.2,0.1-0.2,0.1c-0.2,0.2-0.4,0.3-0.7,0.4
	c-0.2,0.2-0.6,0.4-1.1,0.4l0,0c-0.2,0-0.4,0.1-0.7,0.3c-0.2,0.1-0.3,0.2-0.5,0.2c-0.6,0.5-1.4,0.8-2.3,0.8c-1,0.1-2.1,0.2-3.1,0.3
	l-0.4,0l-0.1,0.3l0,0.2c0,0.5,0,1,0,1.5c0,0.2,0,0.6-0.1,1c0.1,0.3,0.1,0.5,0.1,0.7c0,0.3-0.1,0.6-0.3,1l0,8.4c0,0.1,0,0.3,0,0.5
	c0,0.5,0,0.9,0.1,1.3c0.2,0.5,0.2,1,0.2,1.5c0,1.6-1.2,2.8-2.7,2.8c-0.2,0-0.4,0-0.5-0.1c-0.2,0-0.3-0.1-0.5-0.1
	c-0.5-0.1-1-0.2-1.6-0.4l-0.1,0c-0.6,0.4-1.2,0.6-2,0.6c0,0-0.1,0-0.1,0c-0.2,0-0.4,0.1-0.5,0.1c-0.1,0-0.2,0-0.3,0l-0.2,0.1
	l-0.2-0.1c-0.3,0.1-0.6,0.2-1,0.2C585.3,422.2,585.1,422.2,584.8,422.2z M730.4,409.8l0.9,0.2c0.3-0.2,0.7-0.2,1.2-0.2
	c0,0,0.1,0,0.1,0l0.5-0.2c1-1.2,1.4-2.6,1.3-4c-0.2-0.4-0.3-0.7-0.3-1.1c0-0.1,0-0.2,0-0.2l-1.3-2.5c-0.3-0.3-0.5-0.6-0.5-1
	l-0.2-0.2l-0.1-0.2c-0.4-0.7-0.7-1.4-1-2.1c-0.1-0.2-0.1-0.4-0.2-0.6l-0.8-1.1c0,0-0.1,0-0.1,0l-1.9-0.9c-0.5-0.1-1-0.4-1.4-0.8
	l-1.8-1.2c-0.7-0.3-1-0.8-1.1-1.1c-0.7-0.2-1.3-0.5-1.7-1c-0.4-0.5-1-0.8-1.7-1.1c-0.5-0.2-1-0.5-1.5-0.9c-1.4,1-2.9,1.9-4.6,2.6
	c-0.2,0.2-0.6,0.6-1.1,0.8c-0.4,0.2-0.9,0.4-1.4,0.7c-0.3,0.2-0.5,0.3-0.8,0.5c-0.4,0.2-0.9,0.5-1.5,0.6c-0.7,0.7-1.5,1.3-2.7,1.5
	c-0.1,0-0.1,0.1-0.2,0.1c-0.5,0.3-1.2,0.7-2,0.8c-0.3,0.2-0.6,0.3-0.8,0.4c0,0,0.1,0.1,0.1,0.1c0.3,0.2,0.5,0.4,0.7,0.8
	c0.1,0.1,0.2,0.2,0.2,0.3c0.7,0.5,1.3,0.8,1.9,1c0.2,0,0.3,0,0.5,0.1c0,0,0,0,0,0c0.6,0,1.1-0.1,1.8-0.3c0.4-0.1,0.7-0.2,1.1-0.2
	l0.2,0c0.2,0,0.4-0.1,0.7-0.1c0.4-0.2,0.8-0.3,1-0.3c0.3-0.3,0.6-0.6,1.1-0.9c0.2-0.4,0.5-0.7,0.8-1.1l0.1-0.4
	c0.2-0.5,0.3-1,0.5-1.4c0.4-1.1,1.2-1.7,1.8-2.1c0.5-0.3,1-0.3,1.3-0.4c0.8,0,1.4,0.2,2,0.5c0.2,0.1,0.4,0.1,0.6,0.3
	c0.5,0.1,0.8,0.4,1,0.6l2.1,1.5c1,0.7,1.6,1.4,1.2,2.8c0,0.5-0.2,1-0.3,1.3l-0.1,0.1c-0.2,0.5-0.5,0.8-0.9,1.1
	c-0.2,0.3-0.4,0.7-0.6,1c0.2,0,0.4,0,0.7,0c1.7,0,2.3,0.9,2.5,1.6c0.7,0.9,1.1,1.8,1.3,2.8c0.4,0.6,0.6,1.3,0.7,1.8
	c0,0.2,0.1,0.4,0.1,0.5c0.3,0.2,0.5,0.5,0.7,0.8c0,0,0.1,0.1,0.1,0.1c0.3,0.2,0.7,0.4,1,0.7l0.3-0.1L730.4,409.8z M654.6,408.8
	c0.4,0.3,0.8,0.7,1.1,1.1c0,0,0,0.1,0.2,0.1l0.1,0c0.5-0.1,0.9-0.1,1.2-0.2c0.2-0.3,0.5-0.6,0.9-0.8l0.6-1l-0.4-0.6
	c-0.4-0.4-0.7-0.8-0.9-1.3c-0.6-0.5-1-1.3-1-2.1c0-0.3-0.1-0.5-0.1-0.5c-0.3-0.4-0.6-1.1-0.1-2.1c0.3-0.7,0.8-1.2,1.4-1.5
	c0.2-0.1,0.5-0.3,0.7-0.4c0.4-1,1.4-2.8,3.6-3.2c0-0.5,0.1-1,0.3-1.6c-0.3-1.1-0.5-2.4-0.2-3.7l0.1-0.5l0.1-0.1l0-1.5l-0.1-0.9
	c-0.1-1-0.2-2.1-0.3-3.1c0-0.5-0.1-1-0.1-1.5c0-1-0.1-1.9-0.3-2.7c0,0,0-0.1,0-0.1c-0.8-1-0.7-2.1-0.6-2.7c-0.6-1-0.9-2-0.9-3.1
	c-0.4-0.8-1.1-1.3-2.1-1.9c-0.2,0-0.4,0-0.6,0s-0.4,0-0.6,0c-0.1,0-0.3,0-0.4,0c0,0-0.1,0-0.1,0l-0.8,0.5c-0.5,0.3-0.5,0.5-0.5,0.6
	c0,0.8-0.3,1.4-0.7,1.8c-0.2,0.2-0.3,0.5-0.5,0.7l-0.3,0.4l0,0c-0.1,0.1-0.2,0.3-0.3,0.4c-0.2,0.3-0.5,0.8-0.8,1.1
	c-0.1,0.4-0.2,0.7-0.5,1c-0.1,0.7-0.3,1.4-0.6,2l-0.1,1l-0.2,0.3l0,0.2l0,0.1c-0.1,0.3-0.1,0.6-0.1,0.9c-0.1,0.5-0.1,1.1-0.3,1.7
	c0.4,0.9,0.4,1.8,0,2.7c0,0.3,0,0.8-0.3,1.2c0.1,0.8-0.1,1.5-0.2,2.1c0,0.1-0.1,0.3-0.1,0.4c0.1,0.2,0.2,0.5,0.2,0.9
	c0,0.6,0.1,1.2,0.2,1.8c0,0.2,0.1,0.5,0.1,0.7c0.2,0.7,0.1,1.3,0.1,1.9c0.1,0.2,0.2,0.5,0.2,0.8c0.1,1,0.2,2,0.3,3l0,0.6
	c0.1,0.1,0.1,0.2,0.2,0.3c0.4,0.7,0.6,1.5,0.7,2.1c0,0.2,0.1,0.4,0.1,0.6c0,0,0,0,0,0.1c0.2,0.2,0.3,0.5,0.3,0.9l0,0
	c0.1,0.2,0.3,0.5,0.3,0.8c0.2,0.2,0.4,0.5,0.8,0.7l0.1,0.1l0.7,0.8C654.4,408.6,654.5,408.7,654.6,408.8z M626.1,403.2
	c0.6,0,1.3-0.1,2-0.3c0.4-0.1,0.8-0.2,1.2-0.3l0.2,0c0.2,0,0.4-0.1,0.7-0.1c0.5-0.2,0.9-0.3,1.3-0.3c0.3-0.3,0.8-0.7,1.3-1
	c0.3-0.4,0.6-0.9,1-1.3l0.1-0.4c0.2-0.6,0.4-1.2,0.6-1.7c0.4-1.1,1.3-1.8,2-2.3c0.4-0.2,0.8-0.3,1.4-0.3c0.3,0,0.6,0,0.9,0.1
	l0.1-0.3c0.1-0.4,0.1-0.8,0.1-1.3c0-0.3,0-0.6,0-0.9c0-0.3,0-0.6,0-1c-1.4,1-3,1.9-4.8,2.6c0,0,0,0,0,0c-0.2,0.2-0.6,0.6-1.2,0.8
	c-0.5,0.2-1,0.5-1.6,0.8c-0.3,0.2-0.6,0.3-0.9,0.5c-0.4,0.2-1,0.5-1.7,0.6c-0.7,0.7-1.7,1.4-3,1.6c-0.1,0.1-0.2,0.1-0.3,0.2
	c-0.6,0.3-1.3,0.8-2.2,0.9c-0.4,0.3-0.8,0.4-1.2,0.5c0,0.1,0.1,0.1,0.1,0.2c0.1,0.1,0.1,0.1,0.2,0.2c0.3,0.2,0.5,0.5,0.8,0.8
	c0.1,0.1,0.2,0.2,0.3,0.3c0.8,0.6,1.5,1,2.2,1.3c0.2,0,0.4,0.1,0.5,0.1C626,403.2,626,403.2,626.1,403.2z M593.9,380.8
	c0.1,0.3,0.3,0.6,0.3,1c0,0.4,0,0.7,0,1.1c0,1,0.1,2-0.1,3.1c0,0.1,0,0.2,0,0.4c0.1,0.4,0.2,1,0,1.7c-0.2,0.9-0.2,1.8-0.2,2.8
	c0.3-0.1,0.7-0.2,1-0.3c0.9-0.2,1.7-0.4,2.4-0.9c0.4-0.2,0.9-0.4,1.4-0.4c0.1,0,0.2,0,0.3,0c0,0,0.1,0,0.1,0l0.5-0.3
	c0.8-1,1.2-1.9,1.3-2.9c0-0.4,0.2-0.7,0.3-1c0,0,0.1-0.2,0.1-0.2l0.3-0.6c0-0.5,0.1-1,0.2-1.4c0.1-0.2,0.1-0.4,0.1-0.7
	c0.1-0.4,0.1-0.9,0.2-1.3l0.1-0.4l0-0.6c0-0.6,0-1.3,0-1.9c0-0.5,0-0.8-0.2-1.1l-0.1-0.3l0-0.1l0,0l0-1.2c0-0.2-0.1-0.4-0.1-0.6
	c-0.1-0.5-0.3-1.1-0.2-1.8c-0.1-1.1-0.3-2.2-0.6-3.2c0-0.2-0.1-0.4-0.1-0.5c-0.1-0.4-0.2-0.9-0.3-1.4c0-0.4-0.2-0.7-0.8-0.9
	c-0.5-0.2-0.9-0.5-1.3-0.7c0,0-0.3-0.1-0.3-0.1l-0.2-0.1c-0.2-0.1-0.4-0.2-0.6-0.2c-0.6-0.2-1.3-0.5-1.9-1.2c-0.4,0-0.9,0-1.4,0
	c-0.4,0-0.8,0-1.1,0c0.4,0.7,0.5,1.4,0.4,2.2c-0.3,2-0.3,4-0.2,6.1c0,1.1,0,2.3,0,3.4c0,0.4,0,0.8-0.2,1.3c0.1,0.2,0.2,0.3,0.3,0.5
	l0.1,0.1c0.1,0.1,0.1,0.2,0.2,0.3c0.2,0.4,0.4,0.8,0.4,1.2l0,0.2c0,0.1,0,0.3,0,0.5L593.9,380.8z M619.4,388.5
	c0,0.3-0.1,0.6-0.1,0.9c0.9-0.7,1.9-1.2,3.1-1.6c0.3-0.2,0.7-0.3,1-0.4c1.3-0.8,2.9-1.7,4.7-2.4c0.4-0.4,0.8-0.7,1.1-0.8
	c0.1,0,0.1,0,0.2-0.1c0.8-0.8,1.7-1.4,2.6-2c0,0,0.2-0.1,0.2-0.1c-0.3-0.7-0.7-1.3-1-2c-0.2-0.4-0.4-0.8-0.6-1.1
	c0-0.1-0.1-0.1-0.1-0.2c-0.4-0.2-0.8-0.6-1.2-1c-0.1-0.1-0.2-0.1-0.3-0.2c-0.1,0-0.2-0.1-0.3-0.1c-0.2,0-0.5-0.1-0.8-0.3
	c-0.4,0.1-0.7,0.1-1.1,0.1c-0.4,0-0.8,0-1.2-0.1c-0.3,0-0.6-0.1-0.9-0.1c-0.1,0-0.2,0-0.2,0l-0.3,0l-0.2-0.1c-0.1,0-0.2,0.1-0.2,0.1
	l-0.6,0.6c-0.1,0.5-0.4,0.9-0.8,1.2l0,0l-0.1,0.1c0,0,0,0.1-0.1,0.1l-0.1,0.2c-0.2,0.7-0.4,1.6-1.3,2.4c0,0-0.1,0.1-0.1,0.2
	c0,0.1-0.1,0.2-0.2,0.3c0,0,0,0,0,0c0,0.1-0.1,0.1-0.1,0.2c-0.1,0.4-0.1,0.7-0.1,1.1c0,0.4,0.1,1-0.3,1.7c0,0.2,0,0.4-0.1,0.7
	c0,0.7-0.2,1.3-0.4,1.9l0,0.1L619.4,388.5z M701,387.4c0.7-0.5,1.5-0.9,2.5-1.2c0.3-0.2,0.6-0.3,0.9-0.4c1.2-0.7,2.6-1.5,4.1-2.2
	c0.3-0.4,0.8-0.6,1-0.7c0,0,0.1,0,0.1-0.1c0.7-0.7,1.5-1.3,2.2-1.8l0,0c-0.3-0.5-0.6-1.1-0.9-1.6c-0.2-0.3-0.4-0.7-0.5-1
	c0,0,0-0.1,0-0.1c-0.4-0.2-0.7-0.5-1-0.8c-0.1,0-0.1-0.1-0.2-0.1c-0.1,0-0.2-0.1-0.2-0.1c-0.1,0-0.4-0.1-0.7-0.2
	c-0.4,0.1-0.8,0.1-1.2,0.1c-0.3,0-0.6,0-0.9,0c-0.2,0-0.5,0-0.7,0c-0.1,0-0.2,0-0.3,0l-0.3,0l-0.1,0c0,0-0.1,0-0.2,0l-0.4,0.4
	c-0.1,0.5-0.4,0.9-0.7,1.1l-0.1,0.1l0,0.1l0,0.1c-0.2,0.7-0.4,1.6-1.2,2.3c0,0,0,0.1-0.1,0.1c0,0.1-0.1,0.2-0.2,0.3c0,0,0,0,0,0
	c0,0,0,0.1-0.1,0.1c-0.1,0.4-0.1,0.6-0.1,0.9c0,0.3,0.1,1-0.2,1.6c0,0.2,0,0.4-0.1,0.6c0,0.6-0.2,1.2-0.3,1.7l0,0.1
	C701,386.5,701,387.3,701,387.4z"/>
<g>
	<defs>
		<path id="SVGID_1_" d="M744.9,400.6C744.9,400.6,744.9,400.6,744.9,400.6c-0.1-1.3-0.5-2.6-0.9-3.7c-0.5-1.2-1-2.5-2.1-3.4
			c-1-0.9-2.1-1.6-3.2-2.4c-0.1-0.2-0.2-0.3-0.5-0.4c-0.1-0.2-0.2-0.3-0.4-0.4c-0.8-0.8-1.6-1.6-2.6-2c-1-0.9-2.3-1.4-3.5-1.9
			c-0.9-0.4-1.8-0.8-2.7-1.3c0,0,0,0,0,0c-0.5-0.9-1.6-0.9-2.3-1.5c0,0,0,0,0,0c0-0.1-0.1-0.2-0.1-0.3c-0.1-0.1-0.2-0.2-0.3-0.3
			c-0.6-0.3-0.9-1-0.9-1.6c-0.1-0.9-0.8-1.7-0.4-2.8c0.2-0.5,0.4-1.1-0.2-1.6c0,0,0,0,0,0c-0.1-0.3-0.3-0.5-0.4-0.8
			c0-0.3,0-0.5,0-0.8c0.3-0.5,0.5-0.9,0.5-1.5c0,0,0,0,0,0c0,0,0,0,0,0c0.1-0.1,0.3-0.3,0.4-0.4c0,0,0,0,0,0
			c0.2-0.1,0.4-0.2,0.7-0.2c0.2,0,0.3,0,0.4-0.2c1-0.2,1.9-0.1,2.7,0.7c0,0.5,0.3,0.9,0.8,1.2c0.7,0.5,1.3,1,2,1.5
			c0.1,0.2,0.3,0.2,0.3,0.4c0,0,0,0,0,0c-0.1-0.2-0.2-0.3-0.3-0.5c0,0.2,0.1,0.4,0.3,0.5c0,0,0,0,0,0c0,0,0,0,0,0l0,0c0,0,0,0,0,0
			c0.2,0.6,0.3,1.3,0.8,1.9c0,0.3,0.2,0.6,0.4,0.8c0.5,1.3,0.5,1.3,1.5,1c0.7-0.2,1.3-0.3,2-0.2c0.3,0,0.6,0,0.8-0.4l0,0
			c0.7-0.2,1.1-0.8,1.7-1.2c0.4,0.2,0.9,0.4,1.3,0.6c0.4,0.2,0.6-0.1,0.7-0.4c0.1-0.2,0-0.4,0.1-0.6c0-0.3,0-0.5,0-0.8
			c0.1-0.4,0.2-0.8,0-1.2c0.1-0.9-0.1-1.7-0.7-2.4c-0.5-1-1.2-1.9-1.5-3.1c0-0.3-0.4-0.5-0.6-0.7l0,0c-0.1-0.4-0.5-0.5-0.8-0.7l0,0
			c-0.2-0.5-0.6-0.7-1-0.8c-0.8-0.2-1.5-0.6-2.1-1c-0.6-0.4-1.2-0.6-1.8-0.7c-1.3-0.4-2.6-0.5-4-0.2c-0.5-0.5-1.1-0.3-1.6,0
			c-0.7-0.3-1.3-0.3-2,0.2c-0.6,0.4-1.2,0.7-1.8,1c-0.3,0-0.6,0-0.8,0.4c-0.5,0.3-1,0.5-1.4,0.9c-1,0.8-2.1,1.6-2.5,3
			c-0.6,0.3-0.9,0.7-1.2,1.3c-0.1,0.1-0.2,0.2-0.3,0.4l0,0c-0.2-0.2-0.4-0.5-0.6-0.7c-0.3-0.3-0.6-0.5-0.9-0.8c0,0-0.1,0.1-0.1,0.1
			c0,0,0,0,0,0c0,0,0,0,0,0c0,0,0.1-0.1,0.1-0.1c-0.8-0.7-1.6-1.3-2.4-2c-0.1-0.1-0.3-0.1-0.5-0.2v0c-0.5-0.3-1-0.6-1.7-0.6
			c-0.2-0.2-0.4-0.3-0.7-0.2c-0.4-0.4-0.8-0.3-1.2-0.1c-0.5-0.3-1.1,0-1.7-0.1l-0.1,0.1c0,0,0,0,0,0c0,0,0,0,0,0c0,0,0-0.1,0.1-0.1
			c-0.8-0.3-1.7-0.2-2.6-0.2c-0.1-0.2-0.2-0.2-0.3,0c0,0,0,0,0,0c0,0,0,0,0,0c-1.2,0.3-2.4,0.5-3.6,0.8c-0.8,0.2-1.5,0.4-1.9,1.1
			c-0.4,0.6-0.8,1.1-1.4,1.5c-0.6,0.4-0.9,1.2-1.5,1.7c0,0,0,0,0,0c0,0,0,0,0-0.1c0-0.5,0.1-0.9,0-1.4c-0.2-0.5,0.1-1,0-1.5
			c0-0.2,0-0.3-0.2-0.5c0,0,0,0,0,0c0,0,0,0,0,0c-0.5-0.3-1.1-0.5-1.7-0.4c-0.3-0.1-0.6-0.3-0.9-0.4c-0.2,0-0.3,0-0.5,0c0,0,0,0,0,0
			c0,0,0,0,0,0c-0.2,0-0.4,0-0.6,0c0,0,0,0,0,0c0,0,0,0,0,0c-0.2,0-0.5-0.1-0.7,0.1c-0.6,0-1.3,0.1-1.9,0.1c-0.1,0-0.1,0-0.2,0
			c-0.1,0-0.2,0.1-0.2,0.2c0,0,0,0,0,0c-0.4,0.4-0.7,0.9-0.6,1.5c0,0.1,0,0.1,0,0.2c0,0,0,0,0,0c0,0.4,0,0.7,0,1.1
			c0,0,0.1-0.1,0.1-0.1c0,0,0,0.1-0.1,0.1c0,0.7,0,1.4,0,2.1c-0.1,0.7-0.1,1.3,0,2c-0.1,0.6,0.1,1.3,0.2,1.9c0,1.1,0,2.1,0.1,3.2
			c0.1,0.7,0.1,1.3,0,2c0,0.2-0.1,0.4-0.1,0.5c0.2,0.9,0.1,1.8,0.2,2.7c-0.1,0.3,0,0.6,0,0.8c0,0.2,0,0.4,0,0.6c0,0.1,0,0.1,0,0.2
			c0,0.9-0.2,1.9,0,2.8c0,0.1,0,0.2,0,0.3c-0.1,0.4,0,0.8,0,1.1c-0.3,0.3-0.1,0.7-0.2,1.1c0,0.9,0,1.9,0,2.8
			c-0.3,0.5-0.2,1.1-0.2,1.7c0,0.4-0.3,0.7-0.1,1.1c0,0.1,0,0.1,0,0.2c-0.1,0.1-0.1,0.1-0.1,0.2c-0.1,0-0.1,0.1-0.1,0.2
			c-0.1,0.1-0.1,0.2-0.2,0.3c-0.4,0.2-0.4,0.7-0.8,0.8c-0.5,0.2-0.8,0.6-1.1,0.9c-0.1,0.1-0.1,0.1-0.2,0.2l0,0
			c-0.1,0.1-0.1,0.1-0.2,0.2l0,0c-0.1,0.1-0.1,0.1-0.2,0.2l0,0c-0.1,0.1-0.1,0.2-0.2,0.2c0,0,0,0,0,0c-0.2,0-0.3,0.1-0.4,0.2
			c0,0,0,0,0,0l0,0c-0.5,0.2-1,0.4-1.5,0.6c-0.6,0-1.1-0.2-1.7-0.4c-0.1-0.2-0.2-0.2-0.4-0.2l0,0c0,0,0,0,0,0c0,0,0,0,0,0
			c-0.2-0.3-0.5-0.5-0.7-0.8c-0.1-0.2-0.3-0.3-0.4-0.5c-0.2-0.7-0.6-1.2-0.9-1.8c-0.4-0.9-0.8-1.7-0.9-2.7c0-0.1-0.1-0.1-0.1-0.2
			c0,0,0,0,0,0c0-1.3-0.2-2.7,0-4c0-0.1,0-0.2,0-0.3c-0.1-0.9,0-1.8,0-2.8c0-1.5,0.1-3,0-4.5c0-0.1,0-0.1,0-0.2c0-0.2,0-0.5-0.2-0.6
			c0-0.9,0-1.7,0-2.6c0-0.1,0.1-0.1,0.1-0.2c0-0.5-0.1-1,0.1-1.6c0.1-0.2,0-0.4-0.1-0.6c0-0.2-0.1-0.3,0-0.5
			c0.2-0.6,0.1-1.2,0.1-1.8c0,0,0,0,0,0c0.1-0.1,0.1-0.2,0.1-0.3c0-0.4,0.1-0.7,0-1c-0.2-0.6-0.1-1.2,0-1.8c0.2-0.6-0.3-1.2-0.1-1.8
			c0-0.2,0.1-0.4,0.1-0.5c-0.2-0.7-0.1-1.3-0.1-2c0-0.3-0.1-0.6-0.4-0.8c-0.3-0.3-0.3-0.3-0.7,0l0,0c-0.3,0.1-0.5,0.2-0.8,0.2
			c0,0,0,0,0,0c-0.4-0.3-0.9-0.2-1.3-0.2c-0.2-0.1-0.4-0.1-0.6,0c-0.4,0-0.9-0.2-1.3,0.2v0c0,0,0,0,0,0c-0.3,0-0.6,0-0.8,0.1
			c-0.5,0.1-0.9,0.4-0.9,1c-0.1,0.1-0.1,0.2-0.2,0.2c0,0,0,0,0,0c0,0,0,0,0,0c-0.2,0.3-0.2,0.6-0.2,0.8c-0.3-1.2-0.6-2.3-1.5-3.3
			c-0.1-0.2-0.2-0.4-0.3-0.6c-0.1-0.3-0.2-0.6-0.5-0.9c-0.2-0.3-0.4-0.5-0.6-0.8c-0.1-0.3-0.2-0.6-0.6-0.8c-0.2-0.1-0.5-0.3-0.8-0.3
			c-0.1,0-0.2-0.2-0.3-0.2l0,0l0,0c0,0,0,0,0,0c-0.3-0.4-0.8-0.4-1.2-0.5c-0.2-0.1-0.3,0.1-0.5,0.2c-0.3-0.1-0.5-0.2-0.8-0.3
			c0,0,0,0,0,0c-0.5-0.3-0.8-0.8-1.4-0.8c-0.3,0-0.6,0-0.8,0c0,0,0,0,0,0c-0.1-0.2-0.3-0.2-0.6-0.2c-0.1,0-0.2,0-0.3,0c0,0,0,0,0,0
			v0c-0.1,0-0.2,0-0.3,0h0c0,0,0,0,0,0c-0.9,0-1.9,0-2.8,0c0,0,0,0,0,0c0,0,0,0,0,0c-0.6-0.2-1.2-0.4-1.9-0.3c0,0,0,0,0,0
			c-0.2-0.1-0.3-0.3-0.5-0.2c-0.9,0.2-1.8,0.1-2.6,0.5c-1,0-2,0.1-2.8,0.8c0,0,0,0,0,0v0c0,0,0,0,0,0c0,0,0,0,0,0
			c-0.6,0.1-1.2,0.4-1.7,0.8c0,0,0,0,0,0c-0.3,0-0.6,0-0.8,0.3l0,0c0,0,0,0,0,0c0,0,0,0,0,0c-0.6,0.2-1,0.7-1.4,1.1c0,0,0,0,0,0
			c-0.5,0.7-1.2,1.2-1.7,1.9c0,0.1,0,0.2,0,0.3c-0.3,0.2-0.5,0.4-0.6,0.8c0,0,0,0,0,0c-0.1,0.1-0.2,0.1-0.2,0.2
			c-0.1,0.7-0.7,1-1,1.6c-0.3,0.6-0.1,1.3-0.5,1.8l0,0c-0.1,0.1-0.2,0.2-0.2,0.3c-0.3,1.3-0.7,2.6-0.8,3.9c-0.1,0.6-0.2,1.1-0.3,1.7
			c0,0,0-0.1-0.1-0.1c-0.2-0.3-0.4-0.6-0.6-0.9c0-0.4,0-0.7-0.3-1c-0.1-0.5-0.3-0.9-0.7-1.3c0,0,0,0,0,0l0,0c0-0.3-0.1-0.5-0.2-0.7
			c-0.5-0.6-1.1-1.2-1.7-1.9c-0.3-0.3-0.7-0.6-1-0.9c0,0-0.1,0.1-0.1,0.1c0,0,0,0,0,0c0,0,0,0,0,0c0,0,0.1-0.1,0.1-0.1
			c-0.9-0.8-1.8-1.5-2.7-2.3c-0.1-0.1-0.4-0.2-0.6-0.2v0c-0.6-0.3-1.2-0.7-1.8-0.7c-0.2-0.2-0.4-0.3-0.7-0.3
			c-0.4-0.4-0.8-0.4-1.3-0.2c-0.6-0.3-1.2-0.1-1.9-0.2l-0.1,0.1c0,0,0,0,0,0c0,0,0,0,0,0c0,0,0.1-0.1,0.1-0.1
			c-0.9-0.4-1.9-0.3-2.9-0.3c-0.1-0.2-0.2-0.2-0.4,0c0,0,0,0,0,0c0,0,0,0,0,0c-1.4,0.3-2.7,0.5-4.1,0.8c-0.8,0.2-1.7,0.4-2.2,1.2
			c-0.5,0.7-1,1.3-1.6,1.7c-0.7,0.5-1,1.4-1.7,1.9c-0.2,0.1-0.4,0.2-0.5,0.3c-0.2,0.3-0.4,0.7-0.6,1c0-1,0-2.1-0.1-3.1
			c-0.1-1,0.2-2,0-2.9c-0.1-0.6-0.1-1.1,0.1-1.6c0.2-0.4,0.2-0.8-0.2-1.2c-0.4-0.6-0.8-1.3-1.1-1.9c0,0,0,0,0,0
			c-0.1-0.1-0.2-0.3-0.3-0.4c0,0,0,0,0,0c-0.2-0.4-0.4-0.9-0.6-1.3c-0.3-0.6-0.7-1.1-1.4-1.3c0,0,0,0,0,0c-0.4-0.4-0.7-0.8-1.1-1.3
			c-0.1-0.3-0.4-0.3-0.6-0.4c0,0,0,0,0,0c-0.9-0.9-1.9-1.6-2.9-2.2c-0.9-0.5-1.9-1-3-1v0c-0.3-0.4-0.8-0.6-1.3-0.6c0,0,0,0,0,0
			c0,0,0,0,0,0c-0.8-0.3-1.7-0.4-2.6-0.3c-0.5,0-1-0.1-1.4,0.2c-0.1,0-0.2,0-0.3,0.1c-0.6-0.1-1.4,0.3-2-0.2c-0.7,0.2-1.3,0.3-2,0.5
			c-0.1,0-0.2,0-0.3,0c-0.1-0.1-0.2-0.2-0.3,0c-0.1,0-0.2,0-0.3,0.1c0,0,0,0,0,0c0,0,0,0,0,0c-2.1-0.1-4.2-0.2-6.3,0.3
			c-0.7,0.1-1.4-0.1-2,0.3c-0.5,0.2-0.8,0.6-1.1,1c-0.1,0.1-0.2,0.2-0.3,0.3c-0.3,0.4-0.3,0.7,0,1.1c0,0,0,0,0,0c0,0.1,0,0.2,0,0.3
			c0,0,0,0,0,0l0,0c-0.3,0.4-0.3,0.7,0,1.1c0,0,0,0,0,0c0,0.2,0,0.4,0,0.6c-0.4,1.4-0.5,2.9,0,4.3c0,0.2,0,0.4,0,0.7
			c-0.1,0.3-0.1,0.7,0,1c-0.1,0.3,0,0.5,0.2,0.7c-0.2,0.8-0.3,1.7-0.2,2.6c0,0.4,0,0.9-0.1,1.3c0,0.6,0,1.3,0,1.9c0,1.9,0,3.8,0,5.7
			c0,0.6,0,1.3,0,1.9c0,0.6-0.1,1.3,0,2c0.1,1.2,0.2,2.4-0.2,3.6c-0.1,0.3,0,0.5,0.2,0.7c0,0.1,0,0.2,0,0.3c0,1.1,0,2.2,0,3.3
			c0,0.2,0,0.4,0,0.7c0,0.2,0,0.4,0,0.6c0,0,0,0,0,0c0,0,0,0,0,0c-0.2,0.2-0.2,0.5,0,0.7c0,0,0,0,0,0c0,0,0,0,0,0c0,1.3,0,2.6,0,3.9
			c0,2.2,0,4.4,0.1,6.6c0,0.6,0,1.2,0,1.8c0,0.6,0.2,1.2,0.1,1.7c-0.1,0.8,0,1.6,0.1,2.4c0,0,0,0,0,0c-0.3,0.2-0.2,0.5,0,0.7
			c0,0.1,0,0.2,0,0.3c0,0.8,0,1.6,0,2.5c0,0.4,0,0.9,0.3,1.2c0,0,0,0,0,0c0,1.1,0.1,2.1,0.1,3.2c0,0.5-0.1,1.1-0.1,1.6
			c0,0.7,0.4,1.2,1,1.5c0.5,0.2,0.9,0.2,1.4,0.2c0.4-0.1,0.8-0.2,1.3-0.3c0,0,0,0,0,0c0,0,0,0,0,0l0.1,0l0.1,0
			c0.2,0.1,0.4,0.1,0.7,0c0.6,0,1.2,0,1.6-0.5c0.3-0.1,0.6-0.1,1-0.2c0.7,0.4,1.4,0.4,2.1,0.6c0.8,0.2,1.5-0.5,1.5-1.3
			c0-0.3,0-0.7-0.1-1c-0.3-0.7-0.2-1.5-0.2-2.2c0-3,0-5.9,0.1-8.9c0,0,0,0,0,0c0.4-0.3,0.3-0.7,0-1c0-0.1,0-0.2,0-0.3
			c0.2-0.3,0.3-0.6,0.3-0.9c0-0.7,0-1.4,0-2.1c0.2-0.4,0.5-0.9,0.7-1.3c1.4-0.1,2.9-0.3,4.3-0.4c0.6,0,1.1-0.2,1.6-0.6
			c0.7-0.3,1.2-0.7,2-0.7c0.1,0,0.2-0.2,0.4-0.3c0.3,0,0.5-0.1,0.6-0.4c0.2,0,0.3-0.1,0.4-0.2c0,0,0,0,0,0c0.2,0,0.4,0,0.6-0.1
			c0.7,0,1-0.5,1.3-0.9c1.2-0.8,1.9-2,3-3c0.2,0,0.4-0.1,0.5-0.1c0.4,0,0.6-0.3,0.8-0.6c0,0,0,0,0,0c0,0,0,0,0,0
			c-0.1,1.4,0.2,2.8,0.5,4.2c0.2,1,0.3,2,0.9,2.8c0.1,1.1,0.9,1.9,1.3,2.8c0.3,0.9,1,1.7,1.5,2.5c0.1,0.1,0.3,0.2,0.4,0.2
			c0.6,1.4,1.6,2.6,3,3.3c0,0.1,0,0.2,0.2,0.2c0,0.1,0.1,0.2,0.2,0.1c0.2,0,0.3,0.2,0.4,0.2c0.1,0,0.2,0.1,0.3,0.1
			c0.2,0.2,0.4,0.3,0.7,0.3c0,0,0,0,0,0c0,0,0,0,0,0l0.1,0.1l0.1,0c0.9,0.7,2,0.6,3.1,0.6l0.1,0c0.2,0.2,0.5,0.3,0.8,0.3l0,0
			c0.4,0.4,0.8,0.4,1.2,0.2c0,0,0,0,0,0c0.7,0.2,1.4,0.5,2-0.1c1.6,0.1,3.1-0.2,4.5-1c1.2-0.1,2.4-0.1,3.5-0.7
			c0.8-0.2,1.4-0.6,2-1.2c0.3-0.3,0.7-0.6,1.1-0.9c1.4-0.9,2.6-2,3.6-3.3c0,0.1,0.1,0.2,0.1,0.4c0,0,0,0,0,0
			c0.1,1.6,0.5,3.1,1.4,4.5c0,0,0,0,0,0c0,0.1,0,0.1,0,0.2c0,0.2,0.1,0.4,0.3,0.6c0,0.2,0.1,0.4,0.3,0.5l0,0
			c0.2,0.8,0.7,1.5,1.2,2.1c0.4,0.4,0.9,0.5,1.3,1c0.1,0.3,0.3,0.6,0.7,0.8c0.7,0.3,1.4,0.6,2.1,0.9c0.2,0.2,0.5,0.3,0.8,0.3
			c0.2,0.1,0.3,0.2,0.5,0.2c1,0,1.9,0.3,2.8,0.6c0.5,0.2,0.9,0.3,1.5,0.2c0.3,0.1,0.6,0.1,0.8,0c1,0.3,2-0.1,3,0
			c0.3,0,0.6,0.1,0.9-0.2c0,0,0,0,0,0l0,0c0.4,0,0.7,0,1.1,0c0.5,0,0.8-0.2,1.1-0.5c0.3,0,0.7,0,0.9-0.3c0.9-0.5,1.8-1,2.7-1.5
			c0.4-0.2,0.7-0.3,1.1,0c0.4,0.3,0.6,1,1.1,1.2c0,0,0,0,0,0c0.1,0.2,0.2,0.3,0.3,0.5c0,0.2,0.1,0.3,0.2,0.3c0,0,0,0,0,0l0,0
			c0.4,0.6,1,1,1.5,1.5c0.1,0.1,0.3,0.1,0.4,0.1c0.7-0.2,1.3-0.3,1.6-1.1c0,0,0,0,0,0c0.8-0.1,1.4-0.6,1.9-1.2
			c0.2-0.1,0.4-0.2,0.5-0.3c0.5-0.2,0.9-0.6,1.1-1c0,0,0,0,0,0c0.1-0.1,0.2-0.2,0.3-0.3c0.6-0.6,0.6-0.6,0.2-1.4c0,0,0,0,0,0
			c-0.2-0.7-0.7-1.2-1-1.7c0,0,0,0,0,0l0,0c-0.1-0.2-0.2-0.4-0.4-0.5c-0.1-0.3-0.3-0.4-0.5-0.5c-0.3-0.4-0.6-0.8-0.8-1.2
			c-0.2-0.5-0.6-0.5-1.1-0.6c-0.3-0.8-0.6-1.5-1.2-2.2c0-0.1,0-0.2,0-0.2c0.4-0.5,0.7-1,0.8-1.7v0c0.2-0.1,0.3-0.3,0.2-0.6
			c0,0,0,0,0,0c0,0,0,0,0,0c0-0.1,0-0.2,0-0.3c0.1-0.4,0.3-0.8,0.4-1.2c0.2,0.7,0.4,1.3,0.8,1.9c0.1,0.2,0.2,0.5,0.3,0.7
			c0.4,0.9,0.7,2,1.4,2.8c0.7,0.8,1.4,1.7,2.5,2.1c0.2,0.2,0.4,0.2,0.6,0.2c0.5,0,1.1,0.1,1.5,0.3c1.2,0.6,2.5,0.6,3.8,0.9
			c0.3,0.1,0.7,0,1-0.1c0.5-0.2,0.9-0.2,1.4-0.3c0.6-0.1,1.3-0.3,1.9-0.6c0.1,0,0.1,0,0.2,0c0.2,0,0.3,0,0.4-0.2c0,0,0,0,0,0
			c0.6-0.3,1.2-0.6,1.9-0.4c0.2,0.2,0.4,0.3,0.7,0l0,0c0,0,0,0,0,0c0.5-0.2,0.6-0.7,0.9-1.1c0.1-0.1,0.1-0.1,0.2-0.2
			c0.1-0.1,0.1-0.2,0.2-0.2c0.2-0.1,0.5,0,0.7-0.3c0.4-0.6,1-1.1,1.4-1.7c0.3-0.3,0.5-0.6,0.8-1c0.5-0.7,0.6-1,0.5-1.8
			c0.3-0.2,0.4-0.4,0.4-0.8c0-0.4,0-0.8,0-1.2c0.3,0.5,0.7,1,1.1,1.5c0.1,0.1,0.2,0.1,0.4,0.2c0.6,1.3,1.5,2.2,2.8,2.9
			c0,0.1,0,0.2,0.2,0.2c0,0.1,0.1,0.1,0.2,0.1c0.1,0,0.2,0.1,0.4,0.2c0.1,0,0.2,0.1,0.3,0.1c0.2,0.2,0.4,0.3,0.6,0.2c0,0,0,0,0,0
			c0,0,0,0,0,0l0.1,0.1l0.1,0c0.8,0.6,1.8,0.5,2.8,0.5l0.1,0c0.2,0.2,0.4,0.3,0.7,0.3l0,0c0.3,0.3,0.7,0.3,1.1,0.1h0
			c0.6,0.2,1.2,0.5,1.8-0.1l0,0c1.4,0,2.8-0.2,4-0.9c1-0.1,2-0.1,2.9-0.6c0,0.2,0,0.3,0.1,0.5c0.3,1.5,0.8,3,1.2,4.4c0,0,0,0,0,0
			c-0.1,0.6,0.3,1.1,0.6,1.6c0.3,0.5,0,1.1,0.3,1.6c0.5,1.1,0.8,2.3,1.8,3.1c0.3,1.3,1.3,1.6,2.5,1.7c0.2,0.2,0.3,0.5,0.5,0.5
			c1.6,0.5,3.2,1,4.9,0.9c0.9,0.1,1.8,0.3,2.7,0.1c1.1-0.1,2.2,0.3,3.2-0.5c1.1,0.5,2.3,0.3,3.4,0c0.4-0.1,0.7-0.3,1.1-0.4
			c1.1-0.4,2.1-0.9,3.3-1.1c0.8-0.1,1.5-0.4,2-1c1.8-2.1,3.5-4.3,3.4-7.2c0-1.8,0.1-3.6,0.1-5.4
			C745.7,403.6,745.5,402.1,744.9,400.6z M708.6,375.5c0.2,0.2,0.4,0.3,0.6,0.3c0.1,0,0.2,0,0.3,0.1c0.1,0.1,0.2,0.1,0.3,0.1
			c0.1,0,0.1,0.1,0.2,0.1c0.1,0.1,0.2,0.1,0.3,0.2c0,0,0,0,0,0c0.3,0.4,0.6,0.6,1,0.8c0,0,0,0,0,0c0.1,0.1,0.2,0.2,0.3,0.2
			c0,0.1,0.1,0.2,0.1,0.3c0.5,0.9,1,1.9,1.5,2.8c0.4,0.7,0.2,1.1-0.4,1.5c-0.8,0.6-1.6,1.1-2.3,1.8c0,0,0,0,0,0c0,0,0,0,0,0
			c-0.3,0.3-0.9,0.4-1.1,0.9l0,0c0,0,0,0,0,0c-1.6,0.6-3.1,1.5-4.5,2.4c-0.2,0-0.5,0-0.6,0.3l0,0c0,0,0,0,0,0
			c-1.1,0.3-2,0.7-2.8,1.5c0,0,0,0,0,0c-0.2,0-0.4,0.1-0.5,0.3l0,0c-0.1,0-0.2,0-0.3,0c-1,0-1.2-0.2-1.2-1.1c0-0.7,0.1-1.4,0.2-2.1
			c0.2-0.6,0.3-1.1,0.3-1.7c0.1-0.3,0.1-0.5,0-0.8c0.3-0.3,0.3-0.7,0.3-1c-0.1-0.6,0-1.1,0.2-1.6c0,0,0,0,0,0c0,0,0,0,0,0
			c0.1-0.1,0.1-0.1,0.1-0.2c0,0,0.1,0,0.1-0.1c0,0,0.1-0.1,0.1-0.1c0,0,0.1-0.1,0.1-0.1c0.1-0.2,0.2-0.4,0.4-0.5
			c0.5-0.4,0.6-1,0.7-1.6c0-0.3,0.2-0.5,0.3-0.8c0-0.1,0.1-0.1,0.1-0.2c0.3-0.1,0.5-0.4,0.4-0.8c0,0,0,0,0,0l0,0
			c0.4-0.4,0.8-0.7,1.1-1.1c0,0,0,0,0,0l0,0c0,0,0,0,0,0c0,0,0,0,0,0c0.3,0,0.6-0.1,0.7-0.3c0,0,0,0,0,0c0.1,0.1,0.2,0.2,0.4,0.2
			c1.2-0.1,2.5,0.3,3.7-0.3l0.1-0.1c0,0,0,0,0,0C708.6,375.3,708.5,375.4,708.6,375.5z M725.5,406.5c-0.1-1-0.5-1.9-1.2-2.7
			c-0.1-0.7-0.6-0.8-1.1-0.8c-1.5,0-2.9,0.1-4.4,0.6c0,0,0,0,0,0c0,0,0,0,0,0c-0.1,0-0.2,0-0.3,0c1.5-1.1,2.7-2.5,3.6-4.2v0
			c0.3,0,0.4-0.1,0.5-0.4c0.1-0.3,0.3-0.7,0.2-1.1c0.3-0.8,0.2-0.9-0.5-1.5c0,0,0,0,0,0c-0.8-0.5-1.6-1.1-2.3-1.6
			c-0.1-0.3-0.4-0.3-0.6-0.3l-0.1,0.1c0,0,0,0,0,0c0,0,0.1-0.1,0.1-0.1c-0.1-0.2-0.3-0.3-0.6-0.3c-0.4-0.3-0.8-0.4-1.3-0.4
			c-0.2,0-0.4,0-0.5,0.1c-0.5,0.3-1,0.7-1.2,1.3c-0.2,0.7-0.5,1.4-0.7,2.1c0,0,0,0,0,0c-0.4,0.4-0.8,0.9-1.1,1.4
			c-0.6,0.2-1,0.7-1.4,1.1c-0.4,0.1-0.9,0.1-1.2,0.3c-0.1,0-0.1,0.1-0.2,0.1c0,0,0,0,0,0h0c0,0,0,0,0,0c-0.3-0.1-0.7,0.1-1,0.1
			c-1.2,0.2-2.4,0.7-3.6,0.5c0,0,0,0,0,0c0,0,0,0,0,0c-0.1-0.1-0.1-0.1-0.2-0.1c-1.1-0.3-2-0.9-2.9-1.6c0-0.1,0-0.2-0.2-0.3
			c0,0,0,0,0,0c-0.1-0.3-0.2-0.5-0.5-0.6c-0.1-0.1-0.1-0.2-0.2-0.2l-0.1-0.1c0,0,0,0,0,0l0,0c-0.1-0.2-0.2-0.4-0.4-0.5
			c-0.3-0.3-0.5-0.7-0.4-1.1v0c0.1-0.1,0.3-0.2,0.4-0.4c0,0,0,0,0,0c0,0,0,0,0,0c0.6-0.3,1.4-0.3,1.9-0.9c0.9,0.1,1.6-0.5,2.3-0.9h0
			c1.1-0.1,1.9-0.8,2.5-1.5c0.6,0.1,1-0.2,1.5-0.4c0.8-0.4,1.5-1,2.4-1.3c0.3-0.1,0.5-0.4,0.7-0.6c0,0,0,0,0,0
			c2-0.8,3.8-1.9,5.4-3.3c0,0,0.1,0,0.1,0c0.5,0.6,1.1,1.2,1.9,1.5c0.8,0.3,1.6,0.8,2.2,1.5c0.4,0.4,0.8,0.6,1.3,0.7c0,0,0,0,0,0
			c0.1,0.1,0.3,0.2,0.4,0.3c0,0,0,0,0,0c0,0,0,0,0,0c0.2,0.3,0.2,0.8,0.7,0.9c0.7,0.5,1.4,1,2,1.4c0.3,0.3,0.6,0.5,1,0.6
			c0,0,0,0,0,0c0.7,0.3,1.4,0.7,2.1,1c0.1,0.1,0.2,0.1,0.3,0.1l0,0c0,0,0,0,0,0c0.4,0.5,0.8,1,1.2,1.6c0.4,0.9,0.7,1.8,1.2,2.7
			c0.1,0.1,0.3,0.2,0.4,0.4c0,0.1,0,0.2,0.1,0.3c0,0.2,0.1,0.4,0.3,0.5c0,0,0,0,0,0c0.5,1,1.1,2.1,1.6,3.1c0,0.1,0,0.2,0.1,0.3
			c-0.1,0.3,0.1,0.6,0.3,0.8c0.2,2.2-0.5,4.1-1.9,5.8c-0.4,0.1-0.7,0.3-1.1,0.4c0,0,0,0,0,0c0,0,0,0,0,0c-0.4,0-0.9-0.1-1.2,0.3
			c0,0,0,0,0,0c-0.5-0.1-1-0.2-1.5-0.3c-0.3,0.1-0.7,0.3-1,0c-0.5-0.4-1.1-0.7-1.7-1.1l0,0c0,0,0,0,0,0l0,0
			c-0.1-0.4-0.4-0.6-0.8-0.8C726.1,408.4,726.2,407.3,725.5,406.5z M628.4,375.7c0.2,0.2,0.4,0.3,0.7,0.4c0.1,0,0.2,0.1,0.3,0.1
			c0.1,0.1,0.2,0.1,0.3,0.2c0.1,0,0.1,0.1,0.2,0.1c0.1,0.1,0.2,0.2,0.3,0.2c0,0,0,0,0.1,0c0.3,0.4,0.6,0.7,1.1,0.9c0,0,0,0,0,0.1
			c0.1,0.1,0.2,0.2,0.3,0.3c0,0.1,0.1,0.3,0.1,0.4c0.5,1.1,1.1,2.2,1.6,3.3c0.4,0.8,0.2,1.2-0.5,1.7c-0.9,0.6-1.8,1.2-2.6,2
			c0,0,0,0,0,0c0,0,0,0,0,0c-0.4,0.4-1,0.4-1.3,1l0,0c0,0,0,0,0,0c-1.8,0.7-3.5,1.6-5.1,2.6c-0.3,0-0.5,0-0.7,0.3l0,0c0,0,0,0,0,0
			c-1.2,0.3-2.3,0.7-3.2,1.6c0,0,0,0,0,0c-0.3,0-0.5,0.1-0.6,0.4l0,0c-0.1,0-0.2,0-0.3,0c-1.1,0-1.3-0.2-1.3-1.2
			c0-0.8,0.2-1.6,0.2-2.3c0.2-0.6,0.4-1.3,0.4-1.9c0.1-0.3,0.1-0.6,0-0.9c0.4-0.3,0.4-0.7,0.3-1.1c0-0.6,0.1-1.2,0.2-1.8
			c0,0,0,0,0,0c0,0,0,0,0,0c0.1-0.1,0.1-0.1,0.1-0.2c0,0,0.1,0,0.1-0.1c0,0,0.1-0.1,0.1-0.1c0,0,0.1-0.1,0.1-0.1
			c0.1-0.2,0.3-0.4,0.4-0.6c0.5-0.5,0.7-1.1,0.9-1.7c0.1-0.3,0.2-0.6,0.4-0.8c0-0.1,0.1-0.1,0.1-0.2c0.4-0.1,0.5-0.4,0.5-0.9
			c0,0,0,0,0,0l0,0c0.4-0.4,0.9-0.8,1.3-1.2c0,0,0,0,0,0l0,0c0,0,0,0,0,0c0,0,0,0,0,0c0.3,0,0.6-0.1,0.8-0.4c0,0,0,0,0,0
			c0.1,0.1,0.2,0.2,0.4,0.2c1.4-0.1,2.8,0.4,4.1-0.2l0.1-0.1c0,0,0,0,0,0C628.4,375.5,628.3,375.6,628.4,375.7z M630.6,404
			C630.6,404,630.6,404,630.6,404c-0.4-0.1-0.7,0-1.1,0.1c-1.3,0.2-2.7,0.7-4.1,0.5c0,0,0,0,0,0c0,0,0,0,0,0
			c-0.1-0.1-0.1-0.1-0.2-0.1c-1.2-0.4-2.2-1.1-3.2-1.9c0-0.1,0-0.2-0.2-0.3c0,0,0,0,0,0c-0.1-0.3-0.3-0.5-0.6-0.6
			c-0.1-0.1-0.1-0.2-0.2-0.2l-0.1-0.1c0,0,0,0,0,0l0,0c-0.1-0.2-0.3-0.4-0.4-0.6c-0.3-0.4-0.5-0.8-0.4-1.2v0
			c0.1-0.1,0.3-0.3,0.4-0.4c0,0,0,0,0,0c0,0,0,0,0,0c0.7-0.4,1.5-0.4,2.1-0.9c1,0.1,1.7-0.6,2.6-1l0,0c1.2-0.1,2.1-0.8,2.9-1.7
			c0.6,0.1,1.1-0.2,1.7-0.4c0.9-0.5,1.7-1.1,2.7-1.4c0.3-0.1,0.6-0.4,0.9-0.7c0,0,0,0,0,0c2.2-0.9,4.3-2,6.1-3.5
			c0.3,0,0.6-0.2,0.9-0.4c-0.1,0.6-0.1,1.2,0,1.8c0.1,0.6,0.1,1.2,0.1,1.8c0,0.9,0.1,1.8-0.2,2.6c0.2,0.7,0.2,1.4,0.2,2.1
			c-0.1,0-0.2,0-0.4-0.1l-0.1,0.1c0,0,0,0,0,0c0,0,0.1-0.1,0.1-0.1c-0.2-0.2-0.4-0.3-0.6-0.3c-0.4-0.4-0.9-0.5-1.5-0.5
			c-0.2,0-0.5,0-0.6,0.1c-0.6,0.4-1.1,0.8-1.4,1.5c-0.3,0.8-0.6,1.6-0.8,2.4c0,0,0,0,0,0c-0.5,0.5-0.9,1-1.3,1.6
			c-0.7,0.2-1.1,0.8-1.6,1.3C631.7,403.7,631.1,403.6,630.6,404z M657.8,371.5c0-0.1,0.1-0.1,0.1-0.1c1.4,0.7,2.7,1.4,3.4,2.8
			c0,0,0.1,0,0.1,0c0,0,0,0,0,0c0,0,0,0,0,0c-0.1,1.3,0.3,2.5,1.1,3.5c-0.1,0.1-0.2,0.1-0.2,0.2c-0.2,0.6-0.3,1.2,0.2,1.8
			c0.1,0,0.2,0,0.2,0c0,0,0,0,0,0c0,0.2,0,0.4,0,0.5c0.4,1.5,0.3,3,0.5,4.5c0.1,1.4,0.3,2.7,0.4,4.1c0,0.5,0,0.9,0,1.4
			c0,0.3,0,0.5,0,0.8c-0.1,0.1-0.2,0.1-0.2,0.2c-0.2,1.2,0,2.4,0.3,3.5c0,0,0,0,0.1,0.1c-0.4,0.6-0.5,1.3-0.4,2c0,0,0,0.1,0.1,0.1
			c-0.1,0-0.1,0.1-0.1,0.1c0,0,0,0,0,0c-0.1,0.1-0.3,0.2-0.4,0.3c-0.1,0.1-0.2,0.2-0.2,0.3c0,0,0,0,0,0c-1.7,0-2.5,1.2-3,2.5
			c0,0,0,0.1,0,0.2c-0.4,0.3-0.9,0.5-1.3,0.8c-0.4,0.2-0.7,0.5-0.8,0.9c-0.1,0.2-0.2,0.4,0,0.6c0.3,0.4,0.4,0.9,0.4,1.4
			c0,0.4,0.2,0.7,0.5,0.9c0.1,0.1,0.2,0.2,0.3,0.3c0.1,0.5,0.4,0.9,0.8,1.2c0.3,0.5,0.6,0.9,0.9,1.4c0,0.1,0,0.2,0,0.3
			c0,0.1-0.1,0.1,0,0.2c-0.1,0.1-0.2,0.2-0.2,0.4c-0.3,0.5-0.6,0.9-0.9,1.4c0,0,0,0,0,0c-0.1,0.1-0.2,0.2-0.2,0.2c0,0,0,0,0,0
			c-0.3,0.1-0.5,0.3-0.6,0.6c-0.7,0.5-1.6,0.5-2.4,0.7c-0.5-0.1-0.9-0.2-1.3-0.6c-0.4-0.5-1-0.9-1.5-1.4c0,0,0,0,0,0
			c-0.2-0.3-0.4-0.5-0.6-0.8c-0.5-0.4-1-0.8-1.3-1.4c0-0.2,0-0.5-0.2-0.6c0,0,0,0,0,0c0-0.2-0.1-0.3-0.1-0.5c0-0.1-0.1-0.2-0.2-0.3
			c0-0.1,0-0.2-0.1-0.2c-0.3-0.9-0.3-1.9-0.8-2.8c0-0.1-0.1-0.3-0.2-0.3c0,0,0,0,0,0l0,0c0,0,0,0,0,0c0,0,0,0,0,0
			c-0.1-1.4-0.2-2.7-0.3-4.1c0-0.2-0.2-0.4-0.3-0.6c0-0.6,0.1-1.3,0-1.9c0,0,0,0,0,0c-0.1-0.9-0.4-1.9-0.3-2.8
			c0-0.2-0.1-0.3-0.2-0.5c0-0.1,0-0.2,0-0.3c0.1-0.8,0.4-1.6,0.3-2.5c0-0.2,0-0.4,0-0.5l0,0c0.3-0.3,0.3-0.7,0.3-1.1
			c0.4-0.7,0.4-1.3,0-2c0-0.2,0-0.3-0.1-0.5c0,0,0,0,0,0c0.4-0.9,0.3-1.9,0.5-2.8h0c0-0.1,0-0.2,0-0.3c0-0.1,0-0.2,0-0.3
			c0,0,0,0,0,0l0,0c0.1-0.1,0.1-0.2,0.2-0.3c0-0.3,0-0.5,0-0.8c0.3-0.6,0.6-1.3,0.5-2c0.1-0.2,0.2-0.4,0.3-0.6l0,0
			c0.2-0.1,0.3-0.3,0.3-0.6c0,0,0,0,0,0c0,0,0,0,0,0c0-0.1,0-0.2,0-0.3c0.7-0.4,0.9-1.1,1.4-1.7c0.3-0.4,0.5-0.8,0.8-1.1
			c0.2-0.3,0.4-0.5,0.4-0.9c0-0.9,0.5-1.4,1.1-1.9c0,0,0,0,0,0c0.4-0.3,0.8-0.5,1.2-0.8c0.1,0,0.1,0,0.2,0.1
			C656.6,371.5,657.2,371.7,657.8,371.5z M596.2,363.2C596.2,363.2,596.2,363.2,596.2,363.2c0.5,1,1.5,1.1,2.3,1.5
			c0.1,0,0.3,0,0.4,0c0.4,0.3,0.8,0.6,1.3,0.8c1,0.4,1.6,1.1,1.7,2.1c0.1,0.6,0.2,1.2,0.4,1.7c0,0,0,0,0,0c0.3,1.2,0.6,2.4,0.6,3.6
			c0,0,0,0,0,0c-0.2,0.8,0.3,1.5,0.3,2.3c0,0,0,0,0,0c0,0,0,0,0,0c0,0.2,0,0.4,0,0.6c0,0.1,0.1,0.1,0.2,0.2c0,0,0,0,0,0
			c-0.1-0.1-0.1-0.1-0.2-0.2c0,0.1,0,0.2,0,0.3c0.2,0.5,0.3,1.1,0.3,1.7c0,0.9,0,1.7,0,2.6c-0.1,0.6-0.2,1.2-0.3,1.7
			c-0.1,0.7-0.4,1.4-0.4,2.2c-0.1,0.3-0.3,0.6-0.4,0.9c-0.1,0.2-0.2,0.5-0.3,0.7c-0.1,1.5-0.8,2.7-1.7,3.9c0,0,0,0,0,0
			c-0.3,0.2-0.7,0.4-1,0.6c-0.1,0-0.2,0-0.3,0.1c-0.1,0-0.2,0-0.3,0c-0.3-0.1-0.7,0-0.9,0.1c-1.3,0.8-2.7,0.9-4.1,1.4
			c-0.7,0.2-1.1,0-1.5-0.6l0,0c0-1.4-0.1-2.7,0.2-4.1c0.1-0.3,0-0.7,0-1c-0.1-0.3-0.1-0.6,0-1c0.2-1.3,0.1-2.6,0.1-3.9
			c0-0.2-0.2-0.4-0.3-0.6c0,0,0,0,0,0c0-0.2,0-0.5,0-0.7c0-0.1,0-0.3,0-0.4c0-0.1,0-0.1,0-0.2c0-0.2-0.1-0.5-0.2-0.6
			c0-0.1-0.1-0.2-0.1-0.3c-0.3-0.4-0.5-0.8-0.9-1.1c0.4-0.4,0.4-1,0.4-1.6c0.1-3.2-0.2-6.5,0.3-9.7c0.1-0.4,0-0.9-0.3-1.3
			c-0.1-0.2-0.3-0.2-0.5-0.1c0,0,0-0.1,0-0.1l0,0c0.1-0.4,0.2-0.7,0.3-1.1c0.2-0.6,0.5-0.9,1.2-0.9
			C593.9,363.1,595.1,363.1,596.2,363.2z"/>
	</defs>
	<clipPath id="SVGID_2_">
		<use xlink:href="#SVGID_1_"  style="overflow:visible;"/>
	</clipPath>
	<g id="PEQUES.psd_1_" class="st7">
		<defs>
			<rect id="SVGID_3_" x="581.9" y="355.4" width="163.9" height="65.5"/>
		</defs>
		<clipPath id="SVGID_4_">
			<use xlink:href="#SVGID_3_"  style="overflow:visible;"/>
		</clipPath>
		<g style="clip-path:url(#SVGID_4_);">
			
				<image style="overflow:visible;" width="1318" height="527" id="PEQUES_1_" xlink:href="AA636053.png"  transform="matrix(0.1244 0 0 0.1244 581.9182 355.4192)">
			</image>
		</g>
	</g>
</g>
<path class="st8" d="M621,401.5C621,401.5,621,401.5,621,401.5C621,401.5,621,401.5,621,401.5c0.1,0.1,0.2,0.2,0.2,0.2
	c0-0.1,0-0.1-0.1-0.2C621.1,401.5,621.1,401.5,621,401.5z"/>
<polygon class="st8" points="619.4,377 619.4,377 619.4,377 619.4,377 "/>
<path class="st8" d="M702.7,398.6c0-0.1-0.1-0.2-0.2-0.2c0,0,0,0,0,0c0,0,0,0,0,0C702.6,398.5,702.7,398.6,702.7,398.6
	C702.7,398.6,702.7,398.6,702.7,398.6L702.7,398.6z"/>
<polygon class="st8" points="700.6,376.8 700.6,376.8 700.6,376.8 700.6,376.8 700.6,376.8 700.6,376.8 700.6,376.8 "/>
<path class="st6" d="M626.8,411.2L626.8,411.2c-0.8,0-1.4-0.6-1.4-1.4l0,0c0-0.8,0.6-1.4,1.4-1.4h0c0.8,0,1.4,0.6,1.4,1.4l0,0
	C628.2,410.5,627.6,411.2,626.8,411.2z"/>
<path class="st6" d="M708.6,406.9L708.6,406.9c-0.8,0-1.4-0.6-1.4-1.4l0,0c0-0.8,0.6-1.4,1.4-1.4l0,0c0.8,0,1.4,0.6,1.4,1.4l0,0
	C710,406.3,709.3,406.9,708.6,406.9z"/>
<line class="st4" x1="708.6" y1="406.3" x2="713.8" y2="439.3"/>
<line class="st4" x1="626.6" y1="410.4" x2="621" y2="444.8"/>
<g id="logo.psd_2_">
	<defs>
		<rect id="SVGID_5_" x="608.7" y="294.5" width="111.3" height="64.9"/>
	</defs>
	<clipPath id="SVGID_6_">
		<use xlink:href="#SVGID_5_"  style="overflow:visible;"/>
	</clipPath>
	<g style="opacity:0;clip-path:url(#SVGID_6_);">
		
			<image style="overflow:visible;" width="685" height="399" id="Layer_1_1_" xlink:href="AA636051.png"  transform="matrix(0.1625 0 0 0.1625 608.6542 294.48)">
		</image>
	</g>
	<g style="clip-path:url(#SVGID_6_);">
		
			<image style="overflow:visible;" width="684" height="398" id="Layer_0_x27_s_Drop_Shadow_1_" xlink:href="AA636057.png"  transform="matrix(0.1625 0 0 0.1625 608.6542 294.48)">
		</image>
	</g>
	<g style="clip-path:url(#SVGID_6_);">
		
			<image style="overflow:visible;" width="618" height="330" id="Layer_0_4_" xlink:href="AA636050.png"  transform="matrix(0.1625 0 0 0.1625 613.5306 298.3811)">
		</image>
	</g>
</g>
<g>
	<defs>
		<rect id="SVGID_7_" x="496" y="287" width="328" height="211"/>
	</defs>
	<clipPath id="SVGID_8_">
		<use xlink:href="#SVGID_7_"  style="overflow:visible;"/>
	</clipPath>
	<ellipse class="st9" cx="666" cy="346.9" rx="150" ry="141.4"/>
</g>
<path class="st4" d="M622.7,448.8"/>
<path class="st10" d="M706.6,463.6c-28.8-7.7-56.3-7.8-84.6-1.1c-1.2,0.3-2.4-0.5-2.6-1.8c-0.9-4.9-1.8-9.8-2.7-14.7
	c-0.2-1.3,0.6-2.8,1.8-3.3c29.3-12.4,58.9-17.2,89.8-14.3c3,0.4,3.2,2.3,3.1,4.7c-0.4,9-0.8,18.1-1.1,27.1
	C710.2,462.6,708.9,464.2,706.6,463.6z"/>
<g>
	<defs>
		<path id="SVGID_9_" d="M707.8,462.9c-28.8-7.7-57.6-8.1-85.9-1.4c-1.2,0.3-2.4-0.5-2.6-1.8c-0.9-4.9-1.8-9.8-2.7-14.7
			c-0.2-1.3,94.8-15.3,94.7-12.9c-0.4,9-0.8,18.1-1.1,27.1C710.1,461.5,709,463.2,707.8,462.9z"/>
	</defs>
	<clipPath id="SVGID_10_">
		<use xlink:href="#SVGID_9_"  style="overflow:visible;"/>
	</clipPath>
	<path class="st11" d="M709.4,459.3c-29.8-5.4-59.9-5.1-89.5,0.6c-1.2,0.2-2.4-0.4-2.7-1.4c-0.8-3.8-1.7-7.5-2.5-11.3
		c-0.2-1,0.6-2.2,1.9-2.6c30.8-10.1,62.7-14.4,94.8-12.8c1.4,0.1,2.3,1.7,2.2,3.5c-0.6,7-1.1,14-1.7,21
		C711.8,458.2,710.7,459.6,709.4,459.3z"/>
</g>
<path class="st12" d="M712.4,457.7c-32.6-5.2-64.4-4.5-96.8,1.5c-1.4,0.3-2.7-0.3-2.9-1.3c-0.9-3.8-1.8-7.5-2.7-11.3
	c-0.2-1,0.7-2.2,2.1-2.6c33.8-10.4,67.3-14.9,102.5-13.4c2.7,0,4,1.6,3.8,3.5c-0.7,7-1.3,14-2,21
	C716.1,457.2,715.3,458.1,712.4,457.7z"/>
<path class="st13" d="M611.4,452.4c0.2,0.8,1,3.9,1.2,4.7c0.2,0.9,1.5,1.5,2.9,1.3c32.5-5.6,64.2-6.3,96.8-1.4c3,0.4,3.8-0.5,4-2.6
	c0.3-2.9,0.6-6.6,0.9-9.5C673.7,438,624.1,446.9,611.4,452.4z"/>
<g>
	<path class="st14" d="M617,452.2c-0.9,0-1.6-0.7-1.7-1.6c-0.1-0.9,0.6-1.8,1.6-1.8l0.1,0c0.9,0,1.6,0.7,1.7,1.6
		c0.1,0.9-0.6,1.8-1.6,1.8L617,452.2z"/>
	<path class="st12" d="M617,449c0.8,0,1.4,0.6,1.4,1.4c0.1,0.8-0.5,1.5-1.3,1.6c0,0-0.1,0-0.1,0c-0.8,0-1.4-0.6-1.4-1.4
		c-0.1-0.8,0.5-1.5,1.3-1.6C616.9,449,617,449,617,449 M617,448.6c0,0-0.1,0-0.1,0c-1.1,0.1-1.9,1-1.8,2.1c0.1,1,0.9,1.8,1.9,1.8
		c0,0,0.1,0,0.1,0c1.1-0.1,1.9-1,1.8-2.1C618.9,449.4,618,448.6,617,448.6L617,448.6z"/>
</g>
<g>
	<path class="st14" d="M709.9,446.7c-0.9,0-1.6-0.7-1.7-1.6c-0.1-0.9,0.6-1.8,1.6-1.8l0.1,0c0.9,0,1.6,0.7,1.7,1.6
		c0.1,0.9-0.6,1.8-1.6,1.8L709.9,446.7z"/>
	<path class="st12" d="M709.9,443.5c0.8,0,1.4,0.6,1.4,1.4c0.1,0.8-0.5,1.5-1.3,1.6c0,0-0.1,0-0.1,0c-0.8,0-1.4-0.6-1.4-1.4
		c-0.1-0.8,0.5-1.5,1.3-1.6C709.8,443.5,709.9,443.5,709.9,443.5 M709.9,443c0,0-0.1,0-0.1,0c-1.1,0.1-1.9,1-1.8,2.1
		c0.1,1,0.9,1.8,1.9,1.8c0,0,0.1,0,0.1,0c1.1-0.1,1.9-1,1.8-2.1C711.8,443.8,710.9,443,709.9,443L709.9,443z"/>
</g>
<linearGradient id="SVGID_11_" gradientUnits="userSpaceOnUse" x1="656.8829" y1="426.3849" x2="656.8829" y2="445.4237" gradientTransform="matrix(1.0153 -6.150081e-02 6.046127e-02 0.9982 -27.7914 41.5104)">
	<stop  offset="2.445190e-02" style="stop-color:#FFFFFF"/>
	<stop  offset="0.6556" style="stop-color:#FFFFFF;stop-opacity:0"/>
</linearGradient>
<path class="st15" d="M711.4,459.6c-30.2-5.6-60.6-5.7-90.7-0.3c-1.3,0.2-2.5-0.4-2.7-1.4c-0.8-3.8-1.6-7.5-2.4-11.3
	c-0.2-1,0.7-2.2,2-2.6c31.3-9.8,63.7-13.8,96.2-11.8c2.2,0,2.3,1.7,2.2,3.5c-0.6,7-1.3,13.9-1.9,20.9
	C713.8,458.5,712.7,459.8,711.4,459.6z"/>
<path class="st16" d="M636.9,451.3c0,0,0,0.1,0,0.1c0,0,0,0.1,0,0.1c0,0,0,0.1,0,0.2c0,0.1,0.1,0.2,0.1,0.4c0.2,0.8,0.4,1.3,0.4,1.3
	c0,0.1,0,0.3-0.2,0.4c-0.1,0.1-0.3,0.2-0.5,0.2c-0.4,0.1-0.6,0-0.8-0.3c0,0-0.1-0.2-0.2-0.7c-0.5,0.3-0.9,0.5-1.3,0.6
	c-0.9,0.2-1.7,0-2.5-0.5c-0.8-0.5-1.3-1.1-1.4-2c-0.1-0.7,0-1.4,0.3-2.1c0.3-0.7,0.8-1.2,1.5-1.5c0.2-0.1,0.4-0.2,0.6-0.2
	c0.5-0.1,1.1,0,1.8,0.4c0-0.5-0.1-2.7-0.3-6.5c0-0.2,0-0.4,0-0.8c0-0.2,0.2-0.3,0.6-0.4c0.6-0.1,1,0,1,0.2c0,0,0,0,0,0.1
	c-0.4,2.9-0.3,5.4,0,7.4c0.2,0.9,0.4,2,0.7,3.2C636.8,451.1,636.9,451.2,636.9,451.3z M633.2,448.1c-0.6,0.1-1.1,0.4-1.4,1
	c-0.3,0.6-0.4,1.1-0.3,1.7c0.1,0.7,0.5,1.1,1.1,1.4c0.5,0.3,1.1,0.3,1.8,0.2c0.4-0.1,0.8-0.2,1.1-0.4c-0.1-0.4-0.2-0.9-0.3-1.3
	c-0.1-0.4-0.2-0.8-0.2-1.3c0-0.1,0-0.3-0.1-0.4c0-0.1,0-0.3-0.1-0.4C634.2,448.2,633.7,448,633.2,448.1z"/>
<path class="st16" d="M639.2,451.5c0.5,0.5,1,0.7,1.6,0.6c0.4-0.1,0.7-0.2,1-0.5c0.2-0.2,0.4-0.5,0.7-1c0.1-0.1,0.1-0.2,0.2-0.2
	c0.1,0,0.2,0,0.4,0.2c0.1,0.1,0.2,0.3,0.2,0.5c0,0.1,0,0.3-0.1,0.4c-0.2,0.4-0.5,0.7-0.9,0.9c-0.4,0.2-0.9,0.4-1.3,0.5
	c-1,0.1-1.8-0.1-2.4-0.7c-0.6-0.6-1-1.3-1.2-2.3c-0.2-1,0-2,0.5-3c0.6-1.1,1.4-1.7,2.4-1.8c0.5-0.1,0.9,0,1.3,0.3
	c0.3,0.2,0.5,0.6,0.6,1.1c0.1,0.8-0.1,1.5-0.7,2.2c-0.6,0.7-1.3,1.1-2.1,1.2c-0.2,0-0.5,0-0.8,0c0,0.1,0.1,0.3,0.1,0.4
	c0.1,0.1,0.1,0.3,0.2,0.5C638.8,451.1,639,451.3,639.2,451.5z M641.2,446.6c0-0.2-0.1-0.4-0.3-0.5c-0.2-0.1-0.4-0.2-0.6-0.2
	c-0.3,0-0.7,0.3-1.1,0.8c-0.7,0.8-1,1.7-1,2.6c0.3,0.1,0.6,0.2,0.8,0.2c0.6-0.1,1.1-0.4,1.5-1.1
	C641.1,447.7,641.3,447.1,641.2,446.6z"/>
<path class="st16" d="M650.4,450.9c0,0.3,0,0.6-0.2,0.8c-0.2,0.2-0.4,0.4-0.7,0.4c-0.3,0-0.6,0-0.8-0.2c-0.2-0.2-0.4-0.4-0.4-0.7
	c-0.2-1.3-0.4-2.7-0.5-4.2c-0.1-1.4-0.2-3.6-0.3-6.7c-0.5,0.4-1.1,0.9-2,1.5c-0.1,0.1-0.2,0.2-0.3,0.2c-0.2,0-0.4,0-0.5-0.1
	s-0.3-0.3-0.3-0.5c0-0.2,0.1-0.4,0.3-0.6c0.1-0.1,0.3-0.3,0.5-0.4c0.2-0.2,0.4-0.4,0.7-0.6c0.2-0.2,0.4-0.4,0.7-0.7
	c0.3-0.3,0.6-0.6,1-1c0.2-0.2,0.5-0.4,0.7-0.4c0.4-0.1,0.7,0.2,0.8,0.8c0.1,0.7,0.2,1.6,0.3,2.6c0.1,1,0.2,2.3,0.3,3.6
	C650,447.5,650.2,449.6,650.4,450.9z"/>
<path class="st16" d="M653.9,448.4c-0.1-0.7,0.2-1.4,0.8-2.1c0.6-0.7,1.4-1.1,2.2-1.1c0.1,0,0.1,0,0.2,0c0,0,0.1,0,0.2,0
	c0-0.1,0-0.2,0-0.3c0-0.2,0-0.5,0-1c0-0.4,0-0.7,0-0.9c0-0.2-0.1-0.5-0.2-0.8c-0.2-0.3-0.4-0.5-0.6-0.5c-0.3,0-0.6,0.2-1,0.7
	c-0.1,0.2-0.3,0.3-0.4,0.5c-0.1,0.2-0.3,0.3-0.4,0.5c-0.1,0.1-0.2,0.2-0.3,0.2c-0.1,0-0.2,0-0.3-0.1c-0.1-0.1-0.2-0.2-0.2-0.3
	c0-0.1,0-0.2,0.1-0.3c0.3-0.4,0.7-0.8,1.2-1.1c0.6-0.4,1.1-0.6,1.5-0.6c0.5,0,0.9,0.2,1.2,0.6c0.3,0.4,0.4,0.9,0.5,1.5
	c0,0.1,0,0.2,0,0.3c0,0.1,0,0.3,0,0.4c0,0.2,0,0.3,0,0.4c0,0.1,0,0.2,0,0.3c0,0.3,0.1,0.6,0.1,1c0.1,0.4,0.1,0.9,0.2,1.4
	c0.1,0.5,0.2,1,0.2,1.4c0.1,0.4,0.1,0.7,0.1,1c0,0.4-0.2,0.7-0.6,0.7c-0.3,0-0.5-0.1-0.7-0.3c-0.5,0.2-0.9,0.3-1.3,0.3
	c-0.7,0.1-1.3,0-1.7-0.3C654.3,449.4,654,449,653.9,448.4z M655,448.2c0.1,0.6,0.4,0.9,1,0.8c0.4,0,1-0.2,1.6-0.6c0,0,0-0.3-0.1-0.7
	c-0.1-0.4,0-1.5-0.2-1.8c-0.1-0.1-0.4-0.1-0.6-0.1c-0.5,0-1,0.4-1.3,0.9C655.2,447.2,655,447.7,655,448.2z"/>
<path class="st16" d="M671.4,444.5c0.3,0.4,0.4,0.8,0.5,1.2c0,0.1,0,0.3,0,0.6c-0.1,1.4-0.7,2.5-1.7,3.4c-0.5,0.5-1.1,0.7-1.9,0.8
	c-0.8,0.1-1.7,0-2.5-0.3c-0.8-0.3-1.4-0.9-1.8-1.6c-0.1-0.1-0.1-0.2-0.1-0.4c0-0.2,0-0.5,0.2-0.7c0.2-0.2,0.4-0.3,0.7-0.4
	c0.4-0.1,0.7,0.1,0.9,0.5c0.6,0.9,1.3,1.2,2.3,1.1c0.6-0.1,1.1-0.4,1.6-1c0.4-0.6,0.6-1.2,0.6-1.8c0-0.3-0.2-0.6-0.4-1
	c-0.5-0.7-1.2-1.3-2.1-1.5c-0.8-0.2-1.7-0.3-2.7-0.1c-0.2,0-0.5,0.1-0.9,0.3c-0.2,0.1-0.4,0.1-0.5,0.1c-0.1,0-0.3,0.1-0.3,0.1
	c-0.2,0-0.4-0.2-0.5-0.3c-0.1-0.1-0.2-0.2-0.3-0.4c-0.1-0.3-0.1-1.1,0-2.3c0-0.6,0-1.1,0-1.6c0-0.4,0-0.8,0-1
	c-0.2-0.2-0.3-0.4-0.4-0.6c-0.1-0.5,0.2-0.9,0.7-0.9c0.3-0.1,0.5-0.1,0.8-0.1c4.3-0.7,7.7-0.8,10.2-0.5c0.5,0.1,0.8,0.4,0.8,1
	c0.1,0.5-0.1,0.7-0.4,0.7c-0.1,0-0.2,0-0.3,0c-2.5-0.4-5.2-0.4-8.1,0c-0.1,0-0.3,0-0.7,0.1c-0.3,0.1-0.8,0.1-1.4,0.2
	c0,0.1,0,0.1,0,0.2c0.1,0.6,0.1,1.3,0.1,2.1c0,0.4,0,0.8,0,1.1c0,0.4,0,0.8,0,1.1c0.3-0.1,0.5-0.1,0.7-0.2c0.2-0.1,0.4-0.1,0.6-0.1
	c1.3-0.2,2.5-0.1,3.7,0.2C669.9,442.9,670.8,443.6,671.4,444.5z"/>
<path class="st16" d="M674.9,446.8c0-0.8,0.4-1.5,1.1-2.2c0.7-0.7,1.6-1,2.5-1c0.1,0,0.1,0,0.2,0c0,0,0.1,0,0.2,0c0-0.1,0-0.2,0-0.3
	c0-0.2,0-0.6,0.1-1c0.1-0.4,0.1-0.8,0.1-1c0-0.2,0-0.5-0.2-0.8c-0.1-0.4-0.3-0.6-0.6-0.6c-0.3,0-0.6,0.2-1.1,0.6
	c-0.2,0.2-0.3,0.3-0.5,0.5c-0.2,0.2-0.3,0.3-0.5,0.5c-0.1,0.1-0.2,0.2-0.4,0.2c-0.1,0-0.3-0.1-0.4-0.2c-0.1-0.1-0.2-0.2-0.2-0.4
	c0-0.1,0.1-0.2,0.2-0.3c0.4-0.4,0.9-0.8,1.4-1.1c0.6-0.4,1.2-0.5,1.7-0.5c0.5,0,1,0.3,1.3,0.8c0.2,0.4,0.4,1,0.3,1.6
	c0,0.1,0,0.2,0,0.3c0,0.1,0,0.3,0,0.5c0,0.2,0,0.3,0,0.5c0,0.1,0,0.2,0,0.3c0,0.3,0,0.7,0,1.1c0,0.4,0,0.9,0.1,1.5
	c0,0.6,0.1,1.1,0.1,1.5c0,0.4,0,0.8,0,1.1c0,0.5-0.3,0.7-0.7,0.7c-0.3,0-0.5-0.1-0.7-0.4c-0.5,0.1-1,0.2-1.4,0.2
	c-0.7,0-1.4-0.1-1.8-0.5C675.2,448,674.9,447.5,674.9,446.8z M676.1,446.7c0,0.6,0.3,1,1,0.9c0.5,0,1-0.2,1.8-0.5c0,0,0-0.3,0-0.7
	c0-0.4,0.1-1.6-0.1-2c-0.1-0.1-0.4-0.2-0.6-0.2c-0.6,0-1.1,0.3-1.5,0.8C676.4,445.7,676.1,446.2,676.1,446.7z"/>
<path class="st16" d="M688.2,436.6c0,0,0.1,0,0.2,0c0.2,0,0.4,0.1,0.5,0.2s0.2,0.3,0.2,0.5c0,0.3-0.2,0.6-0.6,0.6
	c-2.4,0.5-4.2,0.7-5.4,0.7c-0.3,0-0.5,0-0.7,0c-0.2,0-0.3,0-0.3,0c-0.4-0.1-0.6-0.3-0.6-0.6c0-0.4,0.2-0.6,0.7-0.6c0,0,0.1,0,0.2,0
	c0.1,0,0.1,0,0.2,0c0.1,0,0.2,0,0.4,0c0.7,0,1.6-0.1,2.6-0.3C686.7,436.9,687.2,436.8,688.2,436.6z M685.7,440.4
	c0.5,0,1,0.3,1.4,0.7c0.3,0.4,0.6,0.9,0.6,1.5c0.1,0.6,0.1,1.1,0.1,1.6c0,0.5,0,0.9,0,1.2c-0.1,1.1-0.3,2.2-0.7,3.2
	c-0.2,0.4-0.4,0.5-0.8,0.5c-0.2,0-0.4-0.1-0.6-0.2c-0.2-0.2-0.2-0.3-0.2-0.6c0-0.1,0-0.2,0.1-0.3c0.5-1.5,0.8-2.8,0.9-3.7
	c0-0.2,0-0.5,0-0.8c0-0.3,0-0.6-0.1-0.9c0,0,0-0.1,0-0.1c0-0.1,0-0.1,0-0.2c-0.1-0.6-0.3-0.9-0.6-1c-0.6,0-1.2,0.3-1.7,0.8
	c-0.5,0.4-0.9,1-1.1,1.6c-0.2,0.4-0.3,0.7-0.3,0.8c0,0.2,0,0.5,0,0.8c0,0.3,0.1,0.7,0.1,1.1c0,0.4,0.1,0.8,0.1,1.1
	c0,0.3,0,0.6,0,0.8c0,0.4-0.2,0.5-0.6,0.5c-0.3,0-0.4-0.2-0.5-0.5c0,0,0-0.1-0.1-0.3c0-0.1,0-0.3-0.1-0.5c0-0.3-0.1-0.6-0.1-0.9
	c0-0.3,0-0.7,0-1.1c0-0.2,0-0.5,0-0.9c0-0.4,0.1-0.8,0.1-1.3c0-0.5,0.1-0.9,0.1-1.3c0-0.4,0-0.7,0-0.9c0-0.1,0-0.1,0-0.2
	c0-0.1,0-0.2,0-0.3c0-0.2,0-0.3,0-0.6c0-0.3,0.2-0.4,0.5-0.4c0.3,0,0.4,0.1,0.4,0.4c0,0.1,0,0.4,0,0.8c0,0.4,0,1,0,1.7
	C683.7,441.2,684.7,440.4,685.7,440.4z"/>
<path class="st16" d="M688.7,444.7c0.1-1,0.4-1.9,1-2.7c0.7-0.9,1.5-1.3,2.5-1.2c0.5,0,0.9,0.1,1.2,0.3c0.7,0.4,1.3,0.9,1.7,1.7
	c0.3,0.7,0.5,1.5,0.4,2.3c-0.1,1-0.4,1.8-1,2.4c-0.6,0.6-1.4,0.8-2.4,0.7c-1-0.1-1.8-0.4-2.5-1.1
	C688.9,446.5,688.6,445.7,688.7,444.7z M691.9,446.7c1.3,0.1,2-0.5,2.1-1.8c0-0.6,0-1.2-0.3-1.8c-0.3-0.8-0.7-1.3-1.2-1.4
	c-0.1,0-0.1,0-0.2,0c0,0-0.1,0-0.1,0c-0.8-0.1-1.4,0.3-1.8,1c-0.3,0.5-0.5,1.2-0.5,1.9c0,0.2,0,0.2,0,0.4
	C690,446.1,690.6,446.6,691.9,446.7z"/>
<path class="st16" d="M697,443c0.1,0.5,0.3,1,0.7,1.5c0.2,0.3,0.6,0.6,1.2,1.2c0.5,0.4,0.8,0.8,1,1c0.3,0.4,0.4,0.7,0.3,1.1
	c-0.1,0.8-0.5,1.5-1.3,1.9c-0.7,0.4-1.5,0.6-2.4,0.5c-0.8-0.1-1.2-0.4-1.1-0.9c0-0.5,0.3-0.7,0.8-0.7c0.1,0,0.2,0,0.3,0
	c0.1,0,0.2,0,0.3,0c0.5,0,0.9,0,1.3-0.2c0.5-0.2,0.8-0.6,0.8-1.1c0-0.5-0.3-1.1-1.1-1.8c-0.8-0.7-1.3-1.1-1.5-1.4
	c-0.5-0.6-0.7-1.2-0.7-1.9c0.1-0.7,0.4-1.4,1.1-1.9c0.7-0.5,1.4-0.7,2.1-0.7c0.6,0.1,1.3,0.3,1.9,0.8c0.6,0.5,1,1,1.2,1.7
	c0,0.1,0,0.1,0,0.2c0,0.1,0,0.2-0.1,0.3c-0.1,0.1-0.1,0.2-0.2,0.2c-0.1,0.1-0.2,0.1-0.3,0.2c-0.1,0-0.2,0.1-0.3,0
	c-0.1,0-0.2-0.1-0.3-0.2c-0.3-1.1-1-1.8-1.8-1.8c-0.4,0-0.8,0.1-1.2,0.3c-0.4,0.3-0.6,0.6-0.7,1C697,442.8,697,442.9,697,443z"/>
<path class="st16" d="M636.4,450.9c0,0,0,0.1,0,0.1c0,0,0,0.1,0,0.1c0,0,0,0.1,0,0.2c0,0.1,0.1,0.2,0.1,0.4c0.2,0.8,0.4,1.3,0.4,1.3
	c0,0.1,0,0.3-0.2,0.4c-0.1,0.1-0.3,0.2-0.5,0.2c-0.4,0.1-0.6,0-0.8-0.3c0,0-0.1-0.2-0.2-0.7c-0.5,0.3-0.9,0.5-1.3,0.6
	c-0.9,0.2-1.7,0-2.5-0.5c-0.8-0.5-1.3-1.1-1.4-2c-0.1-0.7,0-1.4,0.3-2.1c0.3-0.7,0.8-1.2,1.5-1.5c0.2-0.1,0.4-0.2,0.6-0.2
	c0.5-0.1,1.1,0,1.8,0.4c0-0.5-0.1-2.7-0.3-6.5c0-0.2,0-0.4,0-0.8c0-0.2,0.2-0.3,0.6-0.4c0.6-0.1,1,0,1,0.2c0,0,0,0,0,0.1
	c-0.4,2.9-0.3,5.4,0,7.4c0.2,0.9,0.4,2,0.7,3.2C636.3,450.6,636.4,450.7,636.4,450.9z M632.7,447.6c-0.6,0.1-1.1,0.4-1.4,1
	c-0.3,0.6-0.4,1.1-0.3,1.7c0.1,0.7,0.5,1.1,1.1,1.4c0.5,0.3,1.1,0.3,1.8,0.2c0.4-0.1,0.8-0.2,1.1-0.4c-0.1-0.4-0.2-0.9-0.3-1.3
	c-0.1-0.4-0.2-0.8-0.2-1.3c0-0.1,0-0.3-0.1-0.4c0-0.1,0-0.3-0.1-0.4C633.8,447.7,633.2,447.5,632.7,447.6z"/>
<path class="st16" d="M638.7,451c0.5,0.5,1,0.7,1.6,0.6c0.4-0.1,0.7-0.2,1-0.5c0.2-0.2,0.4-0.5,0.7-1c0.1-0.1,0.1-0.2,0.2-0.2
	c0.1,0,0.2,0,0.4,0.2c0.1,0.1,0.2,0.3,0.2,0.5c0,0.1,0,0.3-0.1,0.4c-0.2,0.4-0.5,0.7-0.9,0.9c-0.4,0.2-0.9,0.4-1.3,0.5
	c-1,0.1-1.8-0.1-2.4-0.7c-0.6-0.6-1-1.3-1.2-2.3c-0.2-1,0-2,0.5-3c0.6-1.1,1.4-1.7,2.4-1.8c0.5-0.1,0.9,0,1.3,0.3
	c0.3,0.2,0.5,0.6,0.6,1.1c0.1,0.8-0.1,1.5-0.7,2.2c-0.6,0.7-1.3,1.1-2.1,1.2c-0.2,0-0.5,0-0.8,0c0,0.1,0.1,0.3,0.1,0.4
	c0.1,0.1,0.1,0.3,0.2,0.5C638.4,450.6,638.5,450.8,638.7,451z M640.8,446.1c0-0.2-0.1-0.4-0.3-0.5s-0.4-0.2-0.6-0.2
	c-0.3,0-0.7,0.3-1.1,0.8c-0.7,0.8-1,1.7-1,2.6c0.3,0.1,0.6,0.2,0.8,0.2c0.6-0.1,1.1-0.4,1.5-1.1
	C640.6,447.3,640.8,446.7,640.8,446.1z"/>
<path class="st16" d="M650,450.5c0,0.3,0,0.6-0.2,0.8c-0.2,0.2-0.4,0.4-0.7,0.4c-0.3,0-0.6,0-0.8-0.2c-0.2-0.2-0.4-0.4-0.4-0.7
	c-0.2-1.3-0.4-2.7-0.5-4.2c-0.1-1.4-0.2-3.6-0.3-6.7c-0.5,0.4-1.1,0.9-2,1.5c-0.1,0.1-0.2,0.2-0.3,0.2c-0.2,0-0.4,0-0.5-0.1
	c-0.2-0.1-0.3-0.3-0.3-0.5c0-0.2,0.1-0.4,0.3-0.6c0.1-0.1,0.3-0.3,0.5-0.4c0.2-0.2,0.4-0.4,0.7-0.6c0.2-0.2,0.4-0.4,0.7-0.7
	c0.3-0.3,0.6-0.6,1-1c0.2-0.2,0.5-0.4,0.7-0.4c0.4-0.1,0.7,0.2,0.8,0.8c0.1,0.7,0.2,1.6,0.3,2.6c0.1,1,0.2,2.3,0.3,3.6
	C649.5,447,649.8,449.1,650,450.5z"/>
<path class="st16" d="M653.4,447.9c-0.1-0.7,0.2-1.4,0.8-2.1c0.6-0.7,1.4-1.1,2.2-1.1c0.1,0,0.1,0,0.2,0c0,0,0.1,0,0.2,0
	c0-0.1,0-0.2,0-0.3c0-0.2,0-0.5,0-1c0-0.4,0-0.7,0-0.9c0-0.2-0.1-0.5-0.2-0.8c-0.2-0.3-0.4-0.5-0.6-0.5c-0.3,0-0.6,0.2-1,0.7
	c-0.1,0.2-0.3,0.3-0.4,0.5c-0.1,0.2-0.3,0.3-0.4,0.5c-0.1,0.1-0.2,0.2-0.3,0.2c-0.1,0-0.2,0-0.3-0.1c-0.1-0.1-0.2-0.2-0.2-0.3
	c0-0.1,0-0.2,0.1-0.3c0.3-0.4,0.7-0.8,1.2-1.1c0.6-0.4,1.1-0.6,1.5-0.6c0.5,0,0.9,0.2,1.2,0.6c0.3,0.4,0.4,0.9,0.5,1.5
	c0,0.1,0,0.2,0,0.3c0,0.1,0,0.3,0,0.4c0,0.2,0,0.3,0,0.4c0,0.1,0,0.2,0,0.3c0,0.3,0.1,0.6,0.1,1c0.1,0.4,0.1,0.9,0.2,1.4
	c0.1,0.5,0.2,1,0.2,1.4c0.1,0.4,0.1,0.7,0.1,1c0,0.4-0.2,0.7-0.6,0.7c-0.3,0-0.5-0.1-0.7-0.3c-0.5,0.2-0.9,0.3-1.3,0.3
	c-0.7,0.1-1.3,0-1.7-0.3C653.8,449,653.5,448.5,653.4,447.9z M654.6,447.7c0.1,0.6,0.4,0.9,1,0.8c0.4,0,1-0.2,1.6-0.6
	c0,0,0-0.3-0.1-0.7c-0.1-0.4,0-1.5-0.2-1.8c-0.1-0.1-0.4-0.1-0.6-0.1c-0.5,0-1,0.4-1.3,0.9C654.7,446.7,654.5,447.2,654.6,447.7z"/>
<path class="st16" d="M670.9,444.1c0.3,0.4,0.4,0.8,0.5,1.2c0,0.1,0,0.3,0,0.6c-0.1,1.4-0.7,2.5-1.7,3.4c-0.5,0.5-1.1,0.7-1.9,0.8
	c-0.8,0.1-1.7,0-2.5-0.3c-0.8-0.3-1.4-0.9-1.8-1.6c-0.1-0.1-0.1-0.2-0.1-0.4c0-0.2,0-0.5,0.2-0.7c0.2-0.2,0.4-0.3,0.7-0.4
	c0.4-0.1,0.7,0.1,0.9,0.5c0.6,0.9,1.3,1.2,2.3,1.1c0.6-0.1,1.1-0.4,1.6-1c0.4-0.6,0.6-1.2,0.6-1.8c0-0.3-0.2-0.6-0.4-1
	c-0.5-0.7-1.2-1.3-2.1-1.5c-0.8-0.2-1.7-0.3-2.7-0.1c-0.2,0-0.5,0.1-0.9,0.3c-0.2,0.1-0.4,0.1-0.5,0.1c-0.1,0-0.3,0.1-0.3,0.1
	c-0.2,0-0.4-0.2-0.5-0.3c-0.1-0.1-0.2-0.2-0.3-0.4c-0.1-0.3-0.1-1.1,0-2.3c0-0.6,0-1.1,0-1.6c0-0.4,0-0.8,0-1
	c-0.2-0.2-0.3-0.4-0.4-0.6c-0.1-0.5,0.2-0.9,0.7-0.9c0.3-0.1,0.5-0.1,0.8-0.1c4.3-0.7,7.7-0.8,10.2-0.5c0.5,0.1,0.8,0.4,0.8,1
	c0.1,0.5-0.1,0.7-0.4,0.7c-0.1,0-0.2,0-0.3,0c-2.5-0.4-5.2-0.4-8.1,0c-0.1,0-0.3,0-0.7,0.1c-0.3,0.1-0.8,0.1-1.4,0.2
	c0,0.1,0,0.1,0,0.2c0.1,0.6,0.1,1.3,0.1,2.1c0,0.4,0,0.8,0,1.1s0,0.8,0,1.1c0.3-0.1,0.5-0.1,0.7-0.2c0.2-0.1,0.4-0.1,0.6-0.1
	c1.3-0.2,2.5-0.1,3.7,0.2C669.4,442.5,670.4,443.1,670.9,444.1z"/>
<path class="st16" d="M674.4,446.3c0-0.8,0.4-1.5,1.1-2.2c0.7-0.7,1.6-1,2.5-1c0.1,0,0.1,0,0.2,0c0,0,0.1,0,0.2,0c0-0.1,0-0.2,0-0.3
	c0-0.2,0-0.6,0.1-1c0.1-0.4,0.1-0.8,0.1-1c0-0.2,0-0.5-0.2-0.8c-0.1-0.4-0.3-0.6-0.6-0.6c-0.3,0-0.6,0.2-1.1,0.6
	c-0.2,0.2-0.3,0.3-0.5,0.5c-0.2,0.2-0.3,0.3-0.5,0.5c-0.1,0.1-0.2,0.2-0.4,0.2c-0.1,0-0.3-0.1-0.4-0.2c-0.1-0.1-0.2-0.2-0.2-0.4
	c0-0.1,0.1-0.2,0.2-0.3c0.4-0.4,0.9-0.8,1.4-1.1c0.6-0.4,1.2-0.5,1.7-0.5c0.5,0,1,0.3,1.3,0.8c0.2,0.4,0.4,1,0.3,1.6
	c0,0.1,0,0.2,0,0.3c0,0.1,0,0.3,0,0.5c0,0.2,0,0.3,0,0.5c0,0.1,0,0.2,0,0.3c0,0.3,0,0.7,0,1.1c0,0.4,0,0.9,0.1,1.5
	c0,0.6,0.1,1.1,0.1,1.5c0,0.4,0,0.8,0,1.1c0,0.5-0.3,0.7-0.7,0.7c-0.3,0-0.5-0.1-0.7-0.4c-0.5,0.1-1,0.2-1.4,0.2
	c-0.7,0-1.4-0.1-1.8-0.5C674.7,447.5,674.5,447,674.4,446.3z M675.7,446.2c0,0.6,0.3,1,1,0.9c0.5,0,1-0.2,1.8-0.5c0,0,0-0.3,0-0.7
	c0-0.4,0.1-1.6-0.1-2c-0.1-0.1-0.4-0.2-0.6-0.2c-0.6,0-1.1,0.3-1.5,0.8C675.9,445.2,675.7,445.7,675.7,446.2z"/>
<path class="st16" d="M687.8,436.1c0,0,0.1,0,0.2,0c0.2,0,0.4,0.1,0.5,0.2c0.1,0.1,0.2,0.3,0.2,0.5c0,0.3-0.2,0.6-0.6,0.6
	c-2.4,0.5-4.2,0.7-5.4,0.7c-0.3,0-0.5,0-0.7,0c-0.2,0-0.3,0-0.3,0c-0.4-0.1-0.6-0.3-0.6-0.6c0-0.4,0.2-0.6,0.7-0.6c0,0,0.1,0,0.2,0
	c0.1,0,0.1,0,0.2,0c0.1,0,0.2,0,0.4,0c0.7,0,1.6-0.1,2.6-0.3C686.2,436.4,686.7,436.3,687.8,436.1z M685.3,439.9
	c0.5,0,1,0.3,1.4,0.7c0.3,0.4,0.6,0.9,0.6,1.5c0.1,0.6,0.1,1.1,0.1,1.6c0,0.5,0,0.9,0,1.2c-0.1,1.1-0.3,2.2-0.7,3.2
	c-0.2,0.4-0.4,0.5-0.8,0.5c-0.2,0-0.4-0.1-0.6-0.2c-0.2-0.2-0.2-0.3-0.2-0.6c0-0.1,0-0.2,0.1-0.3c0.5-1.5,0.8-2.8,0.9-3.7
	c0-0.2,0-0.5,0-0.8c0-0.3,0-0.6-0.1-0.9c0,0,0-0.1,0-0.1c0-0.1,0-0.1,0-0.2c-0.1-0.6-0.3-0.9-0.6-1c-0.6,0-1.2,0.3-1.7,0.8
	c-0.5,0.4-0.9,1-1.1,1.6c-0.2,0.4-0.3,0.7-0.3,0.8c0,0.2,0,0.5,0,0.8c0,0.3,0.1,0.7,0.1,1.1c0,0.4,0.1,0.8,0.1,1.1
	c0,0.3,0,0.6,0,0.8c0,0.4-0.2,0.5-0.6,0.5c-0.3,0-0.4-0.2-0.5-0.5c0,0,0-0.1-0.1-0.3c0-0.1,0-0.3-0.1-0.5c0-0.3-0.1-0.6-0.1-0.9
	c0-0.3,0-0.7,0-1.1c0-0.2,0-0.5,0-0.9c0-0.4,0.1-0.8,0.1-1.3c0-0.5,0.1-0.9,0.1-1.3c0-0.4,0-0.7,0-0.9c0-0.1,0-0.1,0-0.2
	c0-0.1,0-0.2,0-0.3c0-0.2,0-0.3,0-0.6c0-0.3,0.2-0.4,0.5-0.4c0.3,0,0.4,0.1,0.4,0.4c0,0.1,0,0.4,0,0.8s0,1,0,1.7
	C683.3,440.7,684.3,439.9,685.3,439.9z"/>
<path class="st16" d="M688.2,444.3c0.1-1,0.4-1.9,1-2.7c0.7-0.9,1.5-1.3,2.5-1.2c0.5,0,0.9,0.1,1.2,0.3c0.7,0.4,1.3,0.9,1.7,1.7
	c0.3,0.7,0.5,1.5,0.4,2.3c-0.1,1-0.4,1.8-1,2.4c-0.6,0.6-1.4,0.8-2.4,0.7c-1-0.1-1.8-0.4-2.5-1.1
	C688.5,446.1,688.2,445.2,688.2,444.3z M691.5,446.2c1.3,0.1,2-0.5,2.1-1.8c0-0.6,0-1.2-0.3-1.8c-0.3-0.8-0.7-1.3-1.2-1.4
	c-0.1,0-0.1,0-0.2,0c0,0-0.1,0-0.1,0c-0.8-0.1-1.4,0.3-1.8,1c-0.3,0.5-0.5,1.2-0.5,1.9c0,0.2,0,0.2,0,0.4
	C689.5,445.6,690.2,446.1,691.5,446.2z"/>
<path class="st16" d="M696.6,442.5c0.1,0.5,0.3,1,0.7,1.5c0.2,0.3,0.6,0.6,1.2,1.2c0.5,0.4,0.8,0.8,1,1c0.3,0.4,0.4,0.7,0.3,1.1
	c-0.1,0.8-0.5,1.5-1.3,1.9c-0.7,0.4-1.5,0.6-2.4,0.5c-0.8-0.1-1.2-0.4-1.1-0.9c0-0.5,0.3-0.7,0.8-0.7c0.1,0,0.2,0,0.3,0
	c0.1,0,0.2,0,0.3,0c0.5,0,0.9,0,1.3-0.2c0.5-0.2,0.8-0.6,0.8-1.1c0-0.5-0.3-1.1-1.1-1.8c-0.8-0.7-1.3-1.1-1.5-1.4
	c-0.5-0.6-0.7-1.2-0.7-1.9c0.1-0.7,0.4-1.4,1.1-1.9c0.7-0.5,1.4-0.7,2.1-0.7c0.6,0.1,1.3,0.3,1.9,0.8c0.6,0.5,1,1,1.2,1.7
	c0,0.1,0,0.1,0,0.2c0,0.1,0,0.2-0.1,0.3c-0.1,0.1-0.1,0.2-0.2,0.2c-0.1,0.1-0.2,0.1-0.3,0.2c-0.1,0-0.2,0.1-0.3,0
	c-0.1,0-0.2-0.1-0.3-0.2c-0.3-1.1-1-1.8-1.8-1.8c-0.4,0-0.8,0.1-1.2,0.3c-0.4,0.3-0.6,0.6-0.7,1
	C696.6,442.3,696.6,442.4,696.6,442.5z"/>
<path class="st14" d="M636.9,451.3c0,0,0,0.1,0,0.1c0,0,0,0.1,0,0.1c0,0,0,0.1,0,0.2c0,0.1,0.1,0.2,0.1,0.4c0.2,0.8,0.4,1.3,0.4,1.3
	c0,0.1,0,0.3-0.2,0.4c-0.1,0.1-0.3,0.2-0.5,0.2c-0.4,0.1-0.6,0-0.8-0.3c0,0-0.1-0.2-0.2-0.7c-0.5,0.3-0.9,0.5-1.3,0.6
	c-0.9,0.2-1.7,0-2.5-0.5c-0.8-0.5-1.3-1.1-1.4-2c-0.1-0.7,0-1.4,0.3-2.1c0.3-0.7,0.8-1.2,1.5-1.5c0.2-0.1,0.4-0.2,0.6-0.2
	c0.5-0.1,1.1,0,1.8,0.4c0-0.5-0.1-2.7-0.3-6.5c0-0.2,0-0.4,0-0.8c0-0.2,0.2-0.3,0.6-0.4c0.6-0.1,1,0,1,0.2c0,0,0,0,0,0.1
	c-0.4,2.9-0.3,5.4,0,7.4c0.2,0.9,0.4,2,0.7,3.2C636.8,451.1,636.9,451.2,636.9,451.3z M633.2,448.1c-0.6,0.1-1.1,0.4-1.4,1
	c-0.3,0.6-0.4,1.1-0.3,1.7c0.1,0.7,0.5,1.1,1.1,1.4c0.5,0.3,1.1,0.3,1.8,0.2c0.4-0.1,0.8-0.2,1.1-0.4c-0.1-0.4-0.2-0.9-0.3-1.3
	c-0.1-0.4-0.2-0.8-0.2-1.3c0-0.1,0-0.3-0.1-0.4c0-0.1,0-0.3-0.1-0.4C634.2,448.2,633.7,448,633.2,448.1z"/>
<path class="st14" d="M639.2,451.5c0.5,0.5,1,0.7,1.6,0.6c0.4-0.1,0.7-0.2,1-0.5c0.2-0.2,0.4-0.5,0.7-1c0.1-0.1,0.1-0.2,0.2-0.2
	c0.1,0,0.2,0,0.4,0.2c0.1,0.1,0.2,0.3,0.2,0.5c0,0.1,0,0.3-0.1,0.4c-0.2,0.4-0.5,0.7-0.9,0.9c-0.4,0.2-0.9,0.4-1.3,0.5
	c-1,0.1-1.8-0.1-2.4-0.7c-0.6-0.6-1-1.3-1.2-2.3c-0.2-1,0-2,0.5-3c0.6-1.1,1.4-1.7,2.4-1.8c0.5-0.1,0.9,0,1.3,0.3
	c0.3,0.2,0.5,0.6,0.6,1.1c0.1,0.8-0.1,1.5-0.7,2.2c-0.6,0.7-1.3,1.1-2.1,1.2c-0.2,0-0.5,0-0.8,0c0,0.1,0.1,0.3,0.1,0.4
	c0.1,0.1,0.1,0.3,0.2,0.5C638.8,451.1,639,451.3,639.2,451.5z M641.2,446.6c0-0.2-0.1-0.4-0.3-0.5c-0.2-0.1-0.4-0.2-0.6-0.2
	c-0.3,0-0.7,0.3-1.1,0.8c-0.7,0.8-1,1.7-1,2.6c0.3,0.1,0.6,0.2,0.8,0.2c0.6-0.1,1.1-0.4,1.5-1.1
	C641.1,447.7,641.3,447.1,641.2,446.6z"/>
<path class="st14" d="M650.4,450.9c0,0.3,0,0.6-0.2,0.8c-0.2,0.2-0.4,0.4-0.7,0.4c-0.3,0-0.6,0-0.8-0.2c-0.2-0.2-0.4-0.4-0.4-0.7
	c-0.2-1.3-0.4-2.7-0.5-4.2c-0.1-1.4-0.2-3.6-0.3-6.7c-0.5,0.4-1.1,0.9-2,1.5c-0.1,0.1-0.2,0.2-0.3,0.2c-0.2,0-0.4,0-0.5-0.1
	s-0.3-0.3-0.3-0.5c0-0.2,0.1-0.4,0.3-0.6c0.1-0.1,0.3-0.3,0.5-0.4c0.2-0.2,0.4-0.4,0.7-0.6c0.2-0.2,0.4-0.4,0.7-0.7
	c0.3-0.3,0.6-0.6,1-1c0.2-0.2,0.5-0.4,0.7-0.4c0.4-0.1,0.7,0.2,0.8,0.8c0.1,0.7,0.2,1.6,0.3,2.6c0.1,1,0.2,2.3,0.3,3.6
	C650,447.5,650.2,449.6,650.4,450.9z"/>
<path class="st14" d="M653.9,448.4c-0.1-0.7,0.2-1.4,0.8-2.1c0.6-0.7,1.4-1.1,2.2-1.1c0.1,0,0.1,0,0.2,0c0,0,0.1,0,0.2,0
	c0-0.1,0-0.2,0-0.3c0-0.2,0-0.5,0-1c0-0.4,0-0.7,0-0.9c0-0.2-0.1-0.5-0.2-0.8c-0.2-0.3-0.4-0.5-0.6-0.5c-0.3,0-0.6,0.2-1,0.7
	c-0.1,0.2-0.3,0.3-0.4,0.5c-0.1,0.2-0.3,0.3-0.4,0.5c-0.1,0.1-0.2,0.2-0.3,0.2c-0.1,0-0.2,0-0.3-0.1c-0.1-0.1-0.2-0.2-0.2-0.3
	c0-0.1,0-0.2,0.1-0.3c0.3-0.4,0.7-0.8,1.2-1.1c0.6-0.4,1.1-0.6,1.5-0.6c0.5,0,0.9,0.2,1.2,0.6c0.3,0.4,0.4,0.9,0.5,1.5
	c0,0.1,0,0.2,0,0.3c0,0.1,0,0.3,0,0.4c0,0.2,0,0.3,0,0.4c0,0.1,0,0.2,0,0.3c0,0.3,0.1,0.6,0.1,1c0.1,0.4,0.1,0.9,0.2,1.4
	c0.1,0.5,0.2,1,0.2,1.4c0.1,0.4,0.1,0.7,0.1,1c0,0.4-0.2,0.7-0.6,0.7c-0.3,0-0.5-0.1-0.7-0.3c-0.5,0.2-0.9,0.3-1.3,0.3
	c-0.7,0.1-1.3,0-1.7-0.3C654.3,449.4,654,449,653.9,448.4z M655,448.2c0.1,0.6,0.4,0.9,1,0.8c0.4,0,1-0.2,1.6-0.6c0,0,0-0.3-0.1-0.7
	c-0.1-0.4,0-1.5-0.2-1.8c-0.1-0.1-0.4-0.1-0.6-0.1c-0.5,0-1,0.4-1.3,0.9C655.2,447.2,655,447.7,655,448.2z"/>
<path class="st14" d="M671.4,444.5c0.3,0.4,0.4,0.8,0.5,1.2c0,0.1,0,0.3,0,0.6c-0.1,1.4-0.7,2.5-1.7,3.4c-0.5,0.5-1.1,0.7-1.9,0.8
	c-0.8,0.1-1.7,0-2.5-0.3c-0.8-0.3-1.4-0.9-1.8-1.6c-0.1-0.1-0.1-0.2-0.1-0.4c0-0.2,0-0.5,0.2-0.7c0.2-0.2,0.4-0.3,0.7-0.4
	c0.4-0.1,0.7,0.1,0.9,0.5c0.6,0.9,1.3,1.2,2.3,1.1c0.6-0.1,1.1-0.4,1.6-1c0.4-0.6,0.6-1.2,0.6-1.8c0-0.3-0.2-0.6-0.4-1
	c-0.5-0.7-1.2-1.3-2.1-1.5c-0.8-0.2-1.7-0.3-2.7-0.1c-0.2,0-0.5,0.1-0.9,0.3c-0.2,0.1-0.4,0.1-0.5,0.1c-0.1,0-0.3,0.1-0.3,0.1
	c-0.2,0-0.4-0.2-0.5-0.3c-0.1-0.1-0.2-0.2-0.3-0.4c-0.1-0.3-0.1-1.1,0-2.3c0-0.6,0-1.1,0-1.6c0-0.4,0-0.8,0-1
	c-0.2-0.2-0.3-0.4-0.4-0.6c-0.1-0.5,0.2-0.9,0.7-0.9c0.3-0.1,0.5-0.1,0.8-0.1c4.3-0.7,7.7-0.8,10.2-0.5c0.5,0.1,0.8,0.4,0.8,1
	c0.1,0.5-0.1,0.7-0.4,0.7c-0.1,0-0.2,0-0.3,0c-2.5-0.4-5.2-0.4-8.1,0c-0.1,0-0.3,0-0.7,0.1c-0.3,0.1-0.8,0.1-1.4,0.2
	c0,0.1,0,0.1,0,0.2c0.1,0.6,0.1,1.3,0.1,2.1c0,0.4,0,0.8,0,1.1c0,0.4,0,0.8,0,1.1c0.3-0.1,0.5-0.1,0.7-0.2c0.2-0.1,0.4-0.1,0.6-0.1
	c1.3-0.2,2.5-0.1,3.7,0.2C669.9,442.9,670.8,443.6,671.4,444.5z"/>
<path class="st14" d="M674.9,446.8c0-0.8,0.4-1.5,1.1-2.2c0.7-0.7,1.6-1,2.5-1c0.1,0,0.1,0,0.2,0c0,0,0.1,0,0.2,0c0-0.1,0-0.2,0-0.3
	c0-0.2,0-0.6,0.1-1c0.1-0.4,0.1-0.8,0.1-1c0-0.2,0-0.5-0.2-0.8c-0.1-0.4-0.3-0.6-0.6-0.6c-0.3,0-0.6,0.2-1.1,0.6
	c-0.2,0.2-0.3,0.3-0.5,0.5c-0.2,0.2-0.3,0.3-0.5,0.5c-0.1,0.1-0.2,0.2-0.4,0.2c-0.1,0-0.3-0.1-0.4-0.2c-0.1-0.1-0.2-0.2-0.2-0.4
	c0-0.1,0.1-0.2,0.2-0.3c0.4-0.4,0.9-0.8,1.4-1.1c0.6-0.4,1.2-0.5,1.7-0.5c0.5,0,1,0.3,1.3,0.8c0.2,0.4,0.4,1,0.3,1.6
	c0,0.1,0,0.2,0,0.3c0,0.1,0,0.3,0,0.5c0,0.2,0,0.3,0,0.5c0,0.1,0,0.2,0,0.3c0,0.3,0,0.7,0,1.1c0,0.4,0,0.9,0.1,1.5
	c0,0.6,0.1,1.1,0.1,1.5c0,0.4,0,0.8,0,1.1c0,0.5-0.3,0.7-0.7,0.7c-0.3,0-0.5-0.1-0.7-0.4c-0.5,0.1-1,0.2-1.4,0.2
	c-0.7,0-1.4-0.1-1.8-0.5C675.2,448,674.9,447.5,674.9,446.8z M676.1,446.7c0,0.6,0.3,1,1,0.9c0.5,0,1-0.2,1.8-0.5c0,0,0-0.3,0-0.7
	c0-0.4,0.1-1.6-0.1-2c-0.1-0.1-0.4-0.2-0.6-0.2c-0.6,0-1.1,0.3-1.5,0.8C676.4,445.7,676.1,446.2,676.1,446.7z"/>
<path class="st14" d="M688.2,436.6c0,0,0.1,0,0.2,0c0.2,0,0.4,0.1,0.5,0.2s0.2,0.3,0.2,0.5c0,0.3-0.2,0.6-0.6,0.6
	c-2.4,0.5-4.2,0.7-5.4,0.7c-0.3,0-0.5,0-0.7,0c-0.2,0-0.3,0-0.3,0c-0.4-0.1-0.6-0.3-0.6-0.6c0-0.4,0.2-0.6,0.7-0.6c0,0,0.1,0,0.2,0
	c0.1,0,0.1,0,0.2,0c0.1,0,0.2,0,0.4,0c0.7,0,1.6-0.1,2.6-0.3C686.7,436.9,687.2,436.8,688.2,436.6z M685.7,440.4
	c0.5,0,1,0.3,1.4,0.7c0.3,0.4,0.6,0.9,0.6,1.5c0.1,0.6,0.1,1.1,0.1,1.6c0,0.5,0,0.9,0,1.2c-0.1,1.1-0.3,2.2-0.7,3.2
	c-0.2,0.4-0.4,0.5-0.8,0.5c-0.2,0-0.4-0.1-0.6-0.2c-0.2-0.2-0.2-0.3-0.2-0.6c0-0.1,0-0.2,0.1-0.3c0.5-1.5,0.8-2.8,0.9-3.7
	c0-0.2,0-0.5,0-0.8c0-0.3,0-0.6-0.1-0.9c0,0,0-0.1,0-0.1c0-0.1,0-0.1,0-0.2c-0.1-0.6-0.3-0.9-0.6-1c-0.6,0-1.2,0.3-1.7,0.8
	c-0.5,0.4-0.9,1-1.1,1.6c-0.2,0.4-0.3,0.7-0.3,0.8c0,0.2,0,0.5,0,0.8c0,0.3,0.1,0.7,0.1,1.1c0,0.4,0.1,0.8,0.1,1.1
	c0,0.3,0,0.6,0,0.8c0,0.4-0.2,0.5-0.6,0.5c-0.3,0-0.4-0.2-0.5-0.5c0,0,0-0.1-0.1-0.3c0-0.1,0-0.3-0.1-0.5c0-0.3-0.1-0.6-0.1-0.9
	c0-0.3,0-0.7,0-1.1c0-0.2,0-0.5,0-0.9c0-0.4,0.1-0.8,0.1-1.3c0-0.5,0.1-0.9,0.1-1.3c0-0.4,0-0.7,0-0.9c0-0.1,0-0.1,0-0.2
	c0-0.1,0-0.2,0-0.3c0-0.2,0-0.3,0-0.6c0-0.3,0.2-0.4,0.5-0.4c0.3,0,0.4,0.1,0.4,0.4c0,0.1,0,0.4,0,0.8c0,0.4,0,1,0,1.7
	C683.7,441.2,684.7,440.4,685.7,440.4z"/>
<path class="st14" d="M688.7,444.7c0.1-1,0.4-1.9,1-2.7c0.7-0.9,1.5-1.3,2.5-1.2c0.5,0,0.9,0.1,1.2,0.3c0.7,0.4,1.3,0.9,1.7,1.7
	c0.3,0.7,0.5,1.5,0.4,2.3c-0.1,1-0.4,1.8-1,2.4c-0.6,0.6-1.4,0.8-2.4,0.7c-1-0.1-1.8-0.4-2.5-1.1
	C688.9,446.5,688.6,445.7,688.7,444.7z M691.9,446.7c1.3,0.1,2-0.5,2.1-1.8c0-0.6,0-1.2-0.3-1.8c-0.3-0.8-0.7-1.3-1.2-1.4
	c-0.1,0-0.1,0-0.2,0c0,0-0.1,0-0.1,0c-0.8-0.1-1.4,0.3-1.8,1c-0.3,0.5-0.5,1.2-0.5,1.9c0,0.2,0,0.2,0,0.4
	C690,446.1,690.6,446.6,691.9,446.7z"/>
<path class="st14" d="M697,443c0.1,0.5,0.3,1,0.7,1.5c0.2,0.3,0.6,0.6,1.2,1.2c0.5,0.4,0.8,0.8,1,1c0.3,0.4,0.4,0.7,0.3,1.1
	c-0.1,0.8-0.5,1.5-1.3,1.9c-0.7,0.4-1.5,0.6-2.4,0.5c-0.8-0.1-1.2-0.4-1.1-0.9c0-0.5,0.3-0.7,0.8-0.7c0.1,0,0.2,0,0.3,0
	c0.1,0,0.2,0,0.3,0c0.5,0,0.9,0,1.3-0.2c0.5-0.2,0.8-0.6,0.8-1.1c0-0.5-0.3-1.1-1.1-1.8c-0.8-0.7-1.3-1.1-1.5-1.4
	c-0.5-0.6-0.7-1.2-0.7-1.9c0.1-0.7,0.4-1.4,1.1-1.9c0.7-0.5,1.4-0.7,2.1-0.7c0.6,0.1,1.3,0.3,1.9,0.8c0.6,0.5,1,1,1.2,1.7
	c0,0.1,0,0.1,0,0.2c0,0.1,0,0.2-0.1,0.3c-0.1,0.1-0.1,0.2-0.2,0.2c-0.1,0.1-0.2,0.1-0.3,0.2c-0.1,0-0.2,0.1-0.3,0
	c-0.1,0-0.2-0.1-0.3-0.2c-0.3-1.1-1-1.8-1.8-1.8c-0.4,0-0.8,0.1-1.2,0.3c-0.4,0.3-0.6,0.6-0.7,1C697,442.8,697,442.9,697,443z"/>
<path class="st3" d="M636.4,450.9c0,0,0,0.1,0,0.1c0,0,0,0.1,0,0.1c0,0,0,0.1,0,0.2c0,0.1,0.1,0.2,0.1,0.4c0.2,0.8,0.4,1.3,0.4,1.3
	c0,0.1,0,0.3-0.2,0.4c-0.1,0.1-0.3,0.2-0.5,0.2c-0.4,0.1-0.6,0-0.8-0.3c0,0-0.1-0.2-0.2-0.7c-0.5,0.3-0.9,0.5-1.3,0.6
	c-0.9,0.2-1.7,0-2.5-0.5c-0.8-0.5-1.3-1.1-1.4-2c-0.1-0.7,0-1.4,0.3-2.1c0.3-0.7,0.8-1.2,1.5-1.5c0.2-0.1,0.4-0.2,0.6-0.2
	c0.5-0.1,1.1,0,1.8,0.4c0-0.5-0.1-2.7-0.3-6.5c0-0.2,0-0.4,0-0.8c0-0.2,0.2-0.3,0.6-0.4c0.6-0.1,1,0,1,0.2c0,0,0,0,0,0.1
	c-0.4,2.9-0.3,5.4,0,7.4c0.2,0.9,0.4,2,0.7,3.2C636.3,450.6,636.4,450.7,636.4,450.9z M632.7,447.6c-0.6,0.1-1.1,0.4-1.4,1
	c-0.3,0.6-0.4,1.1-0.3,1.7c0.1,0.7,0.5,1.1,1.1,1.4c0.5,0.3,1.1,0.3,1.8,0.2c0.4-0.1,0.8-0.2,1.1-0.4c-0.1-0.4-0.2-0.9-0.3-1.3
	c-0.1-0.4-0.2-0.8-0.2-1.3c0-0.1,0-0.3-0.1-0.4c0-0.1,0-0.3-0.1-0.4C633.8,447.7,633.2,447.5,632.7,447.6z"/>
<path class="st3" d="M638.7,451c0.5,0.5,1,0.7,1.6,0.6c0.4-0.1,0.7-0.2,1-0.5c0.2-0.2,0.4-0.5,0.7-1c0.1-0.1,0.1-0.2,0.2-0.2
	c0.1,0,0.2,0,0.4,0.2c0.1,0.1,0.2,0.3,0.2,0.5c0,0.1,0,0.3-0.1,0.4c-0.2,0.4-0.5,0.7-0.9,0.9c-0.4,0.2-0.9,0.4-1.3,0.5
	c-1,0.1-1.8-0.1-2.4-0.7c-0.6-0.6-1-1.3-1.2-2.3c-0.2-1,0-2,0.5-3c0.6-1.1,1.4-1.7,2.4-1.8c0.5-0.1,0.9,0,1.3,0.3
	c0.3,0.2,0.5,0.6,0.6,1.1c0.1,0.8-0.1,1.5-0.7,2.2c-0.6,0.7-1.3,1.1-2.1,1.2c-0.2,0-0.5,0-0.8,0c0,0.1,0.1,0.3,0.1,0.4
	c0.1,0.1,0.1,0.3,0.2,0.5C638.4,450.6,638.5,450.8,638.7,451z M640.8,446.1c0-0.2-0.1-0.4-0.3-0.5s-0.4-0.2-0.6-0.2
	c-0.3,0-0.7,0.3-1.1,0.8c-0.7,0.8-1,1.7-1,2.6c0.3,0.1,0.6,0.2,0.8,0.2c0.6-0.1,1.1-0.4,1.5-1.1
	C640.6,447.3,640.8,446.7,640.8,446.1z"/>
<path class="st3" d="M650,450.5c0,0.3,0,0.6-0.2,0.8c-0.2,0.2-0.4,0.4-0.7,0.4c-0.3,0-0.6,0-0.8-0.2c-0.2-0.2-0.4-0.4-0.4-0.7
	c-0.2-1.3-0.4-2.7-0.5-4.2c-0.1-1.4-0.2-3.6-0.3-6.7c-0.5,0.4-1.1,0.9-2,1.5c-0.1,0.1-0.2,0.2-0.3,0.2c-0.2,0-0.4,0-0.5-0.1
	c-0.2-0.1-0.3-0.3-0.3-0.5c0-0.2,0.1-0.4,0.3-0.6c0.1-0.1,0.3-0.3,0.5-0.4c0.2-0.2,0.4-0.4,0.7-0.6c0.2-0.2,0.4-0.4,0.7-0.7
	c0.3-0.3,0.6-0.6,1-1c0.2-0.2,0.5-0.4,0.7-0.4c0.4-0.1,0.7,0.2,0.8,0.8c0.1,0.7,0.2,1.6,0.3,2.6c0.1,1,0.2,2.3,0.3,3.6
	C649.5,447,649.8,449.1,650,450.5z"/>
<path class="st3" d="M653.4,447.9c-0.1-0.7,0.2-1.4,0.8-2.1c0.6-0.7,1.4-1.1,2.2-1.1c0.1,0,0.1,0,0.2,0c0,0,0.1,0,0.2,0
	c0-0.1,0-0.2,0-0.3c0-0.2,0-0.5,0-1c0-0.4,0-0.7,0-0.9c0-0.2-0.1-0.5-0.2-0.8c-0.2-0.3-0.4-0.5-0.6-0.5c-0.3,0-0.6,0.2-1,0.7
	c-0.1,0.2-0.3,0.3-0.4,0.5c-0.1,0.2-0.3,0.3-0.4,0.5c-0.1,0.1-0.2,0.2-0.3,0.2c-0.1,0-0.2,0-0.3-0.1c-0.1-0.1-0.2-0.2-0.2-0.3
	c0-0.1,0-0.2,0.1-0.3c0.3-0.4,0.7-0.8,1.2-1.1c0.6-0.4,1.1-0.6,1.5-0.6c0.5,0,0.9,0.2,1.2,0.6c0.3,0.4,0.4,0.9,0.5,1.5
	c0,0.1,0,0.2,0,0.3c0,0.1,0,0.3,0,0.4c0,0.2,0,0.3,0,0.4c0,0.1,0,0.2,0,0.3c0,0.3,0.1,0.6,0.1,1c0.1,0.4,0.1,0.9,0.2,1.4
	c0.1,0.5,0.2,1,0.2,1.4c0.1,0.4,0.1,0.7,0.1,1c0,0.4-0.2,0.7-0.6,0.7c-0.3,0-0.5-0.1-0.7-0.3c-0.5,0.2-0.9,0.3-1.3,0.3
	c-0.7,0.1-1.3,0-1.7-0.3C653.8,449,653.5,448.5,653.4,447.9z M654.6,447.7c0.1,0.6,0.4,0.9,1,0.8c0.4,0,1-0.2,1.6-0.6
	c0,0,0-0.3-0.1-0.7c-0.1-0.4,0-1.5-0.2-1.8c-0.1-0.1-0.4-0.1-0.6-0.1c-0.5,0-1,0.4-1.3,0.9C654.7,446.7,654.5,447.2,654.6,447.7z"/>
<path class="st3" d="M670.9,444.1c0.3,0.4,0.4,0.8,0.5,1.2c0,0.1,0,0.3,0,0.6c-0.1,1.4-0.7,2.5-1.7,3.4c-0.5,0.5-1.1,0.7-1.9,0.8
	c-0.8,0.1-1.7,0-2.5-0.3c-0.8-0.3-1.4-0.9-1.8-1.6c-0.1-0.1-0.1-0.2-0.1-0.4c0-0.2,0-0.5,0.2-0.7c0.2-0.2,0.4-0.3,0.7-0.4
	c0.4-0.1,0.7,0.1,0.9,0.5c0.6,0.9,1.3,1.2,2.3,1.1c0.6-0.1,1.1-0.4,1.6-1c0.4-0.6,0.6-1.2,0.6-1.8c0-0.3-0.2-0.6-0.4-1
	c-0.5-0.7-1.2-1.3-2.1-1.5c-0.8-0.2-1.7-0.3-2.7-0.1c-0.2,0-0.5,0.1-0.9,0.3c-0.2,0.1-0.4,0.1-0.5,0.1c-0.1,0-0.3,0.1-0.3,0.1
	c-0.2,0-0.4-0.2-0.5-0.3c-0.1-0.1-0.2-0.2-0.3-0.4c-0.1-0.3-0.1-1.1,0-2.3c0-0.6,0-1.1,0-1.6c0-0.4,0-0.8,0-1
	c-0.2-0.2-0.3-0.4-0.4-0.6c-0.1-0.5,0.2-0.9,0.7-0.9c0.3-0.1,0.5-0.1,0.8-0.1c4.3-0.7,7.7-0.8,10.2-0.5c0.5,0.1,0.8,0.4,0.8,1
	c0.1,0.5-0.1,0.7-0.4,0.7c-0.1,0-0.2,0-0.3,0c-2.5-0.4-5.2-0.4-8.1,0c-0.1,0-0.3,0-0.7,0.1c-0.3,0.1-0.8,0.1-1.4,0.2
	c0,0.1,0,0.1,0,0.2c0.1,0.6,0.1,1.3,0.1,2.1c0,0.4,0,0.8,0,1.1s0,0.8,0,1.1c0.3-0.1,0.5-0.1,0.7-0.2c0.2-0.1,0.4-0.1,0.6-0.1
	c1.3-0.2,2.5-0.1,3.7,0.2C669.4,442.5,670.4,443.1,670.9,444.1z"/>
<path class="st3" d="M674.4,446.3c0-0.8,0.4-1.5,1.1-2.2c0.7-0.7,1.6-1,2.5-1c0.1,0,0.1,0,0.2,0c0,0,0.1,0,0.2,0c0-0.1,0-0.2,0-0.3
	c0-0.2,0-0.6,0.1-1c0.1-0.4,0.1-0.8,0.1-1c0-0.2,0-0.5-0.2-0.8c-0.1-0.4-0.3-0.6-0.6-0.6c-0.3,0-0.6,0.2-1.1,0.6
	c-0.2,0.2-0.3,0.3-0.5,0.5c-0.2,0.2-0.3,0.3-0.5,0.5c-0.1,0.1-0.2,0.2-0.4,0.2c-0.1,0-0.3-0.1-0.4-0.2c-0.1-0.1-0.2-0.2-0.2-0.4
	c0-0.1,0.1-0.2,0.2-0.3c0.4-0.4,0.9-0.8,1.4-1.1c0.6-0.4,1.2-0.5,1.7-0.5c0.5,0,1,0.3,1.3,0.8c0.2,0.4,0.4,1,0.3,1.6
	c0,0.1,0,0.2,0,0.3c0,0.1,0,0.3,0,0.5c0,0.2,0,0.3,0,0.5c0,0.1,0,0.2,0,0.3c0,0.3,0,0.7,0,1.1c0,0.4,0,0.9,0.1,1.5
	c0,0.6,0.1,1.1,0.1,1.5c0,0.4,0,0.8,0,1.1c0,0.5-0.3,0.7-0.7,0.7c-0.3,0-0.5-0.1-0.7-0.4c-0.5,0.1-1,0.2-1.4,0.2
	c-0.7,0-1.4-0.1-1.8-0.5C674.7,447.5,674.5,447,674.4,446.3z M675.7,446.2c0,0.6,0.3,1,1,0.9c0.5,0,1-0.2,1.8-0.5c0,0,0-0.3,0-0.7
	c0-0.4,0.1-1.6-0.1-2c-0.1-0.1-0.4-0.2-0.6-0.2c-0.6,0-1.1,0.3-1.5,0.8C675.9,445.2,675.7,445.7,675.7,446.2z"/>
<path class="st3" d="M687.8,436.1c0,0,0.1,0,0.2,0c0.2,0,0.4,0.1,0.5,0.2c0.1,0.1,0.2,0.3,0.2,0.5c0,0.3-0.2,0.6-0.6,0.6
	c-2.4,0.5-4.2,0.7-5.4,0.7c-0.3,0-0.5,0-0.7,0c-0.2,0-0.3,0-0.3,0c-0.4-0.1-0.6-0.3-0.6-0.6c0-0.4,0.2-0.6,0.7-0.6c0,0,0.1,0,0.2,0
	c0.1,0,0.1,0,0.2,0c0.1,0,0.2,0,0.4,0c0.7,0,1.6-0.1,2.6-0.3C686.2,436.4,686.7,436.3,687.8,436.1z M685.3,439.9
	c0.5,0,1,0.3,1.4,0.7c0.3,0.4,0.6,0.9,0.6,1.5c0.1,0.6,0.1,1.1,0.1,1.6c0,0.5,0,0.9,0,1.2c-0.1,1.1-0.3,2.2-0.7,3.2
	c-0.2,0.4-0.4,0.5-0.8,0.5c-0.2,0-0.4-0.1-0.6-0.2c-0.2-0.2-0.2-0.3-0.2-0.6c0-0.1,0-0.2,0.1-0.3c0.5-1.5,0.8-2.8,0.9-3.7
	c0-0.2,0-0.5,0-0.8c0-0.3,0-0.6-0.1-0.9c0,0,0-0.1,0-0.1c0-0.1,0-0.1,0-0.2c-0.1-0.6-0.3-0.9-0.6-1c-0.6,0-1.2,0.3-1.7,0.8
	c-0.5,0.4-0.9,1-1.1,1.6c-0.2,0.4-0.3,0.7-0.3,0.8c0,0.2,0,0.5,0,0.8c0,0.3,0.1,0.7,0.1,1.1c0,0.4,0.1,0.8,0.1,1.1
	c0,0.3,0,0.6,0,0.8c0,0.4-0.2,0.5-0.6,0.5c-0.3,0-0.4-0.2-0.5-0.5c0,0,0-0.1-0.1-0.3c0-0.1,0-0.3-0.1-0.5c0-0.3-0.1-0.6-0.1-0.9
	c0-0.3,0-0.7,0-1.1c0-0.2,0-0.5,0-0.9c0-0.4,0.1-0.8,0.1-1.3c0-0.5,0.1-0.9,0.1-1.3c0-0.4,0-0.7,0-0.9c0-0.1,0-0.1,0-0.2
	c0-0.1,0-0.2,0-0.3c0-0.2,0-0.3,0-0.6c0-0.3,0.2-0.4,0.5-0.4c0.3,0,0.4,0.1,0.4,0.4c0,0.1,0,0.4,0,0.8s0,1,0,1.7
	C683.3,440.7,684.3,439.9,685.3,439.9z"/>
<path class="st3" d="M688.2,444.3c0.1-1,0.4-1.9,1-2.7c0.7-0.9,1.5-1.3,2.5-1.2c0.5,0,0.9,0.1,1.2,0.3c0.7,0.4,1.3,0.9,1.7,1.7
	c0.3,0.7,0.5,1.5,0.4,2.3c-0.1,1-0.4,1.8-1,2.4c-0.6,0.6-1.4,0.8-2.4,0.7c-1-0.1-1.8-0.4-2.5-1.1
	C688.5,446.1,688.2,445.2,688.2,444.3z M691.5,446.2c1.3,0.1,2-0.5,2.1-1.8c0-0.6,0-1.2-0.3-1.8c-0.3-0.8-0.7-1.3-1.2-1.4
	c-0.1,0-0.1,0-0.2,0c0,0-0.1,0-0.1,0c-0.8-0.1-1.4,0.3-1.8,1c-0.3,0.5-0.5,1.2-0.5,1.9c0,0.2,0,0.2,0,0.4
	C689.5,445.6,690.2,446.1,691.5,446.2z"/>
<path class="st3" d="M696.6,442.5c0.1,0.5,0.3,1,0.7,1.5c0.2,0.3,0.6,0.6,1.2,1.2c0.5,0.4,0.8,0.8,1,1c0.3,0.4,0.4,0.7,0.3,1.1
	c-0.1,0.8-0.5,1.5-1.3,1.9c-0.7,0.4-1.5,0.6-2.4,0.5c-0.8-0.1-1.2-0.4-1.1-0.9c0-0.5,0.3-0.7,0.8-0.7c0.1,0,0.2,0,0.3,0
	c0.1,0,0.2,0,0.3,0c0.5,0,0.9,0,1.3-0.2c0.5-0.2,0.8-0.6,0.8-1.1c0-0.5-0.3-1.1-1.1-1.8c-0.8-0.7-1.3-1.1-1.5-1.4
	c-0.5-0.6-0.7-1.2-0.7-1.9c0.1-0.7,0.4-1.4,1.1-1.9c0.7-0.5,1.4-0.7,2.1-0.7c0.6,0.1,1.3,0.3,1.9,0.8c0.6,0.5,1,1,1.2,1.7
	c0,0.1,0,0.1,0,0.2c0,0.1,0,0.2-0.1,0.3c-0.1,0.1-0.1,0.2-0.2,0.2c-0.1,0.1-0.2,0.1-0.3,0.2c-0.1,0-0.2,0.1-0.3,0
	c-0.1,0-0.2-0.1-0.3-0.2c-0.3-1.1-1-1.8-1.8-1.8c-0.4,0-0.8,0.1-1.2,0.3c-0.4,0.3-0.6,0.6-0.7,1
	C696.6,442.3,696.6,442.4,696.6,442.5z"/>
<polygon class="st17" points="617.5,450.2 616.5,449.9 619.3,441.8 620.6,441.4 "/>
<path class="st17" d="M709,444.3c0,0-1.1-4.4-2.6-8.4c-1.5-3.9-3.7-7.9-3.7-7.9l1.4,0.1c0,0,1.8,3.1,3.1,6.7
	c1.5,4.1,2.8,9.1,2.8,9.1L709,444.3z"/>
</svg>
