<svg width="673" height="143" viewBox="0 0 673 143" fill="none" xmlns="http://www.w3.org/2000/svg">
<rect y="0.310791" width="672.589" height="136.689" fill="#7CDEFD" fill-opacity="0.5"/>
<g filter="url(#filter0_d)">
<path d="M484.821 63.0719C493.487 68.0756 493.487 80.5849 484.821 85.5886L429.816 117.346C421.149 122.349 410.316 116.095 410.316 106.087L410.316 42.5732C410.316 32.5658 421.149 26.3112 429.816 31.3149L484.821 63.0719Z" fill="#F9F5F5"/>
</g>
<g filter="url(#filter1_d)">
<path d="M257.6 108.2C256.867 104 256.5 99.2 256.5 93.8C256.5 91.6667 256.6 88.5667 256.8 84.5L257 75.2C256.533 74.2667 256.3 73.5 256.3 72.9C256.967 71.8333 257.3 68.7667 257.3 63.7C257.3 51.5667 257.133 45.1 256.8 44.3C257.4 42.6333 257.867 41.8 258.2 41.8H262.6C263.333 41.8 264.367 42.1667 265.7 42.9C267.1 43.5667 268.267 44.3 269.2 45.1C270.867 46.6333 271.7 50.5667 271.7 56.9C271.7 60.3 271.6 62.9 271.4 64.7C271.267 65.9667 271.033 66.9667 270.7 67.7C270.433 68.4333 270 69.2667 269.4 70.2C268.4 71.7333 266.7 73.0667 264.3 74.2C263.3 74.7333 261.9 75.2667 260.1 75.8V87.7C260.1 89.3667 260.267 92.6333 260.6 97.5L260.8 100.7L261 107.2C261 108.4 260.367 109 259.1 109L257.6 108.2ZM260.8 72.4C262.733 72.4 264.367 71.5 265.7 69.7C266.167 69.0333 266.6 68.1333 267 67C267.4 65.8667 267.667 64.7667 267.8 63.7C268.2 61.7667 268.4 59.5333 268.4 57V54.3C268.4 53.3667 268.367 52.4667 268.3 51.6C268.233 50.7333 268.1 49.9 267.9 49.1C267.633 48.2333 267.267 47.5333 266.8 47C266.4 46.4 265.833 45.9 265.1 45.5C264.3 45.1 263.333 44.9 262.2 44.9C261.4 44.9 260.833 45.1 260.5 45.5C260.167 45.9 260 46.6 260 47.6C260 49.2 260.1 51.6 260.3 54.8L260.5 62C260.5 63.7333 260.433 65.3 260.3 66.7L260.1 71.4L260.8 72.4ZM284.27 108.3C283.336 108.3 282.77 107.533 282.57 106C282.703 105.6 282.77 104.5 282.77 102.7C282.77 96.5667 282.87 87.4667 283.07 75.4C283.27 63.4 283.37 54.7333 283.37 49.4L283.57 45.8L283.87 42.8C283.87 42.3333 284.103 42.1 284.57 42.1C284.903 42.1 285.37 42.2 285.97 42.4L286.27 42.5C286.27 43.9667 286.236 45.3 286.17 46.5V50.4V61.3C286.236 64.5 286.27 68.1333 286.27 72.2C286.203 72.5333 286.17 73.2667 286.17 74.4L286.07 76.5C286.003 77.8333 285.97 79.2 285.97 80.6C285.97 82.1333 286.003 83.5333 286.07 84.8L286.17 89.1L285.87 89.9L285.97 89.8C285.97 90 285.936 90.1333 285.87 90.2V90.6C285.87 91.1333 285.97 91.6 286.17 92L285.87 101.6V102.2C285.87 103.333 285.903 104 285.97 104.2C285.97 104.533 286.136 104.7 286.47 104.7L291.67 104.9C293.203 104.9 294.236 104.933 294.77 105C295.37 105 295.736 105 295.87 105H296.17C296.503 105 296.836 105.2 297.17 105.6C297.503 105.933 297.67 106.3 297.67 106.7C297.67 107.5 297.136 107.933 296.07 108C294.936 107.933 292.17 107.9 287.77 107.9L287.97 108C287.303 108 286.67 108.033 286.07 108.1C285.536 108.233 284.936 108.3 284.27 108.3ZM327.072 107.9C326.072 107.9 325.439 107.767 325.172 107.5C324.905 107.3 324.705 106.7 324.572 105.7C323.972 100.833 323.605 97.8 323.472 96.6L322.972 92.6C321.505 92.2667 319.839 92.1 317.972 92.1L314.372 91.9C312.772 91.7 311.605 91.6 310.872 91.6C310.472 91.6 310.239 91.7667 310.172 92.1C310.172 92.3 310.139 92.4 310.072 92.4L309.872 94.4C309.805 95.6 309.439 98 308.772 101.6C308.439 103.4 308.039 104.8 307.572 105.8C307.039 106.933 306.539 107.5 306.072 107.5C305.672 107.5 305.239 107.333 304.772 107C304.305 106.6 304.072 106.2 304.072 105.8L304.172 105.5L304.272 105.2C305.472 100.467 306.472 95.7667 307.272 91.1L308.472 84.9L309.672 77.3C309.672 77.3 310.039 75.1 310.772 70.7C311.105 68.9 311.705 66 312.572 62C313.505 57.4667 314.072 54.3667 314.272 52.7C314.339 52.5 314.472 51.2667 314.672 49C314.939 46.4667 315.172 44.6 315.372 43.4C315.572 41.6667 315.772 40.6667 315.972 40.4H316.672C316.872 40.4667 317.105 40.5 317.372 40.5C318.172 40.5 318.772 40.3 319.172 39.9C319.639 39.9 320.039 40.0667 320.372 40.4C320.772 40.6667 320.972 41 320.972 41.4C320.972 44.6 321.205 48.2667 321.672 52.4C321.939 54.5333 322.139 56.3 322.272 57.7C323.005 66.3 324.872 82.4333 327.872 106.1V106.4C327.872 107.067 327.605 107.567 327.072 107.9ZM322.472 89.9C321.805 80.3 320.539 66.1333 318.672 47.4L313.272 74.1C311.739 81.7667 310.972 86.6 310.972 88.6C310.972 88.9333 312.239 89.2333 314.772 89.5C317.305 89.7667 319.539 89.9 321.472 89.9H322.472ZM345.32 108.5C345.12 108.5 344.853 108.367 344.52 108.1C344.186 107.833 343.986 107.6 343.92 107.4C344.52 105.8 344.82 99.9667 344.82 89.9C344.82 87.9667 344.72 85.2 344.52 81.6L344.02 74.5L343.42 73.2L343.72 72C343.32 71.0667 342.72 69.5 341.92 67.3C341.12 65.1 340.32 62.8667 339.52 60.6C337.12 54.2667 335.553 49.7 334.82 46.9C334.42 45.5667 334.12 44.3333 333.92 43.2L335.32 42.1C335.986 42.2333 336.953 44.3667 338.22 48.5C339.22 51.4333 340.12 54.3333 340.92 57.2L342.12 61C343.32 65.1333 344.186 67.2667 344.72 67.4L345.12 65.6L344.92 65.1C345.453 64.4333 346.12 62.0667 346.92 58C347.786 53.3333 348.62 49.4 349.42 46.2C350.286 42.4667 351.153 40.6 352.02 40.6C352.353 40.6 352.653 40.7 352.92 40.9C353.186 41.1 353.32 41.3333 353.32 41.6C353.32 42.6 352.32 46.5333 350.32 53.4C349.32 56.6667 348.486 59.7333 347.82 62.6C347.02 66 346.62 69.0333 346.62 71.7C346.953 72.3667 347.12 72.9333 347.12 73.4C347.12 73.7333 347.02 74.2 346.82 74.8C346.62 75.4 346.52 75.9 346.52 76.3C346.52 76.6333 346.653 78.1333 346.92 80.8C347.186 82.6 347.32 84.1333 347.32 85.4C347.32 88.3333 347.353 90.9667 347.42 93.3V101.3V101.7C347.42 106.233 346.72 108.5 345.32 108.5Z" fill="#F9F5F5"/>
</g>
<defs>
<filter id="filter0_d" x="406.316" y="29.5539" width="89.0047" height="97.5527" filterUnits="userSpaceOnUse" color-interpolation-filters="sRGB">
<feFlood flood-opacity="0" result="BackgroundImageFix"/>
<feColorMatrix in="SourceAlpha" type="matrix" values="0 0 0 0 0 0 0 0 0 0 0 0 0 0 0 0 0 0 127 0"/>
<feOffset dy="4"/>
<feGaussianBlur stdDeviation="2"/>
<feColorMatrix type="matrix" values="0 0 0 0 0 0 0 0 0 0 0 0 0 0 0 0 0 0 0.25 0"/>
<feBlend mode="normal" in2="BackgroundImageFix" result="effect1_dropShadow"/>
<feBlend mode="normal" in="SourceGraphic" in2="effect1_dropShadow" result="shape"/>
</filter>
<filter id="filter1_d" x="226.3" y="13.9" width="157.02" height="129.1" filterUnits="userSpaceOnUse" color-interpolation-filters="sRGB">
<feFlood flood-opacity="0" result="BackgroundImageFix"/>
<feColorMatrix in="SourceAlpha" type="matrix" values="0 0 0 0 0 0 0 0 0 0 0 0 0 0 0 0 0 0 127 0"/>
<feOffset dy="4"/>
<feGaussianBlur stdDeviation="15"/>
<feColorMatrix type="matrix" values="0 0 0 0 0 0 0 0 0 0 0 0 0 0 0 0 0 0 0.82 0"/>
<feBlend mode="normal" in2="BackgroundImageFix" result="effect1_dropShadow"/>
<feBlend mode="normal" in="SourceGraphic" in2="effect1_dropShadow" result="shape"/>
</filter>
</defs>
</svg>
