<svg width="1353" height="288" viewBox="0 0 1353 288" fill="none" xmlns="http://www.w3.org/2000/svg">
<rect y="9" width="1353" height="278.999" fill="#7CDEFD" fill-opacity="0.5"/>
<g filter="url(#filter0_d)">
<path d="M995.359 148.866C1003.93 153.888 1003.93 166.278 995.359 171.3L844.975 259.397C836.309 264.474 825.404 258.224 825.404 248.18L825.404 71.9857C825.404 61.9417 836.309 55.6918 844.975 60.7687L995.359 148.866Z" fill="#F9F5F5"/>
</g>
<g filter="url(#filter1_d)">
<path d="M495.26 224.54C493.353 216.767 492.4 205.987 492.4 192.2L492.84 172.62C493.133 166.753 493.28 160.227 493.28 153.04C492.4 150.987 491.96 149.153 491.96 147.54V146.88C493.427 144.093 494.16 137.787 494.16 127.96L494.38 117.84C494.527 114.613 494.6 111.02 494.6 107.06C494.6 98.4067 494.013 91.5867 492.84 86.6C493.28 84.5467 494.013 82.7867 495.04 81.32C496.067 79.7067 497.313 78.9 498.78 78.9H508.46C512.567 78.9 516.16 79.8533 519.24 81.76C522.32 83.52 524.667 86.0867 526.28 89.46C529.213 95.4733 530.68 102.587 530.68 110.8C530.68 116.667 530.607 121.287 530.46 124.66C530.167 128.913 529.433 132.8 528.26 136.32C527.82 138.227 527.16 139.84 526.28 141.16C525.547 142.333 524.447 143.8 522.98 145.56C520.927 148.053 517.553 150.4 512.86 152.6C510.953 153.627 508.46 154.58 505.38 155.46V179L505.82 193.08L506.26 199.9C506.847 208.113 507.14 215.08 507.14 220.8C507.14 222.56 506.407 224.027 504.94 225.2C503.473 226.52 501.787 227.18 499.88 227.18L495.26 224.54ZM505.6 146.44C514.253 145.12 518.58 132.727 518.58 109.26C518.58 105.007 518.36 101.707 517.92 99.36C517.48 97.6 516.893 96.2067 516.16 95.18C515.427 94.0067 514.327 93.0533 512.86 92.32C511.247 91.44 509.487 91 507.58 91C507.58 90.8533 506.773 90.78 505.16 90.78V103.32C505.16 111.973 505.233 119.673 505.38 126.42C505.38 134.047 505.453 139.033 505.6 141.38V146V146.44ZM586.175 226.52C580.895 224.76 574.368 223.88 566.595 223.88C564.248 225.347 561.755 226.08 559.115 226.08C557.355 226.08 555.815 225.273 554.495 223.66C553.322 222.193 552.735 220.58 552.735 218.82C552.735 206.5 553.248 190.073 554.275 169.54C555.155 147.687 555.595 131.333 555.595 120.48V118.94C554.715 109.7 554.275 102.807 554.275 98.26C554.275 84.3267 556.842 77.36 561.975 77.36C563.442 77.36 564.688 77.9467 565.715 79.12C566.888 80.1467 567.475 81.3933 567.475 82.86C567.475 84.62 567.255 87.4067 566.815 91.22C566.375 94.8867 566.155 97.6733 566.155 99.58C566.155 109.407 566.228 118.28 566.375 126.2C566.522 133.973 566.595 142.773 566.595 152.6C565.862 154.8 565.495 157.88 565.495 161.84V164.48L565.055 181.86C564.762 186.993 564.615 192.86 564.615 199.46C564.615 209.58 567.035 214.64 571.875 214.64C572.168 214.64 572.608 214.64 573.195 214.64C573.928 214.493 574.882 214.42 576.055 214.42C577.375 214.273 579.062 214.2 581.115 214.2C589.035 214.2 592.995 216.4 592.995 220.8C592.995 222.267 592.335 223.513 591.015 224.54C589.695 225.567 588.082 226.227 586.175 226.52ZM654.502 224.98C651.129 224.98 648.636 224.467 647.022 223.44C645.409 222.413 644.602 220.507 644.602 217.72C644.602 213.32 643.869 205.84 642.402 195.28L641.522 190.66L619.742 187.36C618.862 190.733 617.616 197.553 616.002 207.82C615.122 215.007 613.729 219.773 611.822 222.12C610.796 223.44 609.329 224.1 607.422 224.1C605.662 224.1 604.049 223.587 602.582 222.56C601.116 221.387 600.382 219.993 600.382 218.38L600.822 217.28L601.042 216.4C610.722 178.707 618.056 141.527 623.042 104.86C623.042 104.273 623.116 103.32 623.262 102C623.409 100.533 623.556 98.48 623.702 95.84C624.142 90.4133 624.582 86.0867 625.022 82.86C625.609 79.6333 626.489 77.2133 627.662 75.6H635.142C637.196 75.6 638.956 76.1133 640.422 77.14C641.889 78.02 642.622 79.34 642.622 81.1C642.622 92.2467 644.162 108.82 647.242 130.82C650.176 153.407 651.642 169.247 651.642 178.34C651.642 179.22 652.009 181.493 652.742 185.16C653.476 188.533 653.842 190.733 653.842 191.76C653.842 192.787 654.576 197.187 656.042 204.96C657.362 212 658.022 216.547 658.022 218.6V218.82C658.022 222.047 656.849 224.1 654.502 224.98ZM639.982 182.74C639.542 180.54 639.322 177.827 639.322 174.6C639.322 161.4 638.149 144.533 635.802 124L633.602 101.12C627.296 135.587 622.969 161.62 620.622 179.22C622.822 180.687 629.276 181.86 639.982 182.74ZM694.944 226.08C692.451 226.08 690.398 224.467 688.784 221.24C690.398 218.16 691.204 205.693 691.204 183.84C691.204 178.707 690.838 173.133 690.104 167.12L689.444 160.74C689.004 156.78 688.784 153.773 688.784 151.72V146C687.318 142.333 684.604 135.513 680.644 125.54C676.831 115.567 673.751 107.207 671.404 100.46C668.618 92.6867 667.224 87.4067 667.224 84.62V83.52L672.284 79.78C674.778 80.0733 677.418 83.3 680.204 89.46C682.551 94.8867 685.118 102.66 687.904 112.78C690.838 122.9 692.304 128.253 692.304 128.84C692.891 127.227 694.064 121.727 695.824 112.34C697.584 102.953 699.564 94.6667 701.764 87.48C704.258 80.2933 706.824 76.7 709.464 76.7C710.931 76.7 712.178 77.14 713.204 78.02C714.378 78.9 714.964 80 714.964 81.32C714.964 88.8 712.911 99.36 708.804 113C704.404 127.813 702.204 138.52 702.204 145.12V211.34C702.204 221.167 699.784 226.08 694.944 226.08Z" fill="#F9F5F5"/>
</g>
<defs>
<filter id="filter0_d" x="821.404" y="58.9661" width="184.384" height="210.234" filterUnits="userSpaceOnUse" color-interpolation-filters="sRGB">
<feFlood flood-opacity="0" result="BackgroundImageFix"/>
<feColorMatrix in="SourceAlpha" type="matrix" values="0 0 0 0 0 0 0 0 0 0 0 0 0 0 0 0 0 0 127 0"/>
<feOffset dy="4"/>
<feGaussianBlur stdDeviation="2"/>
<feColorMatrix type="matrix" values="0 0 0 0 0 0 0 0 0 0 0 0 0 0 0 0 0 0 0.25 0"/>
<feBlend mode="normal" in2="BackgroundImageFix" result="effect1_dropShadow"/>
<feBlend mode="normal" in="SourceGraphic" in2="effect1_dropShadow" result="shape"/>
</filter>
<filter id="filter1_d" x="461.96" y="49.6001" width="283.004" height="211.58" filterUnits="userSpaceOnUse" color-interpolation-filters="sRGB">
<feFlood flood-opacity="0" result="BackgroundImageFix"/>
<feColorMatrix in="SourceAlpha" type="matrix" values="0 0 0 0 0 0 0 0 0 0 0 0 0 0 0 0 0 0 127 0"/>
<feOffset dy="4"/>
<feGaussianBlur stdDeviation="15"/>
<feColorMatrix type="matrix" values="0 0 0 0 0 0 0 0 0 0 0 0 0 0 0 0 0 0 0.82 0"/>
<feBlend mode="normal" in2="BackgroundImageFix" result="effect1_dropShadow"/>
<feBlend mode="normal" in="SourceGraphic" in2="effect1_dropShadow" result="shape"/>
</filter>
</defs>
</svg>
