<svg width="304" height="47" viewBox="0 0 304 47" fill="none" xmlns="http://www.w3.org/2000/svg">
<rect x="1" y="1" width="297.61" height="45" rx="22.5" fill="white" stroke="white" stroke-width="2"/>
<path d="M39.7291 30H37.2991V16.986H39.7291V30ZM53.7038 16.986V30H52.4618C52.2698 30 52.1078 29.97 51.9758 29.91C51.8498 29.844 51.7268 29.736 51.6068 29.586L44.8118 20.91C44.8478 21.306 44.8658 21.672 44.8658 22.008V30H42.7328V16.986H44.0018C44.1038 16.986 44.1908 16.992 44.2628 17.004C44.3408 17.01 44.4068 17.028 44.4608 17.058C44.5208 17.082 44.5778 17.121 44.6318 17.175C44.6858 17.223 44.7458 17.289 44.8118 17.373L51.6338 26.085C51.6158 25.875 51.6008 25.668 51.5888 25.464C51.5768 25.26 51.5708 25.071 51.5708 24.897V16.986H53.7038ZM59.122 18.912V22.764H64V24.699H59.122V30H56.692V16.986H64.9V18.912H59.122ZM79.2652 23.493C79.2652 24.447 79.1062 25.332 78.7882 26.148C78.4762 26.958 78.0322 27.66 77.4562 28.254C76.8802 28.848 76.1872 29.313 75.3772 29.649C74.5672 29.979 73.6672 30.144 72.6772 30.144C71.6932 30.144 70.7962 29.979 69.9862 29.649C69.1762 29.313 68.4802 28.848 67.8982 28.254C67.3222 27.66 66.8752 26.958 66.5572 26.148C66.2392 25.332 66.0802 24.447 66.0802 23.493C66.0802 22.539 66.2392 21.657 66.5572 20.847C66.8752 20.031 67.3222 19.326 67.8982 18.732C68.4802 18.138 69.1762 17.676 69.9862 17.346C70.7962 17.01 71.6932 16.842 72.6772 16.842C73.3372 16.842 73.9582 16.92 74.5402 17.076C75.1222 17.226 75.6562 17.442 76.1422 17.724C76.6282 18 77.0632 18.339 77.4472 18.741C77.8372 19.137 78.1672 19.581 78.4372 20.073C78.7072 20.565 78.9112 21.099 79.0492 21.675C79.1932 22.251 79.2652 22.857 79.2652 23.493ZM76.7902 23.493C76.7902 22.779 76.6942 22.14 76.5022 21.576C76.3102 21.006 76.0372 20.523 75.6832 20.127C75.3292 19.731 74.8972 19.428 74.3872 19.218C73.8832 19.008 73.3132 18.903 72.6772 18.903C72.0412 18.903 71.4682 19.008 70.9582 19.218C70.4542 19.428 70.0222 19.731 69.6622 20.127C69.3082 20.523 69.0352 21.006 68.8432 21.576C68.6512 22.14 68.5552 22.779 68.5552 23.493C68.5552 24.207 68.6512 24.849 68.8432 25.419C69.0352 25.983 69.3082 26.463 69.6622 26.859C70.0222 27.249 70.4542 27.549 70.9582 27.759C71.4682 27.969 72.0412 28.074 72.6772 28.074C73.3132 28.074 73.8832 27.969 74.3872 27.759C74.8972 27.549 75.3292 27.249 75.6832 26.859C76.0372 26.463 76.3102 25.983 76.5022 25.419C76.6942 24.849 76.7902 24.207 76.7902 23.493ZM85.4143 23.178C85.8703 23.178 86.2663 23.121 86.6023 23.007C86.9443 22.893 87.2233 22.737 87.4393 22.539C87.6613 22.335 87.8263 22.095 87.9343 21.819C88.0423 21.543 88.0963 21.24 88.0963 20.91C88.0963 20.25 87.8773 19.743 87.4393 19.389C87.0073 19.035 86.3443 18.858 85.4503 18.858H83.9023V23.178H85.4143ZM91.6423 30H89.4553C89.0413 30 88.7413 29.838 88.5553 29.514L85.8193 25.347C85.7173 25.191 85.6033 25.08 85.4773 25.014C85.3573 24.948 85.1773 24.915 84.9373 24.915H83.9023V30H81.4813V16.986H85.4503C86.3323 16.986 87.0883 17.079 87.7183 17.265C88.3543 17.445 88.8733 17.7 89.2753 18.03C89.6833 18.36 89.9833 18.756 90.1753 19.218C90.3673 19.674 90.4633 20.178 90.4633 20.73C90.4633 21.168 90.3973 21.582 90.2653 21.972C90.1393 22.362 89.9533 22.716 89.7073 23.034C89.4673 23.352 89.1673 23.631 88.8073 23.871C88.4533 24.111 88.0483 24.3 87.5923 24.438C87.7483 24.528 87.8923 24.636 88.0243 24.762C88.1563 24.882 88.2763 25.026 88.3843 25.194L91.6423 30ZM107.25 16.986V30H105.117V21.594C105.117 21.258 105.135 20.895 105.171 20.505L101.238 27.894C101.052 28.248 100.767 28.425 100.383 28.425H100.041C99.6568 28.425 99.3718 28.248 99.1858 27.894L95.2078 20.478C95.2258 20.676 95.2408 20.871 95.2528 21.063C95.2648 21.255 95.2708 21.432 95.2708 21.594V30H93.1378V16.986H94.9648C95.0728 16.986 95.1658 16.989 95.2438 16.995C95.3218 17.001 95.3908 17.016 95.4508 17.04C95.5168 17.064 95.5738 17.103 95.6218 17.157C95.6758 17.211 95.7268 17.283 95.7748 17.373L99.6718 24.6C99.7738 24.792 99.8668 24.99 99.9508 25.194C100.041 25.398 100.128 25.608 100.212 25.824C100.296 25.602 100.383 25.389 100.473 25.185C100.563 24.975 100.659 24.774 100.761 24.582L104.604 17.373C104.652 17.283 104.703 17.211 104.757 17.157C104.811 17.103 104.868 17.064 104.928 17.04C104.994 17.016 105.066 17.001 105.144 16.995C105.222 16.989 105.315 16.986 105.423 16.986H107.25ZM117.119 25.086L115.535 20.757C115.457 20.565 115.376 20.337 115.292 20.073C115.208 19.809 115.124 19.524 115.04 19.218C114.962 19.524 114.881 19.812 114.797 20.082C114.713 20.346 114.632 20.577 114.554 20.775L112.979 25.086H117.119ZM121.394 30H119.522C119.312 30 119.141 29.949 119.009 29.847C118.877 29.739 118.778 29.607 118.712 29.451L117.74 26.796H112.349L111.377 29.451C111.329 29.589 111.236 29.715 111.098 29.829C110.96 29.943 110.789 30 110.585 30H108.695L113.816 16.986H116.282L121.394 30ZM131.382 26.931C131.514 26.931 131.631 26.982 131.733 27.084L132.687 28.119C132.159 28.773 131.508 29.274 130.734 29.622C129.966 29.97 129.042 30.144 127.962 30.144C126.996 30.144 126.126 29.979 125.352 29.649C124.584 29.319 123.927 28.86 123.381 28.272C122.835 27.684 122.415 26.982 122.121 26.166C121.833 25.35 121.689 24.459 121.689 23.493C121.689 22.515 121.845 21.621 122.157 20.811C122.469 19.995 122.907 19.293 123.471 18.705C124.041 18.117 124.719 17.661 125.505 17.337C126.291 17.007 127.161 16.842 128.115 16.842C129.063 16.842 129.903 16.998 130.635 17.31C131.373 17.622 132 18.03 132.516 18.534L131.706 19.659C131.658 19.731 131.595 19.794 131.517 19.848C131.445 19.902 131.343 19.929 131.211 19.929C131.121 19.929 131.028 19.905 130.932 19.857C130.836 19.803 130.731 19.74 130.617 19.668C130.503 19.59 130.371 19.506 130.221 19.416C130.071 19.326 129.897 19.245 129.699 19.173C129.501 19.095 129.27 19.032 129.006 18.984C128.748 18.93 128.448 18.903 128.106 18.903C127.524 18.903 126.99 19.008 126.504 19.218C126.024 19.422 125.61 19.722 125.262 20.118C124.914 20.508 124.644 20.988 124.452 21.558C124.26 22.122 124.164 22.767 124.164 23.493C124.164 24.225 124.266 24.876 124.47 25.446C124.68 26.016 124.962 26.496 125.316 26.886C125.67 27.276 126.087 27.576 126.567 27.786C127.047 27.99 127.563 28.092 128.115 28.092C128.445 28.092 128.742 28.074 129.006 28.038C129.276 28.002 129.522 27.945 129.744 27.867C129.972 27.789 130.185 27.69 130.383 27.57C130.587 27.444 130.788 27.291 130.986 27.111C131.046 27.057 131.109 27.015 131.175 26.985C131.241 26.949 131.31 26.931 131.382 26.931ZM136.865 30H134.435V16.986H136.865V30ZM152.28 23.493C152.28 24.447 152.121 25.332 151.803 26.148C151.491 26.958 151.047 27.66 150.471 28.254C149.895 28.848 149.202 29.313 148.392 29.649C147.582 29.979 146.682 30.144 145.692 30.144C144.708 30.144 143.811 29.979 143.001 29.649C142.191 29.313 141.495 28.848 140.913 28.254C140.337 27.66 139.89 26.958 139.572 26.148C139.254 25.332 139.095 24.447 139.095 23.493C139.095 22.539 139.254 21.657 139.572 20.847C139.89 20.031 140.337 19.326 140.913 18.732C141.495 18.138 142.191 17.676 143.001 17.346C143.811 17.01 144.708 16.842 145.692 16.842C146.352 16.842 146.973 16.92 147.555 17.076C148.137 17.226 148.671 17.442 149.157 17.724C149.643 18 150.078 18.339 150.462 18.741C150.852 19.137 151.182 19.581 151.452 20.073C151.722 20.565 151.926 21.099 152.064 21.675C152.208 22.251 152.28 22.857 152.28 23.493ZM149.805 23.493C149.805 22.779 149.709 22.14 149.517 21.576C149.325 21.006 149.052 20.523 148.698 20.127C148.344 19.731 147.912 19.428 147.402 19.218C146.898 19.008 146.328 18.903 145.692 18.903C145.056 18.903 144.483 19.008 143.973 19.218C143.469 19.428 143.037 19.731 142.677 20.127C142.323 20.523 142.05 21.006 141.858 21.576C141.666 22.14 141.57 22.779 141.57 23.493C141.57 24.207 141.666 24.849 141.858 25.419C142.05 25.983 142.323 26.463 142.677 26.859C143.037 27.249 143.469 27.549 143.973 27.759C144.483 27.969 145.056 28.074 145.692 28.074C146.328 28.074 146.898 27.969 147.402 27.759C147.912 27.549 148.344 27.249 148.698 26.859C149.052 26.463 149.325 25.983 149.517 25.419C149.709 24.849 149.805 24.207 149.805 23.493ZM165.467 16.986V30H164.225C164.033 30 163.871 29.97 163.739 29.91C163.613 29.844 163.49 29.736 163.37 29.586L156.575 20.91C156.611 21.306 156.629 21.672 156.629 22.008V30H154.496V16.986H155.765C155.867 16.986 155.954 16.992 156.026 17.004C156.104 17.01 156.17 17.028 156.224 17.058C156.284 17.082 156.341 17.121 156.395 17.175C156.449 17.223 156.509 17.289 156.575 17.373L163.397 26.085C163.379 25.875 163.364 25.668 163.352 25.464C163.34 25.26 163.334 25.071 163.334 24.897V16.986H165.467ZM181.859 26.931C181.991 26.931 182.108 26.982 182.21 27.084L183.164 28.119C182.636 28.773 181.985 29.274 181.211 29.622C180.443 29.97 179.519 30.144 178.439 30.144C177.473 30.144 176.603 29.979 175.829 29.649C175.061 29.319 174.404 28.86 173.858 28.272C173.312 27.684 172.892 26.982 172.598 26.166C172.31 25.35 172.166 24.459 172.166 23.493C172.166 22.515 172.322 21.621 172.634 20.811C172.946 19.995 173.384 19.293 173.948 18.705C174.518 18.117 175.196 17.661 175.982 17.337C176.768 17.007 177.638 16.842 178.592 16.842C179.54 16.842 180.38 16.998 181.112 17.31C181.85 17.622 182.477 18.03 182.993 18.534L182.183 19.659C182.135 19.731 182.072 19.794 181.994 19.848C181.922 19.902 181.82 19.929 181.688 19.929C181.598 19.929 181.505 19.905 181.409 19.857C181.313 19.803 181.208 19.74 181.094 19.668C180.98 19.59 180.848 19.506 180.698 19.416C180.548 19.326 180.374 19.245 180.176 19.173C179.978 19.095 179.747 19.032 179.483 18.984C179.225 18.93 178.925 18.903 178.583 18.903C178.001 18.903 177.467 19.008 176.981 19.218C176.501 19.422 176.087 19.722 175.739 20.118C175.391 20.508 175.121 20.988 174.929 21.558C174.737 22.122 174.641 22.767 174.641 23.493C174.641 24.225 174.743 24.876 174.947 25.446C175.157 26.016 175.439 26.496 175.793 26.886C176.147 27.276 176.564 27.576 177.044 27.786C177.524 27.99 178.04 28.092 178.592 28.092C178.922 28.092 179.219 28.074 179.483 28.038C179.753 28.002 179.999 27.945 180.221 27.867C180.449 27.789 180.662 27.69 180.86 27.57C181.064 27.444 181.265 27.291 181.463 27.111C181.523 27.057 181.586 27.015 181.652 26.985C181.718 26.949 181.787 26.931 181.859 26.931ZM197.042 23.493C197.042 24.447 196.883 25.332 196.565 26.148C196.253 26.958 195.809 27.66 195.233 28.254C194.657 28.848 193.964 29.313 193.154 29.649C192.344 29.979 191.444 30.144 190.454 30.144C189.47 30.144 188.573 29.979 187.763 29.649C186.953 29.313 186.257 28.848 185.675 28.254C185.099 27.66 184.652 26.958 184.334 26.148C184.016 25.332 183.857 24.447 183.857 23.493C183.857 22.539 184.016 21.657 184.334 20.847C184.652 20.031 185.099 19.326 185.675 18.732C186.257 18.138 186.953 17.676 187.763 17.346C188.573 17.01 189.47 16.842 190.454 16.842C191.114 16.842 191.735 16.92 192.317 17.076C192.899 17.226 193.433 17.442 193.919 17.724C194.405 18 194.84 18.339 195.224 18.741C195.614 19.137 195.944 19.581 196.214 20.073C196.484 20.565 196.688 21.099 196.826 21.675C196.97 22.251 197.042 22.857 197.042 23.493ZM194.567 23.493C194.567 22.779 194.471 22.14 194.279 21.576C194.087 21.006 193.814 20.523 193.46 20.127C193.106 19.731 192.674 19.428 192.164 19.218C191.66 19.008 191.09 18.903 190.454 18.903C189.818 18.903 189.245 19.008 188.735 19.218C188.231 19.428 187.799 19.731 187.439 20.127C187.085 20.523 186.812 21.006 186.62 21.576C186.428 22.14 186.332 22.779 186.332 23.493C186.332 24.207 186.428 24.849 186.62 25.419C186.812 25.983 187.085 26.463 187.439 26.859C187.799 27.249 188.231 27.549 188.735 27.759C189.245 27.969 189.818 28.074 190.454 28.074C191.09 28.074 191.66 27.969 192.164 27.759C192.674 27.549 193.106 27.249 193.46 26.859C193.814 26.463 194.087 25.983 194.279 25.419C194.471 24.849 194.567 24.207 194.567 23.493ZM213.37 16.986V30H211.237V21.594C211.237 21.258 211.255 20.895 211.291 20.505L207.358 27.894C207.172 28.248 206.887 28.425 206.503 28.425H206.161C205.777 28.425 205.492 28.248 205.306 27.894L201.328 20.478C201.346 20.676 201.361 20.871 201.373 21.063C201.385 21.255 201.391 21.432 201.391 21.594V30H199.258V16.986H201.085C201.193 16.986 201.286 16.989 201.364 16.995C201.442 17.001 201.511 17.016 201.571 17.04C201.637 17.064 201.694 17.103 201.742 17.157C201.796 17.211 201.847 17.283 201.895 17.373L205.792 24.6C205.894 24.792 205.987 24.99 206.071 25.194C206.161 25.398 206.248 25.608 206.332 25.824C206.416 25.602 206.503 25.389 206.593 25.185C206.683 24.975 206.779 24.774 206.881 24.582L210.724 17.373C210.772 17.283 210.823 17.211 210.877 17.157C210.931 17.103 210.988 17.064 211.048 17.04C211.114 17.016 211.186 17.001 211.264 16.995C211.342 16.989 211.435 16.986 211.543 16.986H213.37ZM220.594 23.529C221.038 23.529 221.425 23.475 221.755 23.367C222.085 23.253 222.358 23.094 222.574 22.89C222.796 22.68 222.961 22.428 223.069 22.134C223.177 21.834 223.231 21.501 223.231 21.135C223.231 20.787 223.177 20.472 223.069 20.19C222.961 19.908 222.799 19.668 222.583 19.47C222.367 19.272 222.094 19.122 221.764 19.02C221.434 18.912 221.044 18.858 220.594 18.858H218.785V23.529H220.594ZM220.594 16.986C221.464 16.986 222.217 17.088 222.853 17.292C223.489 17.496 224.014 17.781 224.428 18.147C224.842 18.513 225.148 18.951 225.346 19.461C225.55 19.971 225.652 20.529 225.652 21.135C225.652 21.765 225.547 22.344 225.337 22.872C225.127 23.394 224.812 23.844 224.392 24.222C223.972 24.6 223.444 24.894 222.808 25.104C222.178 25.314 221.44 25.419 220.594 25.419H218.785V30H216.364V16.986H220.594ZM235.221 28.002V30H227.598V16.986H230.019V28.002H235.221ZM239.47 18.912V22.521H244.024V24.384H239.47V28.065H245.248V30H237.04V16.986H245.248V18.912H239.47ZM256.574 18.975H252.65V30H250.229V18.975H246.305V16.986H256.574V18.975ZM263.977 25.086L262.393 20.757C262.315 20.565 262.234 20.337 262.15 20.073C262.066 19.809 261.982 19.524 261.898 19.218C261.82 19.524 261.739 19.812 261.655 20.082C261.571 20.346 261.49 20.577 261.412 20.775L259.837 25.086H263.977ZM268.252 30H266.38C266.17 30 265.999 29.949 265.867 29.847C265.735 29.739 265.636 29.607 265.57 29.451L264.598 26.796H259.207L258.235 29.451C258.187 29.589 258.094 29.715 257.956 29.829C257.818 29.943 257.647 30 257.443 30H255.553L260.674 16.986H263.14L268.252 30Z" fill="#08ADBA"/>
</svg>
